{
copyright = "Copyright \U00A9 2019 IBM Corp. with Reserved Font Name \"Plex\"\012This Font Software is licensed under the SIL Open Font License, Version 1.1.\012This license is copied below, and is also available with a FAQ at: http://scripts.sil.org/OFL.";
customParameters = (
{
name = licenseURL;
value = "http://scripts.sil.org/OFL";
},
{
name = vendorID;
value = "";
},
{
name = glyphOrder;
value = (
    ".notdef",
    uni0000,
    uni000D,
    space,
    a,
    b,
    c,
    d,
    e,
    f,
    g,
    "g.alt02",
    h,
    i,
    j,
    k,
    l,
    m,
    n,
    o,
    p,
    q,
    r,
    s,
    t,
    u,
    v,
    w,
    x,
    y,
    z,
    A,
    B,
    C,
    D,
    E,
    F,
    G,
    H,
    I,
    J,
    K,
    L,
    M,
    N,
    O,
    P,
    Q,
    R,
    S,
    T,
    U,
    V,
    W,
    X,
    Y,
    Z,
    zero,
    one,
    two,
    three,
    four,
    five,
    six,
    seven,
    eight,
    nine,
    ampersand,
    at,
    hyphen,
    uni00AD,
    endash,
    emdash,
    underscore,
    period,
    ellipsis,
    colon,
    comma,
    semicolon,
    quotesingle,
    quotedbl,
    quoteleft,
    quoteright,
    quotedblleft,
    quotedblright,
    quotesinglbase,
    quotedblbase,
    guilsinglleft,
    guilsinglright,
    guillemotleft,
    guillemotright,
    exclamdown,
    exclam,
    questiondown,
    question,
    parenleft,
    parenright,
    bracketleft,
    bracketright,
    braceleft,
    braceright,
    slash,
    backslash,
    fraction,
    percent,
    perthousand,
    bar,
    brokenbar,
    section,
    paragraph,
    copyright,
    registered,
    trademark,
    ordfeminine,
    ordmasculine,
    degree,
    asterisk,
    dagger,
    daggerdbl,
    numbersign,
    asciicircum,
    asciitilde,
    plus,
    minus,
    plusminus,
    multiply,
    divide,
    equal,
    approxequal,
    notequal,
    less,
    greater,
    lessequal,
    greaterequal,
    periodcentered,
    bullet,
    lozenge,
    logicalnot,

glyphs = (
{
glyphname = .notdef;
layers = (
{
layerId = "ACBC60AB-B62C-4A0F-8440-773766AFCC64";
name = Light;
paths = (
{
closed = 1;
nodes = (
"32 0 LINE",
"32 780 LINE",
"440 780 LINE",
"440 0 LINE"
);
},
{
closed = 1;
nodes = (
"58 26 LINE",
"414 26 LINE",
"414 754 LINE",
"58 754 LINE"
);
}
);
width = 472;
}
);
},
{
glyphname = a;
lastChange = "2018-11-02 02:20:22 +0000";
layers = (
{
layerId = "ACBC60AB-B62C-4A0F-8440-773766AFCC64";
name = Light;
paths = (
{
closed = 1;
nodes = (
"154 520 OFFCURVE",
"103 479 OFFCURVE",
"75 416 CURVE",
"100 399 LINE",
"127 459 OFFCURVE",
"177 489 OFFCURVE",
"248 489 CURVE SMOOTH",
"340 489 OFFCURVE",
"387 444 OFFCURVE",
"387 348 CURVE SMOOTH",
"387 280 LINE",
"254 280 LINE SMOOTH",
"181 280 OFFCURVE",
"132 266 OFFCURVE",
"101 240 CURVE SMOOTH",
"69 214 OFFCURVE",
"57 177 OFFCURVE",
"57 133 CURVE SMOOTH",
"57 41 OFFCURVE",
"117 -12 OFFCURVE",
"222 -12 CURVE SMOOTH",
"310 -12 OFFCURVE",
"360 27 OFFCURVE",
"384 79 CURVE",
"388 79 LINE",
"388 0 LINE",
"422 0 LINE",
"422 352 LINE SMOOTH",
"422 460 OFFCURVE",
"362 520 OFFCURVE",
"249 520 CURVE SMOOTH"
);
},
{
closed = 1;
nodes = (
"387 105 OFFCURVE",
"368 73 OFFCURVE",
"339 52 CURVE SMOOTH",
"310 31 OFFCURVE",
"269 19 OFFCURVE",
"225 19 CURVE SMOOTH",
"148 19 OFFCURVE",
"94 53 OFFCURVE",
"94 120 CURVE SMOOTH",
"94 148 LINE SMOOTH",
"94 211 OFFCURVE",
"142 252 OFFCURVE",
"254 252 CURVE SMOOTH",
"387 252 LINE",
"387 148 LINE SMOOTH"
);
}
);
width = 514;
}
);
leftKerningGroup = a;
rightKerningGroup = a;
unicode = 0061;
},
{
glyphname = b;
layers = (
{
layerId = "ACBC60AB-B62C-4A0F-8440-773766AFCC64";
name = Light;
paths = (
{
closed = 1;
nodes = (
"100 740 LINE",
"135 740 LINE",
"135 429 LINE",
"138 429 LINE",
"161 478 OFFCURVE",
"214 520 OFFCURVE",
"299 520 CURVE SMOOTH",
"432 520 OFFCURVE",
"510 429 OFFCURVE",
"510 254 CURVE SMOOTH",
"510 79 OFFCURVE",
"432 -12 OFFCURVE",
"299 -12 CURVE SMOOTH",
"214 -12 OFFCURVE",
"161 31 OFFCURVE",
"138 79 CURVE",
"135 79 LINE",
"135 0 LINE",
"100 0 LINE"
);
},
{
closed = 1;
nodes = (
"407 20 OFFCURVE",
"472 98 OFFCURVE",
"472 225 CURVE SMOOTH",
"472 283 LINE SMOOTH",
"472 410 OFFCURVE",
"407 489 OFFCURVE",
"294 489 CURVE SMOOTH",
"251 489 OFFCURVE",
"211 476 OFFCURVE",
"183 454 CURVE SMOOTH",
"154 432 OFFCURVE",
"135 399 OFFCURVE",
"135 362 CURVE SMOOTH",
"135 148 LINE SMOOTH",
"135 109 OFFCURVE",
"154 78 OFFCURVE",
"183 55 CURVE SMOOTH",
"211 32 OFFCURVE",
"251 20 OFFCURVE",
"294 20 CURVE SMOOTH"
);
}
);
width = 567;
}
);
leftKerningGroup = b;
rightKerningGroup = b;
unicode = 0062;
},
{
glyphname = c;
layers = (
{
layerId = "ACBC60AB-B62C-4A0F-8440-773766AFCC64";
name = Light;
paths = (
{
closed = 1;
nodes = (
"136 -12 OFFCURVE",
"57 81 OFFCURVE",
"57 254 CURVE SMOOTH",
"57 429 OFFCURVE",
"136 520 OFFCURVE",
"272 520 CURVE SMOOTH",
"357 520 OFFCURVE",
"412 479 OFFCURVE",
"443 415 CURVE",
"414 400 LINE",
"385 457 OFFCURVE",
"343 489 OFFCURVE",
"272 489 CURVE SMOOTH",
"157 489 OFFCURVE",
"95 408 OFFCURVE",
"95 283 CURVE SMOOTH",
"95 225 LINE SMOOTH",
"95 100 OFFCURVE",
"157 19 OFFCURVE",
"272 19 CURVE SMOOTH",
"348 19 OFFCURVE",
"394 52 OFFCURVE",
"425 108 CURVE",
"451 90 LINE",
"418 29 OFFCURVE",
"363 -12 OFFCURVE",
"272 -12 CURVE SMOOTH"
);
}
);
width = 491;
}
);
leftKerningGroup = c;
rightKerningGroup = c;
unicode = 0063;
},
{
glyphname = d;
layers = (
{
layerId = "ACBC60AB-B62C-4A0F-8440-773766AFCC64";
name = Light;
paths = (
{
closed = 1;
nodes = (
"432 79 LINE",
"429 79 LINE",
"406 31 OFFCURVE",
"353 -12 OFFCURVE",
"268 -12 CURVE SMOOTH",
"135 -12 OFFCURVE",
"57 79 OFFCURVE",
"57 254 CURVE SMOOTH",
"57 429 OFFCURVE",
"135 520 OFFCURVE",
"268 520 CURVE SMOOTH",
"353 520 OFFCURVE",
"406 478 OFFCURVE",
"429 429 CURVE",
"432 429 LINE",
"432 740 LINE",
"467 740 LINE",
"467 0 LINE",
"432 0 LINE"
);
},
{
closed = 1;
nodes = (
"316 20 OFFCURVE",
"356 32 OFFCURVE",
"385 55 CURVE SMOOTH",
"413 78 OFFCURVE",
"432 109 OFFCURVE",
"432 148 CURVE SMOOTH",
"432 362 LINE SMOOTH",
"432 399 OFFCURVE",
"413 432 OFFCURVE",
"385 454 CURVE SMOOTH",
"356 476 OFFCURVE",
"316 489 OFFCURVE",
"273 489 CURVE SMOOTH",
"160 489 OFFCURVE",
"95 410 OFFCURVE",
"95 283 CURVE SMOOTH",
"95 225 LINE SMOOTH",
"95 98 OFFCURVE",
"160 20 OFFCURVE",
"273 20 CURVE SMOOTH"
);
}
);
width = 567;
}
);
leftKerningGroup = d;
unicode = 0064;
},
{
glyphname = e;
layers = (
{
layerId = "ACBC60AB-B62C-4A0F-8440-773766AFCC64";
name = Light;
paths = (
{
closed = 1;
nodes = (
"140 -12 OFFCURVE",
"57 81 OFFCURVE",
"57 254 CURVE SMOOTH",
"57 426 OFFCURVE",
"138 520 OFFCURVE",
"271 520 CURVE SMOOTH",
"334 520 OFFCURVE",
"386 495 OFFCURVE",
"423 451 CURVE SMOOTH",
"459 407 OFFCURVE",
"480 344 OFFCURVE",
"480 268 CURVE SMOOTH",
"480 252 LINE",
"94 252 LINE",
"94 225 LINE SMOOTH",
"94 162 OFFCURVE",
"110 111 OFFCURVE",
"142 75 CURVE SMOOTH",
"173 39 OFFCURVE",
"218 19 OFFCURVE",
"275 19 CURVE SMOOTH",
"356 19 OFFCURVE",
"411 58 OFFCURVE",
"442 135 CURVE",
"469 120 LINE",
"438 40 OFFCURVE",
"372 -12 OFFCURVE",
"275 -12 CURVE SMOOTH"
);
},
{
closed = 1;
nodes = (
"215 489 OFFCURVE",
"172 469 OFFCURVE",
"141 433 CURVE SMOOTH",
"110 397 OFFCURVE",
"94 345 OFFCURVE",
"94 284 CURVE SMOOTH",
"94 280 LINE",
"442 280 LINE",
"442 286 LINE SMOOTH",
"442 347 OFFCURVE",
"425 398 OFFCURVE",
"395 434 CURVE SMOOTH",
"365 469 OFFCURVE",
"322 489 OFFCURVE",
"271 489 CURVE SMOOTH"
);
}
);
width = 537;
}
);
leftKerningGroup = c;
rightKerningGroup = e;
unicode = 0065;
},
{
glyphname = f;
layers = (
{
layerId = "ACBC60AB-B62C-4A0F-8440-773766AFCC64";
name = Light;
paths = (
{
closed = 1;
nodes = (
"121 477 LINE",
"30 477 LINE",
"30 508 LINE",
"121 508 LINE",
"121 689 LINE SMOOTH",
"121 723 OFFCURVE",
"137 740 OFFCURVE",
"170 740 CURVE SMOOTH",
"270 740 LINE",
"270 709 LINE",
"156 709 LINE",
"156 508 LINE",
"270 508 LINE",
"270 477 LINE",
"156 477 LINE",
"156 0 LINE",
"121 0 LINE"
);
}
);
width = 294;
}
);
leftKerningGroup = f;
rightKerningGroup = f;
unicode = 0066;
},
{
glyphname = g;
lastChange = "2018-11-05 19:14:41 +0000";
layers = (
{
layerId = "ACBC60AB-B62C-4A0F-8440-773766AFCC64";
name = Light;
paths = (
{
closed = 1;
nodes = (
"467 508 LINE",
"432 508 LINE",
"432 429 LINE",
"429 429 LINE",
"407 478 OFFCURVE",
"353 520 OFFCURVE",
"268 520 CURVE SMOOTH",
"136 520 OFFCURVE",
"57 428 OFFCURVE",
"57 254 CURVE SMOOTH",
"57 81 OFFCURVE",
"136 -12 OFFCURVE",
"268 -12 CURVE SMOOTH",
"353 -12 OFFCURVE",
"406 31 OFFCURVE",
"429 79 CURVE",
"432 79 LINE",
"432 -6 LINE SMOOTH",
"432 -122 OFFCURVE",
"373 -181 OFFCURVE",
"262 -181 CURVE SMOOTH",
"186 -181 OFFCURVE",
"144 -159 OFFCURVE",
"107 -120 CURVE",
"86 -145 LINE",
"126 -187 OFFCURVE",
"179 -212 OFFCURVE",
"263 -212 CURVE SMOOTH",
"397 -212 OFFCURVE",
"467 -136 OFFCURVE",
"467 -4 CURVE SMOOTH"
);
},
{
closed = 1;
nodes = (
"160 20 OFFCURVE",
"95 100 OFFCURVE",
"95 225 CURVE SMOOTH",
"95 283 LINE SMOOTH",
"95 409 OFFCURVE",
"160 489 OFFCURVE",
"274 489 CURVE SMOOTH",
"358 489 OFFCURVE",
"432 437 OFFCURVE",
"432 362 CURVE SMOOTH",
"432 148 LINE SMOOTH",
"432 71 OFFCURVE",
"358 20 OFFCURVE",
"274 20 CURVE SMOOTH"
);
}
);
width = 567;
}
);
leftKerningGroup = g;
rightKerningGroup = g;
unicode = 0067;
},
{
glyphname = h;
layers = (
{
layerId = "ACBC60AB-B62C-4A0F-8440-773766AFCC64";
name = Light;
paths = (
{
closed = 1;
nodes = (
"100 740 LINE",
"135 740 LINE",
"135 430 LINE",
"138 430 LINE",
"158 479 OFFCURVE",
"206 520 OFFCURVE",
"294 520 CURVE SMOOTH",
"406 520 OFFCURVE",
"467 453 OFFCURVE",
"467 326 CURVE SMOOTH",
"467 0 LINE",
"432 0 LINE",
"432 320 LINE SMOOTH",
"432 437 OFFCURVE",
"381 489 OFFCURVE",
"286 489 CURVE SMOOTH",
"247 489 OFFCURVE",
"209 478 OFFCURVE",
"181 457 CURVE SMOOTH",
"153 436 OFFCURVE",
"135 404 OFFCURVE",
"135 361 CURVE SMOOTH",
"135 0 LINE",
"100 0 LINE"
);
}
);
width = 559;
}
);
leftKerningGroup = b;
rightKerningGroup = h;
unicode = 0068;
},
{
glyphname = i;
layers = (
{
layerId = "ACBC60AB-B62C-4A0F-8440-773766AFCC64";
name = Light;
paths = (
{
closed = 1;
nodes = (
"97 665 OFFCURVE",
"88 676 OFFCURVE",
"88 691 CURVE SMOOTH",
"88 700 LINE SMOOTH",
"88 715 OFFCURVE",
"96 726 OFFCURVE",
"117 726 CURVE SMOOTH",
"138 726 OFFCURVE",
"147 715 OFFCURVE",
"147 700 CURVE SMOOTH",
"147 691 LINE SMOOTH",
"147 676 OFFCURVE",
"139 665 OFFCURVE",
"118 665 CURVE SMOOTH"
);
},
{
closed = 1;
nodes = (
"100 508 LINE",
"135 508 LINE",
"135 0 LINE",
"100 0 LINE"
);
}
);
width = 235;
}
);
leftKerningGroup = i;
rightKerningGroup = i;
unicode = 0069;
},
{
glyphname = j;
layers = (
{
layerId = "ACBC60AB-B62C-4A0F-8440-773766AFCC64";
name = Light;
paths = (
{
closed = 1;
nodes = (
"100 508 LINE",
"135 508 LINE",
"135 -149 LINE SMOOTH",
"135 -183 OFFCURVE",
"119 -200 OFFCURVE",
"87 -200 CURVE SMOOTH",
"15 -200 LINE",
"15 -169 LINE",
"100 -169 LINE"
);
},
{
closed = 1;
nodes = (
"97 665 OFFCURVE",
"88 676 OFFCURVE",
"88 691 CURVE SMOOTH",
"88 700 LINE SMOOTH",
"88 715 OFFCURVE",
"96 726 OFFCURVE",
"117 726 CURVE SMOOTH",
"138 726 OFFCURVE",
"147 715 OFFCURVE",
"147 700 CURVE SMOOTH",
"147 691 LINE SMOOTH",
"147 676 OFFCURVE",
"139 665 OFFCURVE",
"118 665 CURVE SMOOTH"
);
}
);
width = 235;
}
);
leftKerningGroup = j;
rightKerningGroup = j;
unicode = 006A;
},
{
glyphname = k;
layers = (
{
layerId = "ACBC60AB-B62C-4A0F-8440-773766AFCC64";
name = Light;
paths = (
{
closed = 1;
nodes = (
"100 740 LINE",
"135 740 LINE",
"135 232 LINE",
"138 232 LINE",
"218 313 LINE",
"411 508 LINE",
"455 508 LINE",
"246 297 LINE",
"480 0 LINE",
"437 0 LINE",
"221 274 LINE",
"135 189 LINE",
"135 0 LINE",
"100 0 LINE"
);
}
);
width = 499;
}
);
leftKerningGroup = b;
rightKerningGroup = k;
unicode = 006B;
},
{
glyphname = l;
lastChange = "2018-11-02 14:44:29 +0000";
layers = (
{
layerId = "ACBC60AB-B62C-4A0F-8440-773766AFCC64";
name = Light;
paths = (
{
closed = 1;
nodes = (
"143 0 LINE SMOOTH",
"114 0 OFFCURVE",
"100 14 OFFCURVE",
"100 42 CURVE SMOOTH",
"100 740 LINE",
"135 740 LINE",
"135 31 LINE",
"218 31 LINE",
"218 0 LINE"
);
}
);
width = 255;
}
);
leftKerningGroup = l;
rightKerningGroup = l;
unicode = 006C;
},
{
glyphname = m;
layers = (
{
layerId = "ACBC60AB-B62C-4A0F-8440-773766AFCC64";
name = Light;
paths = (
{
closed = 1;
nodes = (
"100 0 LINE",
"100 508 LINE",
"135 508 LINE",
"135 430 LINE",
"138 430 LINE",
"147 454 OFFCURVE",
"164 476 OFFCURVE",
"188 493 CURVE SMOOTH",
"212 509 OFFCURVE",
"244 520 OFFCURVE",
"288 520 CURVE SMOOTH",
"368 520 OFFCURVE",
"424 483 OFFCURVE",
"447 410 CURVE",
"450 410 LINE",
"469 474 OFFCURVE",
"522 520 OFFCURVE",
"614 520 CURVE SMOOTH",
"726 520 OFFCURVE",
"786 453 OFFCURVE",
"786 326 CURVE SMOOTH",
"786 0 LINE",
"751 0 LINE",
"751 321 LINE SMOOTH",
"751 436 OFFCURVE",
"703 489 OFFCURVE",
"607 489 CURVE SMOOTH",
"568 489 OFFCURVE",
"532 478 OFFCURVE",
"505 457 CURVE SMOOTH",
"478 436 OFFCURVE",
"461 403 OFFCURVE",
"461 360 CURVE SMOOTH",
"461 0 LINE",
"426 0 LINE",
"426 321 LINE SMOOTH",
"426 437 OFFCURVE",
"375 489 OFFCURVE",
"282 489 CURVE SMOOTH",
"243 489 OFFCURVE",
"207 478 OFFCURVE",
"180 457 CURVE SMOOTH",
"152 436 OFFCURVE",
"135 404 OFFCURVE",
"135 361 CURVE SMOOTH",
"135 0 LINE"
);
}
);
width = 878;
}
);
leftKerningGroup = m;
rightKerningGroup = h;
unicode = 006D;
},
{
glyphname = n;
layers = (
{
layerId = "ACBC60AB-B62C-4A0F-8440-773766AFCC64";
name = Light;
paths = (
{
closed = 1;
nodes = (
"100 0 LINE",
"100 508 LINE",
"135 508 LINE",
"135 430 LINE",
"138 430 LINE",
"158 479 OFFCURVE",
"206 520 OFFCURVE",
"294 520 CURVE SMOOTH",
"406 520 OFFCURVE",
"467 453 OFFCURVE",
"467 326 CURVE SMOOTH",
"467 0 LINE",
"432 0 LINE",
"432 320 LINE SMOOTH",
"432 437 OFFCURVE",
"381 489 OFFCURVE",
"286 489 CURVE SMOOTH",
"247 489 OFFCURVE",
"209 478 OFFCURVE",
"181 457 CURVE SMOOTH",
"153 436 OFFCURVE",
"135 404 OFFCURVE",
"135 361 CURVE SMOOTH",
"135 0 LINE"
);
}
);
width = 559;
}
);
leftKerningGroup = m;
rightKerningGroup = h;
unicode = 006E;
},
{
glyphname = o;
lastChange = "2018-11-07 04:36:13 +0000";
layers = (
{
layerId = "ACBC60AB-B62C-4A0F-8440-773766AFCC64";
name = Light;
paths = (
{
closed = 1;
nodes = (
"139 -12 OFFCURVE",
"57 81 OFFCURVE",
"57 254 CURVE SMOOTH",
"57 429 OFFCURVE",
"139 520 OFFCURVE",
"272 520 CURVE SMOOTH",
"405 520 OFFCURVE",
"487 429 OFFCURVE",
"487 254 CURVE SMOOTH",
"487 81 OFFCURVE",
"405 -12 OFFCURVE",
"272 -12 CURVE SMOOTH"
);
},
{
closed = 1;
nodes = (
"385 19 OFFCURVE",
"449 98 OFFCURVE",
"449 227 CURVE SMOOTH",
"449 281 LINE SMOOTH",
"449 412 OFFCURVE",
"385 489 OFFCURVE",
"272 489 CURVE SMOOTH",
"159 489 OFFCURVE",
"95 412 OFFCURVE",
"95 281 CURVE SMOOTH",
"95 227 LINE SMOOTH",
"95 98 OFFCURVE",
"159 19 OFFCURVE",
"272 19 CURVE SMOOTH"
);
}
);
width = 544;
}
);
leftKerningGroup = c;
rightKerningGroup = o;
unicode = 006F;
},
{
glyphname = p;
layers = (
{
layerId = "ACBC60AB-B62C-4A0F-8440-773766AFCC64";
name = Light;
paths = (
{
closed = 1;
nodes = (
"100 508 LINE",
"135 508 LINE",
"135 429 LINE",
"138 429 LINE",
"161 478 OFFCURVE",
"214 520 OFFCURVE",
"299 520 CURVE SMOOTH",
"432 520 OFFCURVE",
"510 429 OFFCURVE",
"510 254 CURVE SMOOTH",
"510 79 OFFCURVE",
"432 -12 OFFCURVE",
"299 -12 CURVE SMOOTH",
"214 -12 OFFCURVE",
"161 31 OFFCURVE",
"138 79 CURVE",
"135 79 LINE",
"135 -200 LINE",
"100 -200 LINE"
);
},
{
closed = 1;
nodes = (
"407 20 OFFCURVE",
"472 98 OFFCURVE",
"472 225 CURVE SMOOTH",
"472 283 LINE SMOOTH",
"472 410 OFFCURVE",
"407 489 OFFCURVE",
"294 489 CURVE SMOOTH",
"251 489 OFFCURVE",
"211 476 OFFCURVE",
"183 454 CURVE SMOOTH",
"154 432 OFFCURVE",
"135 399 OFFCURVE",
"135 362 CURVE SMOOTH",
"135 148 LINE SMOOTH",
"135 109 OFFCURVE",
"154 78 OFFCURVE",
"183 55 CURVE SMOOTH",
"211 32 OFFCURVE",
"251 20 OFFCURVE",
"294 20 CURVE SMOOTH"
);
}
);
width = 567;
}
);
leftKerningGroup = p;
rightKerningGroup = b;
unicode = 0070;
},
{
glyphname = q;
layers = (
{
layerId = "ACBC60AB-B62C-4A0F-8440-773766AFCC64";
name = Light;
paths = (
{
closed = 1;
nodes = (
"432 79 LINE",
"429 79 LINE",
"406 31 OFFCURVE",
"353 -12 OFFCURVE",
"268 -12 CURVE SMOOTH",
"135 -12 OFFCURVE",
"57 79 OFFCURVE",
"57 254 CURVE SMOOTH",
"57 429 OFFCURVE",
"135 520 OFFCURVE",
"268 520 CURVE SMOOTH",
"353 520 OFFCURVE",
"406 478 OFFCURVE",
"429 429 CURVE",
"432 429 LINE",
"432 508 LINE",
"467 508 LINE",
"467 -200 LINE",
"432 -200 LINE"
);
},
{
closed = 1;
nodes = (
"316 20 OFFCURVE",
"356 32 OFFCURVE",
"385 55 CURVE SMOOTH",
"413 78 OFFCURVE",
"432 109 OFFCURVE",
"432 148 CURVE SMOOTH",
"432 362 LINE SMOOTH",
"432 399 OFFCURVE",
"413 432 OFFCURVE",
"385 454 CURVE SMOOTH",
"356 476 OFFCURVE",
"316 489 OFFCURVE",
"273 489 CURVE SMOOTH",
"160 489 OFFCURVE",
"95 410 OFFCURVE",
"95 283 CURVE SMOOTH",
"95 225 LINE SMOOTH",
"95 98 OFFCURVE",
"160 20 OFFCURVE",
"273 20 CURVE SMOOTH"
);
}
);
width = 567;
}
);
leftKerningGroup = d;
rightKerningGroup = j;
unicode = 0071;
},
{
glyphname = r;
layers = (
{
layerId = "ACBC60AB-B62C-4A0F-8440-773766AFCC64";
name = Light;
paths = (
{
closed = 1;
nodes = (
"100 0 LINE",
"100 508 LINE",
"135 508 LINE",
"135 419 LINE",
"139 419 LINE",
"160 467 OFFCURVE",
"204 508 OFFCURVE",
"295 508 CURVE SMOOTH",
"333 508 LINE",
"333 475 LINE",
"289 475 LINE SMOOTH",
"248 475 OFFCURVE",
"209 464 OFFCURVE",
"181 443 CURVE SMOOTH",
"153 422 OFFCURVE",
"135 390 OFFCURVE",
"135 349 CURVE SMOOTH",
"135 0 LINE"
);
}
);
width = 347;
}
);
leftKerningGroup = m;
rightKerningGroup = r;
unicode = 0072;
},
{
glyphname = s;
layers = (
{
layerId = "ACBC60AB-B62C-4A0F-8440-773766AFCC64";
name = Light;
paths = (
{
closed = 1;
nodes = (
"153 -12 OFFCURVE",
"93 18 OFFCURVE",
"46 83 CURVE",
"73 103 LINE",
"118 43 OFFCURVE",
"166 19 OFFCURVE",
"238 19 CURVE SMOOTH",
"329 19 OFFCURVE",
"376 57 OFFCURVE",
"376 128 CURVE SMOOTH",
"376 196 OFFCURVE",
"337 226 OFFCURVE",
"256 239 CURVE SMOOTH",
"213 246 LINE SMOOTH",
"168 253 OFFCURVE",
"131 266 OFFCURVE",
"105 288 CURVE SMOOTH",
"79 310 OFFCURVE",
"64 341 OFFCURVE",
"64 386 CURVE SMOOTH",
"64 430 OFFCURVE",
"82 463 OFFCURVE",
"112 486 CURVE SMOOTH",
"142 509 OFFCURVE",
"183 520 OFFCURVE",
"230 520 CURVE SMOOTH",
"315 520 OFFCURVE",
"365 485 OFFCURVE",
"400 445 CURVE",
"375 422 LINE",
"360 439 OFFCURVE",
"343 456 OFFCURVE",
"320 469 CURVE SMOOTH",
"297 481 OFFCURVE",
"268 489 OFFCURVE",
"229 489 CURVE SMOOTH",
"149 489 OFFCURVE",
"98 454 OFFCURVE",
"98 387 CURVE SMOOTH",
"98 319 OFFCURVE",
"138 292 OFFCURVE",
"219 279 CURVE SMOOTH",
"262 272 LINE SMOOTH",
"357 257 OFFCURVE",
"410 218 OFFCURVE",
"410 131 CURVE SMOOTH",
"410 40 OFFCURVE",
"345 -12 OFFCURVE",
"237 -12 CURVE SMOOTH"
);
}
);
width = 468;
}
);
leftKerningGroup = s;
rightKerningGroup = s;
unicode = 0073;
},
{
glyphname = t;
layers = (
{
layerId = "ACBC60AB-B62C-4A0F-8440-773766AFCC64";
name = Light;
paths = (
{
closed = 1;
nodes = (
"165 0 LINE SMOOTH",
"136 0 OFFCURVE",
"122 14 OFFCURVE",
"122 42 CURVE SMOOTH",
"122 477 LINE",
"30 477 LINE",
"30 508 LINE",
"96 508 LINE SMOOTH",
"119 508 OFFCURVE",
"124 516 OFFCURVE",
"124 539 CURVE SMOOTH",
"124 652 LINE",
"157 652 LINE",
"157 508 LINE",
"276 508 LINE",
"276 477 LINE",
"157 477 LINE",
"157 31 LINE",
"268 31 LINE",
"268 0 LINE"
);
}
);
width = 320;
}
);
leftKerningGroup = t;
rightKerningGroup = t;
unicode = 0074;
},
{
glyphname = u;
layers = (
{
layerId = "ACBC60AB-B62C-4A0F-8440-773766AFCC64";
name = Light;
paths = (
{
closed = 1;
nodes = (
"424 78 LINE",
"420 78 LINE",
"411 55 OFFCURVE",
"394 32 OFFCURVE",
"370 16 CURVE SMOOTH",
"345 -1 OFFCURVE",
"310 -12 OFFCURVE",
"265 -12 CURVE SMOOTH",
"153 -12 OFFCURVE",
"91 55 OFFCURVE",
"91 182 CURVE SMOOTH",
"91 508 LINE",
"126 508 LINE",
"126 188 LINE SMOOTH",
"126 71 OFFCURVE",
"178 19 OFFCURVE",
"273 19 CURVE SMOOTH",
"312 19 OFFCURVE",
"350 30 OFFCURVE",
"378 51 CURVE SMOOTH",
"406 71 OFFCURVE",
"424 104 OFFCURVE",
"424 148 CURVE SMOOTH",
"424 508 LINE",
"459 508 LINE",
"459 0 LINE",
"424 0 LINE"
);
}
);
width = 559;
}
);
leftKerningGroup = u;
rightKerningGroup = u;
unicode = 0075;
},
{
glyphname = v;
layers = (
{
layerId = "ACBC60AB-B62C-4A0F-8440-773766AFCC64";
name = Light;
paths = (
{
closed = 1;
nodes = (
"23 508 LINE",
"60 508 LINE",
"230 38 LINE",
"233 38 LINE",
"403 508 LINE",
"438 508 LINE",
"251 0 LINE",
"210 0 LINE"
);
}
);
width = 461;
}
);
leftKerningGroup = v;
rightKerningGroup = v;
unicode = 0076;
},
{
glyphname = w;
layers = (
{
layerId = "ACBC60AB-B62C-4A0F-8440-773766AFCC64";
name = Light;
paths = (
{
closed = 1;
nodes = (
"34 508 LINE",
"70 508 LINE",
"205 36 LINE",
"208 36 LINE",
"351 508 LINE",
"385 508 LINE",
"529 36 LINE",
"532 36 LINE",
"667 508 LINE",
"701 508 LINE",
"551 0 LINE",
"508 0 LINE",
"369 456 LINE",
"366 456 LINE",
"227 0 LINE",
"184 0 LINE"
);
}
);
width = 735;
}
);
leftKerningGroup = w;
rightKerningGroup = w;
unicode = 0077;
},
{
glyphname = x;
layers = (
{
layerId = "ACBC60AB-B62C-4A0F-8440-773766AFCC64";
name = Light;
paths = (
{
closed = 1;
nodes = (
"31 0 LINE",
"220 256 LINE",
"37 508 LINE",
"78 508 LINE",
"239 285 LINE",
"241 285 LINE",
"403 508 LINE",
"443 508 LINE",
"260 258 LINE",
"448 0 LINE",
"407 0 LINE",
"241 229 LINE",
"239 229 LINE",
"71 0 LINE"
);
}
);
width = 479;
}
);
leftKerningGroup = x;
rightKerningGroup = x;
unicode = 0078;
},
{
glyphname = y;
layers = (
{
layerId = "ACBC60AB-B62C-4A0F-8440-773766AFCC64";
name = Light;
paths = (
{
closed = 1;
nodes = (
"403 508 LINE",
"438 508 LINE",
"190 -167 LINE",
"179 -191 OFFCURVE",
"167 -200 OFFCURVE",
"138 -200 CURVE SMOOTH",
"64 -200 LINE",
"64 -169 LINE",
"154 -169 LINE",
"214 -10 LINE",
"23 508 LINE",
"60 508 LINE",
"230 38 LINE",
"233 38 LINE"
);
}
);
width = 462;
}
);
leftKerningGroup = y;
rightKerningGroup = y;
unicode = 0079;
},
{
glyphname = z;
layers = (
{
layerId = "ACBC60AB-B62C-4A0F-8440-773766AFCC64";
name = Light;
paths = (
{
closed = 1;
nodes = (
"28 0 LINE",
"28 32 LINE",
"355 477 LINE",
"38 477 LINE",
"38 508 LINE",
"395 508 LINE",
"395 478 LINE",
"67 31 LINE",
"404 31 LINE",
"404 0 LINE"
);
}
);
width = 428;
}
);
leftKerningGroup = z;
rightKerningGroup = z;
unicode = 007A;
},
{
glyphname = A;
layers = (
{
layerId = "ACBC60AB-B62C-4A0F-8440-773766AFCC64";
name = Light;
paths = (
{
closed = 1;
nodes = (
"541 0 LINE",
"460 227 LINE",
"149 227 LINE",
"68 0 LINE",
"30 0 LINE",
"281 698 LINE",
"329 698 LINE",
"580 0 LINE"
);
},
{
closed = 1;
nodes = (
"306 662 LINE",
"302 662 LINE",
"159 259 LINE",
"450 259 LINE"
);
}
);
width = 610;
}
);
leftKerningGroup = A;
rightKerningGroup = A;
unicode = 0041;
},
{
glyphname = B;
layers = (
{
layerId = "ACBC60AB-B62C-4A0F-8440-773766AFCC64";
name = Light;
paths = (
{
closed = 1;
nodes = (
"104 698 LINE",
"365 698 LINE SMOOTH",
"469 698 OFFCURVE",
"529 637 OFFCURVE",
"529 526 CURVE SMOOTH",
"529 434 OFFCURVE",
"487 387 OFFCURVE",
"428 370 CURVE",
"428 367 LINE",
"507 354 OFFCURVE",
"559 296 OFFCURVE",
"559 192 CURVE SMOOTH",
"559 76 OFFCURVE",
"496 0 OFFCURVE",
"384 0 CURVE SMOOTH",
"104 0 LINE"
);
},
{
closed = 1;
nodes = (
"141 33 LINE",
"378 33 LINE SMOOTH",
"426 33 OFFCURVE",
"461 49 OFFCURVE",
"485 74 CURVE SMOOTH",
"509 99 OFFCURVE",
"520 134 OFFCURVE",
"520 171 CURVE SMOOTH",
"520 211 LINE SMOOTH",
"520 248 OFFCURVE",
"509 284 OFFCURVE",
"485 309 CURVE SMOOTH",
"461 334 OFFCURVE",
"426 350 OFFCURVE",
"378 350 CURVE SMOOTH",
"141 350 LINE"
);
},
{
closed = 1;
nodes = (
"141 382 LINE",
"362 382 LINE SMOOTH",
"405 382 OFFCURVE",
"437 397 OFFCURVE",
"458 419 CURVE SMOOTH",
"479 441 OFFCURVE",
"490 471 OFFCURVE",
"490 504 CURVE SMOOTH",
"490 544 LINE SMOOTH",
"490 577 OFFCURVE",
"479 608 OFFCURVE",
"458 630 CURVE SMOOTH",
"437 652 OFFCURVE",
"405 665 OFFCURVE",
"362 665 CURVE SMOOTH",
"141 665 LINE"
);
}
);
width = 624;
}
);
unicode = 0042;
},
{
glyphname = C;
layers = (
{
layerId = "ACBC60AB-B62C-4A0F-8440-773766AFCC64";
name = Light;
paths = (
{
closed = 1;
nodes = (
"163 -12 OFFCURVE",
"67 108 OFFCURVE",
"67 348 CURVE SMOOTH",
"67 588 OFFCURVE",
"163 710 OFFCURVE",
"331 710 CURVE SMOOTH",
"438 710 OFFCURVE",
"514 653 OFFCURVE",
"553 565 CURVE",
"522 548 LINE",
"487 628 OFFCURVE",
"422 677 OFFCURVE",
"331 677 CURVE SMOOTH",
"191 677 OFFCURVE",
"107 575 OFFCURVE",
"107 376 CURVE SMOOTH",
"107 320 LINE SMOOTH",
"107 121 OFFCURVE",
"191 21 OFFCURVE",
"331 21 CURVE SMOOTH",
"428 21 OFFCURVE",
"495 73 OFFCURVE",
"528 158 CURVE",
"558 142 LINE",
"519 49 OFFCURVE",
"442 -12 OFFCURVE",
"331 -12 CURVE SMOOTH"
);
}
);
width = 613;
}
);
leftKerningGroup = C;
rightKerningGroup = C;
unicode = 0043;
},
{
glyphname = D;
layers = (
{
layerId = "ACBC60AB-B62C-4A0F-8440-773766AFCC64";
name = Light;
paths = (
{
closed = 1;
nodes = (
"104 698 LINE",
"316 698 LINE SMOOTH",
"500 698 OFFCURVE",
"594 581 OFFCURVE",
"594 349 CURVE SMOOTH",
"594 117 OFFCURVE",
"500 0 OFFCURVE",
"316 0 CURVE SMOOTH",
"104 0 LINE"
);
},
{
closed = 1;
nodes = (
"316 33 LINE SMOOTH",
"396 33 OFFCURVE",
"455 60 OFFCURVE",
"495 109 CURVE SMOOTH",
"535 157 OFFCURVE",
"554 228 OFFCURVE",
"554 313 CURVE SMOOTH",
"554 385 LINE SMOOTH",
"554 470 OFFCURVE",
"535 541 OFFCURVE",
"495 590 CURVE SMOOTH",
"455 638 OFFCURVE",
"396 665 OFFCURVE",
"316 665 CURVE SMOOTH",
"141 665 LINE",
"141 33 LINE"
);
}
);
width = 661;
}
);
rightKerningGroup = D;
unicode = 0044;
},
{
glyphname = E;
layers = (
{
layerId = "ACBC60AB-B62C-4A0F-8440-773766AFCC64";
name = Light;
paths = (
{
closed = 1;
nodes = (
"104 0 LINE",
"104 698 LINE",
"496 698 LINE",
"496 665 LINE",
"141 665 LINE",
"141 371 LINE",
"482 371 LINE",
"482 338 LINE",
"141 338 LINE",
"141 33 LINE",
"496 33 LINE",
"496 0 LINE"
);
}
);
width = 566;
}
);
rightKerningGroup = E;
unicode = 0045;
},
{
glyphname = F;
layers = (
{
layerId = "ACBC60AB-B62C-4A0F-8440-773766AFCC64";
name = Light;
paths = (
{
closed = 1;
nodes = (
"104 0 LINE",
"104 698 LINE",
"488 698 LINE",
"488 665 LINE",
"141 665 LINE",
"141 371 LINE",
"470 371 LINE",
"470 338 LINE",
"141 338 LINE",
"141 0 LINE"
);
}
);
width = 541;
}
);
rightKerningGroup = F;
unicode = 0046;
},
{
glyphname = G;
layers = (
{
layerId = "ACBC60AB-B62C-4A0F-8440-773766AFCC64";
name = Light;
paths = (
{
closed = 1;
nodes = (
"560 111 LINE",
"557 111 LINE",
"524 35 OFFCURVE",
"453 -12 OFFCURVE",
"342 -12 CURVE SMOOTH",
"167 -12 OFFCURVE",
"67 109 OFFCURVE",
"67 349 CURVE SMOOTH",
"67 589 OFFCURVE",
"168 710 OFFCURVE",
"344 710 CURVE SMOOTH",
"457 710 OFFCURVE",
"539 653 OFFCURVE",
"578 565 CURVE",
"548 548 LINE",
"513 629 OFFCURVE",
"439 677 OFFCURVE",
"344 677 CURVE SMOOTH",
"197 677 OFFCURVE",
"107 574 OFFCURVE",
"107 379 CURVE SMOOTH",
"107 320 LINE SMOOTH",
"107 125 OFFCURVE",
"196 21 OFFCURVE",
"345 21 CURVE SMOOTH",
"402 21 OFFCURVE",
"456 36 OFFCURVE",
"495 68 CURVE SMOOTH",
"534 99 OFFCURVE",
"559 145 OFFCURVE",
"559 208 CURVE SMOOTH",
"559 305 LINE",
"388 305 LINE",
"388 338 LINE",
"595 338 LINE",
"595 0 LINE",
"560 0 LINE"
);
}
);
width = 673;
}
);
leftKerningGroup = C;
rightKerningGroup = G;
unicode = 0047;
},
{
glyphname = H;
layers = (
{
layerId = "ACBC60AB-B62C-4A0F-8440-773766AFCC64";
name = Light;
paths = (
{
closed = 1;
nodes = (
"554 338 LINE",
"141 338 LINE",
"141 0 LINE",
"104 0 LINE",
"104 698 LINE",
"141 698 LINE",
"141 371 LINE",
"554 371 LINE",
"554 698 LINE",
"591 698 LINE",
"591 0 LINE",
"554 0 LINE"
);
}
);
width = 695;
}
);
unicode = 0048;
},
{
glyphname = I;
lastChange = "2018-11-02 04:00:15 +0000";
layers = (
{
layerId = "ACBC60AB-B62C-4A0F-8440-773766AFCC64";
name = Light;
paths = (
{
closed = 1;
nodes = (
"104 698 LINE",
"141 698 LINE",
"141 0 LINE",
"104 0 LINE"
);
}
);
width = 245;
}
);
leftKerningGroup = I;
rightKerningGroup = I;
unicode = 0049;
},
{
glyphname = J;
lastChange = "2018-11-02 03:41:59 +0000";
layers = (
{
layerId = "ACBC60AB-B62C-4A0F-8440-773766AFCC64";
name = Light;
paths = (
{
closed = 1;
nodes = (
"341 186 LINE SMOOTH",
"341 79 OFFCURVE",
"293 21 OFFCURVE",
"200 21 CURVE SMOOTH",
"124 21 OFFCURVE",
"75 67 OFFCURVE",
"56 130 CURVE",
"23 121 LINE",
"32 82 OFFCURVE",
"54 49 OFFCURVE",
"85 25 CURVE SMOOTH",
"116 1 OFFCURVE",
"155 -12 OFFCURVE",
"199 -12 CURVE SMOOTH",
"310 -12 OFFCURVE",
"378 56 OFFCURVE",
"378 183 CURVE SMOOTH",
"378 698 LINE",
"341 698 LINE"
);
}
);
width = 475;
}
);
leftKerningGroup = J;
rightKerningGroup = J;
unicode = 004A;
},
{
glyphname = K;
layers = (
{
layerId = "ACBC60AB-B62C-4A0F-8440-773766AFCC64";
name = Light;
paths = (
{
closed = 1;
nodes = (
"268 377 LINE",
"141 238 LINE",
"141 0 LINE",
"104 0 LINE",
"104 698 LINE",
"141 698 LINE",
"141 284 LINE",
"143 284 LINE",
"266 421 LINE",
"514 698 LINE",
"560 698 LINE",
"293 402 LINE",
"566 0 LINE",
"522 0 LINE"
);
}
);
width = 587;
}
);
rightKerningGroup = K;
unicode = 004B;
},
{
glyphname = L;
layers = (
{
layerId = "ACBC60AB-B62C-4A0F-8440-773766AFCC64";
name = Light;
paths = (
{
closed = 1;
nodes = (
"104 0 LINE",
"104 698 LINE",
"141 698 LINE",
"141 33 LINE",
"460 33 LINE",
"460 0 LINE"
);
}
);
width = 481;
}
);
rightKerningGroup = L;
unicode = 004C;
},
{
glyphname = M;
layers = (
{
layerId = "ACBC60AB-B62C-4A0F-8440-773766AFCC64";
name = Light;
paths = (
{
closed = 1;
nodes = (
"660 653 LINE",
"656 653 LINE",
"400 220 LINE",
"144 652 LINE",
"140 652 LINE",
"140 0 LINE",
"104 0 LINE",
"104 698 LINE",
"156 698 LINE",
"399 288 LINE",
"403 288 LINE",
"645 698 LINE",
"696 698 LINE",
"696 0 LINE",
"660 0 LINE"
);
}
);
width = 800;
}
);
unicode = 004D;
},
{
glyphname = N;
layers = (
{
layerId = "ACBC60AB-B62C-4A0F-8440-773766AFCC64";
name = Light;
paths = (
{
closed = 1;
nodes = (
"143 650 LINE",
"140 650 LINE",
"140 0 LINE",
"104 0 LINE",
"104 698 LINE",
"153 698 LINE",
"553 48 LINE",
"556 48 LINE",
"556 698 LINE",
"592 698 LINE",
"592 0 LINE",
"542 0 LINE"
);
}
);
width = 696;
}
);
unicode = 004E;
},
{
glyphname = O;
layers = (
{
layerId = "ACBC60AB-B62C-4A0F-8440-773766AFCC64";
name = Light;
paths = (
{
closed = 1;
nodes = (
"168 -12 OFFCURVE",
"67 109 OFFCURVE",
"67 349 CURVE SMOOTH",
"67 589 OFFCURVE",
"168 710 OFFCURVE",
"343 710 CURVE SMOOTH",
"518 710 OFFCURVE",
"619 589 OFFCURVE",
"619 349 CURVE SMOOTH",
"619 109 OFFCURVE",
"518 -12 OFFCURVE",
"343 -12 CURVE SMOOTH"
);
},
{
closed = 1;
nodes = (
"488 21 OFFCURVE",
"579 124 OFFCURVE",
"579 319 CURVE SMOOTH",
"579 379 LINE SMOOTH",
"579 574 OFFCURVE",
"488 677 OFFCURVE",
"343 677 CURVE SMOOTH",
"198 677 OFFCURVE",
"107 574 OFFCURVE",
"107 379 CURVE SMOOTH",
"107 319 LINE SMOOTH",
"107 124 OFFCURVE",
"198 21 OFFCURVE",
"343 21 CURVE SMOOTH"
);
}
);
width = 686;
}
);
leftKerningGroup = C;
rightKerningGroup = O;
unicode = 004F;
},
{
glyphname = P;
layers = (
{
layerId = "ACBC60AB-B62C-4A0F-8440-773766AFCC64";
name = Light;
paths = (
{
closed = 1;
nodes = (
"104 0 LINE",
"104 698 LINE",
"375 698 LINE SMOOTH",
"492 698 OFFCURVE",
"554 624 OFFCURVE",
"554 507 CURVE SMOOTH",
"554 390 OFFCURVE",
"492 316 OFFCURVE",
"375 316 CURVE SMOOTH",
"141 316 LINE",
"141 0 LINE"
);
},
{
closed = 1;
nodes = (
"141 349 LINE",
"375 349 LINE SMOOTH",
"422 349 OFFCURVE",
"456 365 OFFCURVE",
"480 390 CURVE SMOOTH",
"503 414 OFFCURVE",
"514 449 OFFCURVE",
"514 485 CURVE SMOOTH",
"514 529 LINE SMOOTH",
"514 565 OFFCURVE",
"503 600 OFFCURVE",
"480 625 CURVE",
"456 649 OFFCURVE",
"422 665 OFFCURVE",
"375 665 CURVE SMOOTH",
"141 665 LINE"
);
}
);
width = 597;
}
);
rightKerningGroup = P;
unicode = 0050;
},
{
glyphname = Q;
layers = (
{
layerId = "ACBC60AB-B62C-4A0F-8440-773766AFCC64";
name = Light;
paths = (
{
closed = 1;
nodes = (
"468 -150 LINE",
"370 -150 LINE SMOOTH",
"342 -150 OFFCURVE",
"328 -136 OFFCURVE",
"328 -109 CURVE SMOOTH",
"328 -12 LINE",
"161 -5 OFFCURVE",
"67 116 OFFCURVE",
"67 349 CURVE SMOOTH",
"67 589 OFFCURVE",
"168 710 OFFCURVE",
"343 710 CURVE SMOOTH",
"518 710 OFFCURVE",
"619 589 OFFCURVE",
"619 349 CURVE SMOOTH",
"619 118 OFFCURVE",
"525 -2 OFFCURVE",
"364 -11 CURVE",
"364 -118 LINE",
"468 -118 LINE"
);
},
{
closed = 1;
nodes = (
"488 21 OFFCURVE",
"579 124 OFFCURVE",
"579 319 CURVE SMOOTH",
"579 379 LINE SMOOTH",
"579 574 OFFCURVE",
"488 677 OFFCURVE",
"343 677 CURVE SMOOTH",
"198 677 OFFCURVE",
"107 574 OFFCURVE",
"107 379 CURVE SMOOTH",
"107 319 LINE SMOOTH",
"107 124 OFFCURVE",
"198 21 OFFCURVE",
"343 21 CURVE SMOOTH"
);
}
);
width = 686;
}
);
leftKerningGroup = C;
rightKerningGroup = O;
unicode = 0051;
},
{
glyphname = R;
layers = (
{
layerId = "ACBC60AB-B62C-4A0F-8440-773766AFCC64";
name = Light;
paths = (
{
closed = 1;
nodes = (
"141 0 LINE",
"104 0 LINE",
"104 698 LINE",
"375 698 LINE SMOOTH",
"492 698 OFFCURVE",
"554 625 OFFCURVE",
"554 508 CURVE SMOOTH",
"554 395 OFFCURVE",
"497 324 OFFCURVE",
"386 319 CURVE",
"571 0 LINE",
"529 0 LINE",
"347 317 LINE",
"141 317 LINE"
);
},
{
closed = 1;
nodes = (
"375 349 LINE SMOOTH",
"422 349 OFFCURVE",
"456 365 OFFCURVE",
"480 390 CURVE SMOOTH",
"503 414 OFFCURVE",
"514 449 OFFCURVE",
"514 485 CURVE SMOOTH",
"514 529 LINE SMOOTH",
"514 565 OFFCURVE",
"503 600 OFFCURVE",
"480 625 CURVE",
"456 649 OFFCURVE",
"422 665 OFFCURVE",
"375 665 CURVE SMOOTH",
"141 665 LINE",
"141 349 LINE"
);
}
);
width = 632;
}
);
rightKerningGroup = R;
unicode = 0052;
},
{
glyphname = S;
layers = (
{
layerId = "ACBC60AB-B62C-4A0F-8440-773766AFCC64";
name = Light;
paths = (
{
closed = 1;
nodes = (
"164 -12 OFFCURVE",
"93 36 OFFCURVE",
"42 104 CURVE",
"70 126 LINE",
"119 62 OFFCURVE",
"179 21 OFFCURVE",
"280 21 CURVE SMOOTH",
"397 21 OFFCURVE",
"463 76 OFFCURVE",
"463 180 CURVE SMOOTH",
"463 232 OFFCURVE",
"446 267 OFFCURVE",
"418 291 CURVE SMOOTH",
"390 314 OFFCURVE",
"352 327 OFFCURVE",
"309 335 CURVE SMOOTH",
"242 348 LINE SMOOTH",
"174 361 OFFCURVE",
"128 385 OFFCURVE",
"100 417 CURVE SMOOTH",
"71 448 OFFCURVE",
"59 486 OFFCURVE",
"59 530 CURVE SMOOTH",
"59 590 OFFCURVE",
"81 636 OFFCURVE",
"119 666 CURVE SMOOTH",
"157 696 OFFCURVE",
"211 710 OFFCURVE",
"276 710 CURVE SMOOTH",
"380 710 OFFCURVE",
"447 671 OFFCURVE",
"488 610 CURVE",
"460 590 LINE",
"420 646 OFFCURVE",
"362 677 OFFCURVE",
"274 677 CURVE SMOOTH",
"162 677 OFFCURVE",
"96 630 OFFCURVE",
"96 531 CURVE SMOOTH",
"96 482 OFFCURVE",
"113 449 OFFCURVE",
"141 426 CURVE SMOOTH",
"168 403 OFFCURVE",
"206 390 OFFCURVE",
"250 382 CURVE SMOOTH",
"317 369 LINE SMOOTH",
"388 354 OFFCURVE",
"434 330 OFFCURVE",
"462 298 CURVE SMOOTH",
"490 266 OFFCURVE",
"500 227 OFFCURVE",
"500 183 CURVE SMOOTH",
"500 56 OFFCURVE",
"415 -12 OFFCURVE",
"279 -12 CURVE SMOOTH"
);
}
);
width = 555;
}
);
leftKerningGroup = S;
rightKerningGroup = S;
unicode = 0053;
},
{
glyphname = T;
layers = (
{
layerId = "ACBC60AB-B62C-4A0F-8440-773766AFCC64";
name = Light;
paths = (
{
closed = 1;
nodes = (
"300 665 LINE",
"300 0 LINE",
"263 0 LINE",
"263 665 LINE",
"18 665 LINE",
"18 698 LINE",
"545 698 LINE",
"545 665 LINE"
);
}
);
width = 563;
}
);
leftKerningGroup = T;
rightKerningGroup = T;
unicode = 0054;
},
{
glyphname = U;
layers = (
{
layerId = "ACBC60AB-B62C-4A0F-8440-773766AFCC64";
name = Light;
paths = (
{
closed = 1;
nodes = (
"134 698 LINE",
"134 268 LINE SMOOTH",
"134 180 OFFCURVE",
"145 118 OFFCURVE",
"176 78 CURVE SMOOTH",
"207 38 OFFCURVE",
"254 21 OFFCURVE",
"329 21 CURVE SMOOTH",
"402 21 OFFCURVE",
"451 38 OFFCURVE",
"482 78 CURVE SMOOTH",
"513 118 OFFCURVE",
"524 180 OFFCURVE",
"524 268 CURVE SMOOTH",
"524 698 LINE",
"561 698 LINE",
"561 274 LINE SMOOTH",
"561 171 OFFCURVE",
"546 100 OFFCURVE",
"510 54 CURVE SMOOTH",
"473 8 OFFCURVE",
"415 -12 OFFCURVE",
"328 -12 CURVE SMOOTH",
"241 -12 OFFCURVE",
"184 8 OFFCURVE",
"148 54 CURVE SMOOTH",
"112 100 OFFCURVE",
"97 171 OFFCURVE",
"97 274 CURVE SMOOTH",
"97 698 LINE"
);
}
);
width = 658;
}
);
leftKerningGroup = U;
rightKerningGroup = U;
unicode = 0055;
},
{
glyphname = V;
layers = (
{
layerId = "ACBC60AB-B62C-4A0F-8440-773766AFCC64";
name = Light;
paths = (
{
closed = 1;
nodes = (
"265 0 LINE",
"28 698 LINE",
"68 698 LINE",
"288 39 LINE",
"292 39 LINE",
"513 698 LINE",
"552 698 LINE",
"313 0 LINE"
);
}
);
width = 580;
}
);
leftKerningGroup = V;
rightKerningGroup = V;
unicode = 0056;
},
{
glyphname = W;
layers = (
{
layerId = "ACBC60AB-B62C-4A0F-8440-773766AFCC64";
name = Light;
paths = (
{
closed = 1;
nodes = (
"210 0 LINE",
"28 698 LINE",
"67 698 LINE",
"233 48 LINE",
"236 48 LINE",
"414 698 LINE",
"462 698 LINE",
"640 48 LINE",
"643 48 LINE",
"811 698 LINE",
"849 698 LINE",
"665 0 LINE",
"619 0 LINE",
"439 657 LINE",
"436 657 LINE",
"255 0 LINE"
);
}
);
width = 877;
}
);
leftKerningGroup = W;
rightKerningGroup = W;
unicode = 0057;
},
{
glyphname = X;
layers = (
{
layerId = "ACBC60AB-B62C-4A0F-8440-773766AFCC64";
name = Light;
paths = (
{
closed = 1;
nodes = (
"544 0 LINE",
"500 0 LINE",
"287 325 LINE",
"285 325 LINE",
"70 0 LINE",
"27 0 LINE",
"263 354 LINE",
"35 698 LINE",
"79 698 LINE",
"285 386 LINE",
"287 386 LINE",
"493 698 LINE",
"536 698 LINE",
"309 357 LINE"
);
}
);
width = 571;
}
);
leftKerningGroup = X;
rightKerningGroup = X;
unicode = 0058;
},
{
glyphname = Y;
layers = (
{
layerId = "ACBC60AB-B62C-4A0F-8440-773766AFCC64";
name = Light;
paths = (
{
closed = 1;
nodes = (
"260 0 LINE",
"260 290 LINE",
"19 698 LINE",
"61 698 LINE",
"277 330 LINE",
"280 330 LINE",
"497 698 LINE",
"538 698 LINE",
"297 290 LINE",
"297 0 LINE"
);
}
);
width = 557;
}
);
leftKerningGroup = Y;
rightKerningGroup = Y;
unicode = 0059;
},
{
glyphname = Z;
layers = (
{
layerId = "ACBC60AB-B62C-4A0F-8440-773766AFCC64";
name = Light;
paths = (
{
closed = 1;
nodes = (
"531 0 LINE",
"38 0 LINE",
"38 35 LINE",
"472 665 LINE",
"61 665 LINE",
"61 698 LINE",
"512 698 LINE",
"512 663 LINE",
"78 33 LINE",
"531 33 LINE"
);
}
);
width = 561;
}
);
leftKerningGroup = Z;
rightKerningGroup = Z;
unicode = 005A;
},
{
glyphname = zero;
layers = (
{
layerId = "ACBC60AB-B62C-4A0F-8440-773766AFCC64";
name = Light;
paths = (
{
closed = 1;
nodes = (
"149 -12 OFFCURVE",
"68 100 OFFCURVE",
"68 349 CURVE SMOOTH",
"68 598 OFFCURVE",
"149 710 OFFCURVE",
"300 710 CURVE SMOOTH",
"451 710 OFFCURVE",
"532 598 OFFCURVE",
"532 349 CURVE SMOOTH",
"532 100 OFFCURVE",
"451 -12 OFFCURVE",
"300 -12 CURVE SMOOTH"
);
},
{
closed = 1;
nodes = (
"428 21 OFFCURVE",
"492 122 OFFCURVE",
"492 311 CURVE SMOOTH",
"492 387 LINE SMOOTH",
"492 576 OFFCURVE",
"428 677 OFFCURVE",
"300 677 CURVE SMOOTH",
"172 677 OFFCURVE",
"108 576 OFFCURVE",
"108 387 CURVE SMOOTH",
"108 311 LINE SMOOTH",
"108 122 OFFCURVE",
"172 21 OFFCURVE",
"300 21 CURVE SMOOTH"
);
}
);
width = 600;
}
);
unicode = 0030;
},
{
glyphname = one;
lastChange = "2018-11-04 17:12:29 +0000";
layers = (
{
layerId = "ACBC60AB-B62C-4A0F-8440-773766AFCC64";
name = Light;
paths = (
{
closed = 1;
nodes = (
"100 613 LINE",
"100 575 LINE",
"250 662 LINE",
"250 0 LINE",
"287 0 LINE",
"287 698 LINE",
"247 698 LINE"
);
}
);
width = 450;
}
);
unicode = 0031;
},
{
glyphname = two;
layers = (
{
layerId = "ACBC60AB-B62C-4A0F-8440-773766AFCC64";
name = Light;
paths = (
{
closed = 1;
nodes = (
"524 0 LINE",
"84 0 LINE",
"84 37 LINE",
"343 294 LINE SMOOTH",
"411 361 OFFCURVE",
"452 428 OFFCURVE",
"452 500 CURVE SMOOTH",
"452 526 LINE SMOOTH",
"452 570 OFFCURVE",
"439 607 OFFCURVE",
"412 634 CURVE SMOOTH",
"385 661 OFFCURVE",
"345 677 OFFCURVE",
"293 677 CURVE SMOOTH",
"193 677 OFFCURVE",
"141 623 OFFCURVE",
"116 543 CURVE",
"83 553 LINE",
"95 597 OFFCURVE",
"118 637 OFFCURVE",
"153 665 CURVE SMOOTH",
"188 693 OFFCURVE",
"234 710 OFFCURVE",
"294 710 CURVE SMOOTH",
"422 710 OFFCURVE",
"491 635 OFFCURVE",
"491 514 CURVE SMOOTH",
"491 419 OFFCURVE",
"446 347 OFFCURVE",
"366 270 CURVE SMOOTH",
"125 33 LINE",
"524 33 LINE"
);
}
);
width = 600;
}
);
unicode = 0032;
},
{
glyphname = three;
layers = (
{
layerId = "ACBC60AB-B62C-4A0F-8440-773766AFCC64";
name = Light;
paths = (
{
closed = 1;
nodes = (
"275 382 LINE SMOOTH",
"324 382 OFFCURVE",
"366 397 OFFCURVE",
"395 422 CURVE SMOOTH",
"424 446 OFFCURVE",
"440 481 OFFCURVE",
"440 521 CURVE SMOOTH",
"440 541 LINE SMOOTH",
"440 625 OFFCURVE",
"377 677 OFFCURVE",
"285 677 CURVE SMOOTH",
"197 677 OFFCURVE",
"149 640 OFFCURVE",
"118 581 CURVE",
"90 598 LINE",
"119 661 OFFCURVE",
"182 710 OFFCURVE",
"285 710 CURVE SMOOTH",
"342 710 OFFCURVE",
"392 694 OFFCURVE",
"426 664 CURVE SMOOTH",
"460 634 OFFCURVE",
"479 589 OFFCURVE",
"479 536 CURVE SMOOTH",
"479 439 OFFCURVE",
"421 385 OFFCURVE",
"340 369 CURVE",
"340 365 LINE",
"431 353 OFFCURVE",
"494 292 OFFCURVE",
"494 188 CURVE SMOOTH",
"494 127 OFFCURVE",
"473 77 OFFCURVE",
"436 42 CURVE SMOOTH",
"399 7 OFFCURVE",
"344 -12 OFFCURVE",
"279 -12 CURVE SMOOTH",
"176 -12 OFFCURVE",
"110 27 OFFCURVE",
"63 98 CURVE",
"92 118 LINE",
"133 53 OFFCURVE",
"190 21 OFFCURVE",
"279 21 CURVE SMOOTH",
"386 21 OFFCURVE",
"454 82 OFFCURVE",
"454 175 CURVE SMOOTH",
"454 198 LINE SMOOTH",
"454 290 OFFCURVE",
"389 350 OFFCURVE",
"278 350 CURVE SMOOTH",
"186 350 LINE",
"186 382 LINE"
);
}
);
width = 600;
}
);
unicode = 0033;
},
{
glyphname = four;
layers = (
{
layerId = "ACBC60AB-B62C-4A0F-8440-773766AFCC64";
name = Light;
paths = (
{
closed = 1;
nodes = (
"403 0 LINE",
"403 155 LINE",
"45 155 LINE",
"45 188 LINE",
"389 698 LINE",
"437 698 LINE",
"437 186 LINE",
"551 186 LINE",
"551 155 LINE",
"437 155 LINE",
"437 0 LINE"
);
},
{
closed = 1;
nodes = (
"80 186 LINE",
"403 186 LINE",
"403 661 LINE",
"401 661 LINE"
);
}
);
width = 600;
}
);
unicode = 0034;
},
{
glyphname = five;
layers = (
{
layerId = "ACBC60AB-B62C-4A0F-8440-773766AFCC64";
name = Light;
paths = (
{
closed = 1;
nodes = (
"485 665 LINE",
"166 665 LINE",
"143 347 LINE",
"147 347 LINE",
"186 398 OFFCURVE",
"233 418 OFFCURVE",
"308 418 CURVE SMOOTH",
"435 418 OFFCURVE",
"511 340 OFFCURVE",
"511 207 CURVE SMOOTH",
"511 140 OFFCURVE",
"490 86 OFFCURVE",
"453 48 CURVE SMOOTH",
"416 10 OFFCURVE",
"362 -12 OFFCURVE",
"297 -12 CURVE SMOOTH",
"194 -12 OFFCURVE",
"127 27 OFFCURVE",
"82 98 CURVE",
"111 118 LINE",
"152 53 OFFCURVE",
"208 21 OFFCURVE",
"297 21 CURVE SMOOTH",
"409 21 OFFCURVE",
"472 90 OFFCURVE",
"472 193 CURVE SMOOTH",
"472 216 LINE SMOOTH",
"472 319 OFFCURVE",
"413 386 OFFCURVE",
"302 386 CURVE SMOOTH",
"222 386 OFFCURVE",
"182 363 OFFCURVE",
"145 318 CURVE",
"110 323 LINE",
"136 698 LINE",
"485 698 LINE"
);
}
);
width = 600;
}
);
unicode = 0035;
},
{
glyphname = six;
layers = (
{
layerId = "ACBC60AB-B62C-4A0F-8440-773766AFCC64";
name = Light;
paths = (
{
closed = 1;
nodes = (
"225 -12 OFFCURVE",
"171 14 OFFCURVE",
"135 58 CURVE SMOOTH",
"99 101 OFFCURVE",
"82 162 OFFCURVE",
"82 233 CURVE SMOOTH",
"82 344 OFFCURVE",
"113 438 OFFCURVE",
"162 515 CURVE SMOOTH",
"211 592 OFFCURVE",
"278 653 OFFCURVE",
"350 698 CURVE",
"400 698 LINE",
"320 646 OFFCURVE",
"258 593 OFFCURVE",
"213 531 CURVE SMOOTH",
"168 469 OFFCURVE",
"138 400 OFFCURVE",
"123 317 CURVE",
"126 316 LINE",
"161 384 OFFCURVE",
"222 421 OFFCURVE",
"306 421 CURVE SMOOTH",
"370 421 OFFCURVE",
"422 401 OFFCURVE",
"459 364 CURVE SMOOTH",
"495 327 OFFCURVE",
"516 273 OFFCURVE",
"516 208 CURVE SMOOTH",
"516 141 OFFCURVE",
"496 87 OFFCURVE",
"458 49 CURVE SMOOTH",
"420 11 OFFCURVE",
"365 -12 OFFCURVE",
"300 -12 CURVE SMOOTH"
);
},
{
closed = 1;
nodes = (
"355 21 OFFCURVE",
"399 38 OFFCURVE",
"430 69 CURVE SMOOTH",
"461 100 OFFCURVE",
"477 141 OFFCURVE",
"477 192 CURVE SMOOTH",
"477 218 LINE SMOOTH",
"477 267 OFFCURVE",
"461 311 OFFCURVE",
"430 341 CURVE SMOOTH",
"399 371 OFFCURVE",
"355 389 OFFCURVE",
"299 389 CURVE SMOOTH",
"243 389 OFFCURVE",
"199 371 OFFCURVE",
"168 341 CURVE SMOOTH",
"137 311 OFFCURVE",
"121 267 OFFCURVE",
"121 218 CURVE SMOOTH",
"121 194 LINE SMOOTH",
"121 143 OFFCURVE",
"138 101 OFFCURVE",
"169 70 CURVE SMOOTH",
"200 39 OFFCURVE",
"244 21 OFFCURVE",
"299 21 CURVE SMOOTH"
);
}
);
width = 600;
}
);
unicode = 0036;
},
{
glyphname = seven;
lastChange = "2018-11-02 04:46:26 +0000";
layers = (
{
layerId = "ACBC60AB-B62C-4A0F-8440-773766AFCC64";
name = Light;
paths = (
{
closed = 1;
nodes = (
"75 666 LINE",
"478 666 LINE",
"184 0 LINE",
"224 0 LINE",
"516 665 LINE",
"516 698 LINE",
"75 698 LINE"
);
}
);
width = 600;
}
);
unicode = 0037;
},
{
glyphname = eight;
layers = (
{
layerId = "ACBC60AB-B62C-4A0F-8440-773766AFCC64";
name = Light;
paths = (
{
closed = 1;
nodes = (
"228 -12 OFFCURVE",
"170 8 OFFCURVE",
"130 42 CURVE SMOOTH",
"90 76 OFFCURVE",
"69 125 OFFCURVE",
"69 182 CURVE SMOOTH",
"69 281 OFFCURVE",
"127 345 OFFCURVE",
"220 364 CURVE",
"220 369 LINE",
"140 388 OFFCURVE",
"92 447 OFFCURVE",
"92 535 CURVE SMOOTH",
"92 643 OFFCURVE",
"171 710 OFFCURVE",
"300 710 CURVE SMOOTH",
"429 710 OFFCURVE",
"508 643 OFFCURVE",
"508 535 CURVE SMOOTH",
"508 447 OFFCURVE",
"460 388 OFFCURVE",
"380 369 CURVE",
"380 364 LINE",
"473 345 OFFCURVE",
"531 281 OFFCURVE",
"531 182 CURVE SMOOTH",
"531 125 OFFCURVE",
"510 76 OFFCURVE",
"470 42 CURVE SMOOTH",
"430 8 OFFCURVE",
"372 -12 OFFCURVE",
"300 -12 CURVE SMOOTH"
);
},
{
closed = 1;
nodes = (
"419 21 OFFCURVE",
"492 81 OFFCURVE",
"492 173 CURVE SMOOTH",
"492 198 LINE SMOOTH",
"492 290 OFFCURVE",
"419 350 OFFCURVE",
"300 350 CURVE SMOOTH",
"181 350 OFFCURVE",
"108 290 OFFCURVE",
"108 198 CURVE SMOOTH",
"108 173 LINE SMOOTH",
"108 81 OFFCURVE",
"181 21 OFFCURVE",
"300 21 CURVE SMOOTH"
);
},
{
closed = 1;
nodes = (
"404 382 OFFCURVE",
"469 435 OFFCURVE",
"469 519 CURVE SMOOTH",
"469 541 LINE SMOOTH",
"469 625 OFFCURVE",
"404 677 OFFCURVE",
"300 677 CURVE SMOOTH",
"196 677 OFFCURVE",
"131 625 OFFCURVE",
"131 541 CURVE SMOOTH",
"131 519 LINE SMOOTH",
"131 435 OFFCURVE",
"196 382 OFFCURVE",
"300 382 CURVE SMOOTH"
);
}
);
width = 600;
}
);
unicode = 0038;
},
{
glyphname = nine;
layers = (
{
layerId = "ACBC60AB-B62C-4A0F-8440-773766AFCC64";
name = Light;
paths = (
{
closed = 1;
nodes = (
"520 354 OFFCURVE",
"489 260 OFFCURVE",
"441 183 CURVE SMOOTH",
"392 106 OFFCURVE",
"325 45 OFFCURVE",
"253 0 CURVE",
"203 0 LINE",
"282 52 OFFCURVE",
"344 106 OFFCURVE",
"389 168 CURVE SMOOTH",
"434 230 OFFCURVE",
"464 298 OFFCURVE",
"480 381 CURVE",
"476 382 LINE",
"441 314 OFFCURVE",
"381 277 OFFCURVE",
"297 277 CURVE SMOOTH",
"233 277 OFFCURVE",
"181 297 OFFCURVE",
"144 334 CURVE SMOOTH",
"107 371 OFFCURVE",
"86 423 OFFCURVE",
"86 490 CURVE SMOOTH",
"86 555 OFFCURVE",
"107 612 OFFCURVE",
"145 650 CURVE SMOOTH",
"183 688 OFFCURVE",
"235 710 OFFCURVE",
"302 710 CURVE SMOOTH",
"377 710 OFFCURVE",
"431 684 OFFCURVE",
"467 641 CURVE SMOOTH",
"503 597 OFFCURVE",
"520 536 OFFCURVE",
"520 465 CURVE SMOOTH"
);
},
{
closed = 1;
nodes = (
"359 309 OFFCURVE",
"405 328 OFFCURVE",
"435 358 CURVE SMOOTH",
"465 388 OFFCURVE",
"481 431 OFFCURVE",
"481 480 CURVE SMOOTH",
"481 504 LINE SMOOTH",
"481 555 OFFCURVE",
"464 597 OFFCURVE",
"433 628 CURVE SMOOTH",
"402 659 OFFCURVE",
"358 677 OFFCURVE",
"303 677 CURVE SMOOTH",
"247 677 OFFCURVE",
"203 660 OFFCURVE",
"172 629 CURVE SMOOTH",
"141 598 OFFCURVE",
"125 555 OFFCURVE",
"125 506 CURVE SMOOTH",
"125 480 LINE SMOOTH",
"125 431 OFFCURVE",
"141 388 OFFCURVE",
"172 358 CURVE SMOOTH",
"203 328 OFFCURVE",
"247 309 OFFCURVE",
"303 309 CURVE SMOOTH"
);
}
);
width = 600;
}
);
unicode = 0039;
},
{
glyphname = ampersand;
layers = (
{
layerId = "ACBC60AB-B62C-4A0F-8440-773766AFCC64";
name = Light;
paths = (
{
closed = 1;
nodes = (
"495 108 LINE",
"475 75 OFFCURVE",
"447 44 OFFCURVE",
"410 23 CURVE SMOOTH",
"373 2 OFFCURVE",
"328 -12 OFFCURVE",
"275 -12 CURVE SMOOTH",
"212 -12 OFFCURVE",
"161 7 OFFCURVE",
"126 39 CURVE SMOOTH",
"90 71 OFFCURVE",
"70 117 OFFCURVE",
"70 170 CURVE SMOOTH",
"70 225 OFFCURVE",
"89 264 OFFCURVE",
"119 296 CURVE SMOOTH",
"149 328 OFFCURVE",
"189 352 OFFCURVE",
"233 373 CURVE",
"173 437 OFFCURVE",
"139 486 OFFCURVE",
"139 551 CURVE SMOOTH",
"139 598 OFFCURVE",
"156 637 OFFCURVE",
"186 665 CURVE SMOOTH",
"216 693 OFFCURVE",
"259 710 OFFCURVE",
"311 710 CURVE SMOOTH",
"360 710 OFFCURVE",
"401 694 OFFCURVE",
"429 669 CURVE SMOOTH",
"457 644 OFFCURVE",
"473 608 OFFCURVE",
"473 568 CURVE SMOOTH",
"473 520 OFFCURVE",
"453 483 OFFCURVE",
"421 452 CURVE SMOOTH",
"388 420 OFFCURVE",
"341 394 OFFCURVE",
"285 367 CURVE",
"490 161 LINE",
"513 214 OFFCURVE",
"522 283 OFFCURVE",
"523 355 CURVE",
"638 355 LINE",
"638 323 LINE",
"553 323 LINE",
"549 252 OFFCURVE",
"537 192 OFFCURVE",
"513 137 CURVE",
"647 0 LINE",
"601 0 LINE"
);
},
{
closed = 1;
nodes = (
"267 680 OFFCURVE",
"234 666 OFFCURVE",
"211 645 CURVE SMOOTH",
"188 624 OFFCURVE",
"175 593 OFFCURVE",
"175 560 CURVE SMOOTH",
"175 544 LINE SMOOTH",
"175 491 OFFCURVE",
"215 443 OFFCURVE",
"264 388 CURVE",
"313 411 OFFCURVE",
"356 435 OFFCURVE",
"388 463 CURVE SMOOTH",
"419 491 OFFCURVE",
"437 521 OFFCURVE",
"437 557 CURVE SMOOTH",
"437 570 LINE SMOOTH",
"437 605 OFFCURVE",
"422 632 OFFCURVE",
"399 651 CURVE SMOOTH",
"376 670 OFFCURVE",
"343 680 OFFCURVE",
"310 680 CURVE SMOOTH"
);
},
{
closed = 1;
nodes = (
"108 161 LINE SMOOTH",
"108 118 OFFCURVE",
"126 83 OFFCURVE",
"156 59 CURVE SMOOTH",
"186 34 OFFCURVE",
"227 20 OFFCURVE",
"276 20 CURVE SMOOTH",
"369 20 OFFCURVE",
"434 60 OFFCURVE",
"474 129 CURVE",
"254 352 LINE",
"214 332 OFFCURVE",
"178 312 OFFCURVE",
"151 286 CURVE SMOOTH",
"124 260 OFFCURVE",
"108 225 OFFCURVE",
"108 180 CURVE SMOOTH"
);
}
);
width = 681;
}
);
leftKerningGroup = ampersand;
rightKerningGroup = ampersand;
unicode = 0026;
},
{
glyphname = at;
layers = (
{
layerId = "ACBC60AB-B62C-4A0F-8440-773766AFCC64";
name = Light;
paths = (
{
closed = 1;
nodes = (
"677 -121 LINE",
"442 -121 LINE SMOOTH",
"335 -121 OFFCURVE",
"243 -83 OFFCURVE",
"176 -11 CURVE SMOOTH",
"109 61 OFFCURVE",
"69 165 OFFCURVE",
"69 297 CURVE SMOOTH",
"69 424 OFFCURVE",
"108 527 OFFCURVE",
"176 599 CURVE SMOOTH",
"243 670 OFFCURVE",
"337 710 OFFCURVE",
"445 710 CURVE SMOOTH",
"544 710 OFFCURVE",
"636 678 OFFCURVE",
"704 614 CURVE SMOOTH",
"771 550 OFFCURVE",
"814 455 OFFCURVE",
"814 328 CURVE SMOOTH",
"814 256 OFFCURVE",
"803 192 OFFCURVE",
"779 145 CURVE SMOOTH",
"755 98 OFFCURVE",
"717 69 OFFCURVE",
"664 69 CURVE SMOOTH",
"609 69 OFFCURVE",
"576 102 OFFCURVE",
"569 150 CURVE",
"566 150 LINE",
"545 107 OFFCURVE",
"504 69 OFFCURVE",
"433 69 CURVE SMOOTH",
"328 69 OFFCURVE",
"260 142 OFFCURVE",
"260 287 CURVE SMOOTH",
"260 436 OFFCURVE",
"328 508 OFFCURVE",
"433 508 CURVE SMOOTH",
"504 508 OFFCURVE",
"544 472 OFFCURVE",
"563 433 CURVE",
"566 433 LINE",
"566 497 LINE",
"598 497 LINE",
"598 171 LINE SMOOTH",
"598 124 OFFCURVE",
"623 97 OFFCURVE",
"667 97 CURVE SMOOTH",
"739 97 OFFCURVE",
"782 174 OFFCURVE",
"782 306 CURVE SMOOTH",
"782 353 LINE SMOOTH",
"782 452 OFFCURVE",
"745 535 OFFCURVE",
"685 592 CURVE SMOOTH",
"625 649 OFFCURVE",
"541 682 OFFCURVE",
"445 682 CURVE SMOOTH",
"346 682 OFFCURVE",
"260 644 OFFCURVE",
"199 581 CURVE SMOOTH",
"138 517 OFFCURVE",
"101 428 OFFCURVE",
"101 325 CURVE SMOOTH",
"101 271 LINE SMOOTH",
"101 163 OFFCURVE",
"137 72 OFFCURVE",
"198 8 CURVE SMOOTH",
"258 -56 OFFCURVE",
"343 -93 OFFCURVE",
"442 -93 CURVE SMOOTH",
"677 -93 LINE"
);
},
{
closed = 1;
nodes = (
"472 98 OFFCURVE",
"505 110 OFFCURVE",
"529 131 CURVE SMOOTH",
"552 151 OFFCURVE",
"566 181 OFFCURVE",
"566 217 CURVE SMOOTH",
"566 360 LINE SMOOTH",
"566 396 OFFCURVE",
"552 425 OFFCURVE",
"529 446 CURVE SMOOTH",
"505 467 OFFCURVE",
"472 479 OFFCURVE",
"436 479 CURVE SMOOTH",
"344 479 OFFCURVE",
"297 415 OFFCURVE",
"297 311 CURVE SMOOTH",
"297 263 LINE SMOOTH",
"297 162 OFFCURVE",
"344 98 OFFCURVE",
"436 98 CURVE SMOOTH"
);
}
);
width = 883;
}
);
leftKerningGroup = at;
rightKerningGroup = at;
unicode = 0040;
},
{
glyphname = hyphen;
layers = (
{
layerId = "ACBC60AB-B62C-4A0F-8440-773766AFCC64";
name = Light;
paths = (
{
closed = 1;
nodes = (
"80 287 LINE",
"80 323 LINE",
"316 323 LINE",
"316 287 LINE"
);
}
);
width = 396;
}
);
leftKerningGroup = hyphen;
rightKerningGroup = hyphen;
unicode = 002D;
},
{
glyphname = uni00AD;
layers = (
{
layerId = "ACBC60AB-B62C-4A0F-8440-773766AFCC64";
name = Light;
paths = (
{
closed = 1;
nodes = (
"80 287 LINE",
"80 323 LINE",
"316 323 LINE",
"316 287 LINE"
);
}
);
width = 396;
}
);
leftKerningGroup = hyphen;
rightKerningGroup = hyphen;
unicode = 00AD;
},
{
glyphname = endash;
layers = (
{
layerId = "ACBC60AB-B62C-4A0F-8440-773766AFCC64";
name = Light;
paths = (
{
closed = 1;
nodes = (
"36 289 LINE",
"36 321 LINE",
"552 321 LINE",
"552 289 LINE"
);
}
);
width = 588;
}
);
leftKerningGroup = hyphen;
rightKerningGroup = hyphen;
unicode = 2013;
},
{
glyphname = emdash;
layers = (
{
layerId = "ACBC60AB-B62C-4A0F-8440-773766AFCC64";
name = Light;
paths = (
{
closed = 1;
nodes = (
"36 289 LINE",
"36 321 LINE",
"744 321 LINE",
"744 289 LINE"
);
}
);
width = 780;
}
);
leftKerningGroup = hyphen;
rightKerningGroup = hyphen;
unicode = 2014;
},
{
glyphname = underscore;
layers = (
{
layerId = "ACBC60AB-B62C-4A0F-8440-773766AFCC64";
name = Light;
paths = (
{
closed = 1;
nodes = (
"30 -147 LINE",
"30 -117 LINE",
"538 -117 LINE",
"538 -147 LINE"
);
}
);
width = 568;
}
);
leftKerningGroup = underscore;
rightKerningGroup = underscore;
unicode = 005F;
},
{
glyphname = period;
layers = (
{
layerId = "ACBC60AB-B62C-4A0F-8440-773766AFCC64";
name = Light;
paths = (
{
closed = 1;
nodes = (
"101 -7 OFFCURVE",
"89 6 OFFCURVE",
"89 26 CURVE SMOOTH",
"89 35 LINE SMOOTH",
"89 55 OFFCURVE",
"101 68 OFFCURVE",
"124 68 CURVE SMOOTH",
"147 68 OFFCURVE",
"159 55 OFFCURVE",
"159 35 CURVE SMOOTH",
"159 26 LINE SMOOTH",
"159 6 OFFCURVE",
"147 -7 OFFCURVE",
"124 -7 CURVE SMOOTH"
);
}
);
width = 248;
}
);
leftKerningGroup = period;
rightKerningGroup = period;
unicode = 002E;
},
{
glyphname = ellipsis;
layers = (
{
layerId = "ACBC60AB-B62C-4A0F-8440-773766AFCC64";
name = Light;
paths = (
{
closed = 1;
nodes = (
"101 -7 OFFCURVE",
"89 6 OFFCURVE",
"89 26 CURVE SMOOTH",
"89 35 LINE SMOOTH",
"89 55 OFFCURVE",
"101 68 OFFCURVE",
"124 68 CURVE SMOOTH",
"147 68 OFFCURVE",
"159 55 OFFCURVE",
"159 35 CURVE SMOOTH",
"159 26 LINE SMOOTH",
"159 6 OFFCURVE",
"147 -7 OFFCURVE",
"124 -7 CURVE SMOOTH"
);
},
{
closed = 1;
nodes = (
"349 -7 OFFCURVE",
"337 6 OFFCURVE",
"337 26 CURVE SMOOTH",
"337 35 LINE SMOOTH",
"337 55 OFFCURVE",
"349 68 OFFCURVE",
"372 68 CURVE SMOOTH",
"395 68 OFFCURVE",
"407 55 OFFCURVE",
"407 35 CURVE SMOOTH",
"407 26 LINE SMOOTH",
"407 6 OFFCURVE",
"395 -7 OFFCURVE",
"372 -7 CURVE SMOOTH"
);
},
{
closed = 1;
nodes = (
"597 -7 OFFCURVE",
"585 6 OFFCURVE",
"585 26 CURVE SMOOTH",
"585 35 LINE SMOOTH",
"585 55 OFFCURVE",
"597 68 OFFCURVE",
"620 68 CURVE SMOOTH",
"643 68 OFFCURVE",
"655 55 OFFCURVE",
"655 35 CURVE SMOOTH",
"655 26 LINE SMOOTH",
"655 6 OFFCURVE",
"643 -7 OFFCURVE",
"620 -7 CURVE SMOOTH"
);
}
);
width = 744;
}
);
leftKerningGroup = period;
rightKerningGroup = period;
unicode = 2026;
},
{
glyphname = colon;
layers = (
{
layerId = "ACBC60AB-B62C-4A0F-8440-773766AFCC64";
name = Light;
paths = (
{
closed = 1;
nodes = (
"111 -7 OFFCURVE",
"99 6 OFFCURVE",
"99 26 CURVE SMOOTH",
"99 35 LINE SMOOTH",
"99 55 OFFCURVE",
"111 68 OFFCURVE",
"134 68 CURVE SMOOTH",
"157 68 OFFCURVE",
"169 55 OFFCURVE",
"169 35 CURVE SMOOTH",
"169 26 LINE SMOOTH",
"169 6 OFFCURVE",
"157 -7 OFFCURVE",
"134 -7 CURVE SMOOTH"
);
},
{
closed = 1;
nodes = (
"111 425 OFFCURVE",
"99 438 OFFCURVE",
"99 458 CURVE SMOOTH",
"99 467 LINE SMOOTH",
"99 487 OFFCURVE",
"111 500 OFFCURVE",
"134 500 CURVE SMOOTH",
"157 500 OFFCURVE",
"169 487 OFFCURVE",
"169 467 CURVE SMOOTH",
"169 458 LINE SMOOTH",
"169 438 OFFCURVE",
"157 425 OFFCURVE",
"134 425 CURVE SMOOTH"
);
}
);
width = 268;
}
);
leftKerningGroup = colon;
unicode = 003A;
},
{
glyphname = comma;
layers = (
{
layerId = "ACBC60AB-B62C-4A0F-8440-773766AFCC64";
name = Light;
paths = (
{
closed = 1;
nodes = (
"148 68 OFFCURVE",
"159 54 OFFCURVE",
"159 34 CURVE SMOOTH",
"159 22 LINE SMOOTH",
"159 -34 OFFCURVE",
"125 -101 OFFCURVE",
"78 -144 CURVE",
"48 -144 LINE",
"96 -96 OFFCURVE",
"115 -45 OFFCURVE",
"122 -6 CURVE",
"97 -5 OFFCURVE",
"88 9 OFFCURVE",
"88 24 CURVE SMOOTH",
"88 34 LINE SMOOTH",
"88 54 OFFCURVE",
"99 68 OFFCURVE",
"124 68 CURVE SMOOTH"
);
}
);
width = 248;
}
);
leftKerningGroup = period;
rightKerningGroup = period;
unicode = 002C;
},
{
glyphname = semicolon;
layers = (
{
layerId = "ACBC60AB-B62C-4A0F-8440-773766AFCC64";
name = Light;
paths = (
{
closed = 1;
nodes = (
"158 68 OFFCURVE",
"169 54 OFFCURVE",
"169 34 CURVE SMOOTH",
"169 22 LINE SMOOTH",
"169 -34 OFFCURVE",
"135 -101 OFFCURVE",
"88 -144 CURVE",
"58 -144 LINE",
"106 -96 OFFCURVE",
"125 -45 OFFCURVE",
"132 -6 CURVE",
"107 -5 OFFCURVE",
"98 9 OFFCURVE",
"98 24 CURVE SMOOTH",
"98 34 LINE SMOOTH",
"98 54 OFFCURVE",
"109 68 OFFCURVE",
"134 68 CURVE SMOOTH"
);
},
{
closed = 1;
nodes = (
"111 425 OFFCURVE",
"99 438 OFFCURVE",
"99 458 CURVE SMOOTH",
"99 467 LINE SMOOTH",
"99 487 OFFCURVE",
"111 500 OFFCURVE",
"134 500 CURVE SMOOTH",
"157 500 OFFCURVE",
"169 487 OFFCURVE",
"169 467 CURVE SMOOTH",
"169 458 LINE SMOOTH",
"169 438 OFFCURVE",
"157 425 OFFCURVE",
"134 425 CURVE SMOOTH"
);
}
);
width = 268;
}
);
leftKerningGroup = colon;
unicode = 003B;
},
{
glyphname = quotesingle;
layers = (
{
layerId = "ACBC60AB-B62C-4A0F-8440-773766AFCC64";
name = Light;
paths = (
{
closed = 1;
nodes = (
"96 483 LINE",
"96 740 LINE",
"129 740 LINE",
"129 483 LINE"
);
}
);
width = 225;
}
);
leftKerningGroup = quotesingle;
rightKerningGroup = quotesingle;
unicode = 0027;
},
{
glyphname = quotedbl;
layers = (
{
layerId = "ACBC60AB-B62C-4A0F-8440-773766AFCC64";
name = Light;
paths = (
{
closed = 1;
nodes = (
"96 483 LINE",
"96 740 LINE",
"129 740 LINE",
"129 483 LINE"
);
},
{
closed = 1;
nodes = (
"254 483 LINE",
"254 740 LINE",
"287 740 LINE",
"287 483 LINE"
);
}
);
width = 384;
}
);
leftKerningGroup = quotesingle;
rightKerningGroup = quotesingle;
unicode = 0022;
},
{
glyphname = quoteleft;
layers = (
{
layerId = "ACBC60AB-B62C-4A0F-8440-773766AFCC64";
name = Light;
paths = (
{
closed = 1;
nodes = (
"95 528 OFFCURVE",
"85 542 OFFCURVE",
"85 562 CURVE SMOOTH",
"85 574 LINE SMOOTH",
"85 630 OFFCURVE",
"118 697 OFFCURVE",
"165 740 CURVE",
"195 740 LINE",
"147 692 OFFCURVE",
"128 642 OFFCURVE",
"121 602 CURVE",
"146 601 OFFCURVE",
"155 588 OFFCURVE",
"155 572 CURVE SMOOTH",
"155 562 LINE SMOOTH",
"155 542 OFFCURVE",
"144 528 OFFCURVE",
"119 528 CURVE SMOOTH"
);
}
);
width = 248;
}
);
leftKerningGroup = quoteleft;
rightKerningGroup = quoteleft;
unicode = 2018;
},
{
glyphname = quoteright;
layers = (
{
layerId = "ACBC60AB-B62C-4A0F-8440-773766AFCC64";
name = Light;
paths = (
{
closed = 1;
nodes = (
"153 750 OFFCURVE",
"163 736 OFFCURVE",
"163 716 CURVE SMOOTH",
"163 704 LINE SMOOTH",
"163 648 OFFCURVE",
"130 581 OFFCURVE",
"83 538 CURVE",
"53 538 LINE",
"101 586 OFFCURVE",
"120 636 OFFCURVE",
"127 676 CURVE",
"102 677 OFFCURVE",
"93 690 OFFCURVE",
"93 706 CURVE SMOOTH",
"93 716 LINE SMOOTH",
"93 736 OFFCURVE",
"104 750 OFFCURVE",
"129 750 CURVE SMOOTH"
);
}
);
width = 248;
}
);
leftKerningGroup = quoteright;
rightKerningGroup = quoteright;
unicode = 2019;
},
{
glyphname = quotedblleft;
layers = (
{
layerId = "ACBC60AB-B62C-4A0F-8440-773766AFCC64";
name = Light;
paths = (
{
closed = 1;
nodes = (
"95 528 OFFCURVE",
"85 542 OFFCURVE",
"85 562 CURVE SMOOTH",
"85 574 LINE SMOOTH",
"85 630 OFFCURVE",
"118 697 OFFCURVE",
"165 740 CURVE",
"195 740 LINE",
"147 692 OFFCURVE",
"128 642 OFFCURVE",
"121 602 CURVE",
"146 601 OFFCURVE",
"155 588 OFFCURVE",
"155 572 CURVE SMOOTH",
"155 562 LINE SMOOTH",
"155 542 OFFCURVE",
"144 528 OFFCURVE",
"119 528 CURVE SMOOTH"
);
},
{
closed = 1;
nodes = (
"264 528 OFFCURVE",
"254 542 OFFCURVE",
"254 562 CURVE SMOOTH",
"254 574 LINE SMOOTH",
"254 630 OFFCURVE",
"287 697 OFFCURVE",
"334 740 CURVE",
"364 740 LINE",
"316 692 OFFCURVE",
"297 642 OFFCURVE",
"290 602 CURVE",
"315 601 OFFCURVE",
"324 588 OFFCURVE",
"324 572 CURVE SMOOTH",
"324 562 LINE SMOOTH",
"324 542 OFFCURVE",
"313 528 OFFCURVE",
"288 528 CURVE SMOOTH"
);
}
);
width = 418;
}
);
leftKerningGroup = quoteleft;
rightKerningGroup = quoteleft;
unicode = 201C;
},
{
glyphname = quotedblright;
layers = (
{
layerId = "ACBC60AB-B62C-4A0F-8440-773766AFCC64";
name = Light;
paths = (
{
closed = 1;
nodes = (
"153 750 OFFCURVE",
"163 736 OFFCURVE",
"163 716 CURVE SMOOTH",
"163 704 LINE SMOOTH",
"163 648 OFFCURVE",
"130 581 OFFCURVE",
"83 538 CURVE",
"53 538 LINE",
"101 586 OFFCURVE",
"120 636 OFFCURVE",
"127 676 CURVE",
"102 677 OFFCURVE",
"93 690 OFFCURVE",
"93 706 CURVE SMOOTH",
"93 716 LINE SMOOTH",
"93 736 OFFCURVE",
"104 750 OFFCURVE",
"129 750 CURVE SMOOTH"
);
},
{
closed = 1;
nodes = (
"323 750 OFFCURVE",
"333 736 OFFCURVE",
"333 716 CURVE SMOOTH",
"333 704 LINE SMOOTH",
"333 648 OFFCURVE",
"300 581 OFFCURVE",
"253 538 CURVE",
"223 538 LINE",
"271 586 OFFCURVE",
"290 636 OFFCURVE",
"297 676 CURVE",
"272 677 OFFCURVE",
"263 690 OFFCURVE",
"263 706 CURVE SMOOTH",
"263 716 LINE SMOOTH",
"263 736 OFFCURVE",
"274 750 OFFCURVE",
"299 750 CURVE SMOOTH"
);
}
);
width = 418;
}
);
leftKerningGroup = quoteright;
rightKerningGroup = quoteright;
unicode = 201D;
},
{
glyphname = quotesinglbase;
layers = (
{
layerId = "ACBC60AB-B62C-4A0F-8440-773766AFCC64";
name = Light;
paths = (
{
closed = 1;
nodes = (
"148 82 OFFCURVE",
"159 68 OFFCURVE",
"159 48 CURVE SMOOTH",
"159 36 LINE SMOOTH",
"159 -20 OFFCURVE",
"125 -87 OFFCURVE",
"78 -130 CURVE",
"48 -130 LINE",
"96 -82 OFFCURVE",
"117 -31 OFFCURVE",
"122 8 CURVE",
"97 9 OFFCURVE",
"89 23 OFFCURVE",
"89 38 CURVE SMOOTH",
"89 48 LINE SMOOTH",
"89 68 OFFCURVE",
"99 82 OFFCURVE",
"124 82 CURVE SMOOTH"
);
}
);
width = 248;
}
);
leftKerningGroup = period;
rightKerningGroup = period;
unicode = 201A;
},
{
glyphname = quotedblbase;
layers = (
{
layerId = "ACBC60AB-B62C-4A0F-8440-773766AFCC64";
name = Light;
paths = (
{
closed = 1;
nodes = (
"148 82 OFFCURVE",
"159 68 OFFCURVE",
"159 48 CURVE SMOOTH",
"159 36 LINE SMOOTH",
"159 -20 OFFCURVE",
"125 -87 OFFCURVE",
"78 -130 CURVE",
"48 -130 LINE",
"96 -82 OFFCURVE",
"117 -31 OFFCURVE",
"122 8 CURVE",
"97 9 OFFCURVE",
"89 23 OFFCURVE",
"89 38 CURVE SMOOTH",
"89 48 LINE SMOOTH",
"89 68 OFFCURVE",
"99 82 OFFCURVE",
"124 82 CURVE SMOOTH"
);
},
{
closed = 1;
nodes = (
"317 82 OFFCURVE",
"328 68 OFFCURVE",
"328 48 CURVE SMOOTH",
"328 36 LINE SMOOTH",
"328 -20 OFFCURVE",
"294 -87 OFFCURVE",
"247 -130 CURVE",
"217 -130 LINE",
"265 -82 OFFCURVE",
"286 -31 OFFCURVE",
"291 8 CURVE",
"266 9 OFFCURVE",
"258 23 OFFCURVE",
"258 38 CURVE SMOOTH",
"258 48 LINE SMOOTH",
"258 68 OFFCURVE",
"268 82 OFFCURVE",
"293 82 CURVE SMOOTH"
);
}
);
width = 418;
}
);
leftKerningGroup = period;
rightKerningGroup = period;
unicode = 201E;
},
{
glyphname = guilsinglleft;
layers = (
{
layerId = "ACBC60AB-B62C-4A0F-8440-773766AFCC64";
name = Light;
paths = (
{
closed = 1;
nodes = (
"231 100 LINE",
"34 275 LINE",
"34 308 LINE",
"231 483 LINE",
"244 459 LINE",
"71 292 LINE",
"244 124 LINE"
);
}
);
width = 295;
}
);
leftKerningGroup = guilsinglleft;
rightKerningGroup = guilsinglleft;
unicode = 2039;
},
{
glyphname = guilsinglright;
layers = (
{
layerId = "ACBC60AB-B62C-4A0F-8440-773766AFCC64";
name = Light;
paths = (
{
closed = 1;
nodes = (
"51 124 LINE",
"224 292 LINE",
"51 459 LINE",
"64 483 LINE",
"261 308 LINE",
"261 275 LINE",
"64 100 LINE"
);
}
);
width = 295;
}
);
leftKerningGroup = guilsinglright;
rightKerningGroup = guilsinglright;
unicode = 203A;
},
{
glyphname = guillemotleft;
layers = (
{
layerId = "ACBC60AB-B62C-4A0F-8440-773766AFCC64";
name = Light;
paths = (
{
closed = 1;
nodes = (
"231 100 LINE",
"34 275 LINE",
"34 308 LINE",
"231 483 LINE",
"244 459 LINE",
"71 292 LINE",
"244 124 LINE"
);
},
{
closed = 1;
nodes = (
"417 100 LINE",
"220 275 LINE",
"220 308 LINE",
"417 483 LINE",
"430 459 LINE",
"257 292 LINE",
"430 124 LINE"
);
}
);
width = 482;
}
);
leftKerningGroup = guilsinglleft;
rightKerningGroup = guilsinglleft;
unicode = 00AB;
},
{
glyphname = guillemotright;
layers = (
{
layerId = "ACBC60AB-B62C-4A0F-8440-773766AFCC64";
name = Light;
paths = (
{
closed = 1;
nodes = (
"51 124 LINE",
"224 292 LINE",
"51 459 LINE",
"64 483 LINE",
"261 308 LINE",
"261 275 LINE",
"64 100 LINE"
);
},
{
closed = 1;
nodes = (
"237 124 LINE",
"410 292 LINE",
"237 459 LINE",
"250 483 LINE",
"447 308 LINE",
"447 275 LINE",
"250 100 LINE"
);
}
);
width = 482;
}
);
leftKerningGroup = guilsinglright;
rightKerningGroup = guilsinglright;
unicode = 00BB;
},
{
glyphname = exclamdown;
layers = (
{
layerId = "ACBC60AB-B62C-4A0F-8440-773766AFCC64";
name = Light;
paths = (
{
closed = 1;
nodes = (
"139 330 LINE",
"148 74 LINE",
"148 -190 LINE",
"111 -190 LINE",
"111 74 LINE",
"120 330 LINE"
);
},
{
closed = 1;
nodes = (
"153 515 OFFCURVE",
"165 504 OFFCURVE",
"165 482 CURVE SMOOTH",
"165 473 LINE SMOOTH",
"165 451 OFFCURVE",
"153 440 OFFCURVE",
"130 440 CURVE SMOOTH",
"107 440 OFFCURVE",
"95 451 OFFCURVE",
"95 473 CURVE SMOOTH",
"95 482 LINE SMOOTH",
"95 504 OFFCURVE",
"107 515 OFFCURVE",
"130 515 CURVE SMOOTH"
);
}
);
width = 260;
}
);
rightKerningGroup = exclamdown;
unicode = 00A1;
},
{
glyphname = exclam;
layers = (
{
layerId = "ACBC60AB-B62C-4A0F-8440-773766AFCC64";
name = Light;
paths = (
{
closed = 1;
nodes = (
"120 178 LINE",
"111 434 LINE",
"111 698 LINE",
"149 698 LINE",
"149 434 LINE",
"139 178 LINE"
);
},
{
closed = 1;
nodes = (
"107 -7 OFFCURVE",
"95 6 OFFCURVE",
"95 26 CURVE SMOOTH",
"95 35 LINE SMOOTH",
"95 57 OFFCURVE",
"107 68 OFFCURVE",
"130 68 CURVE SMOOTH",
"153 68 OFFCURVE",
"165 57 OFFCURVE",
"165 35 CURVE SMOOTH",
"165 26 LINE SMOOTH",
"165 6 OFFCURVE",
"153 -7 OFFCURVE",
"130 -7 CURVE SMOOTH"
);
}
);
width = 260;
}
);
leftKerningGroup = exclam;
unicode = 0021;
},
{
glyphname = questiondown;
layers = (
{
layerId = "ACBC60AB-B62C-4A0F-8440-773766AFCC64";
name = Light;
paths = (
{
closed = 1;
nodes = (
"108 -202 OFFCURVE",
"36 -130 OFFCURVE",
"36 -21 CURVE SMOOTH",
"36 99 OFFCURVE",
"113 168 OFFCURVE",
"233 181 CURVE",
"233 324 LINE",
"269 324 LINE",
"269 154 LINE",
"145 151 OFFCURVE",
"74 88 OFFCURVE",
"74 -7 CURVE SMOOTH",
"74 -30 LINE SMOOTH",
"74 -114 OFFCURVE",
"130 -170 OFFCURVE",
"226 -170 CURVE SMOOTH",
"321 -170 OFFCURVE",
"373 -121 OFFCURVE",
"396 -38 CURVE",
"428 -48 LINE",
"401 -141 OFFCURVE",
"338 -202 OFFCURVE",
"225 -202 CURVE SMOOTH"
);
},
{
closed = 1;
nodes = (
"228 440 OFFCURVE",
"216 451 OFFCURVE",
"216 473 CURVE SMOOTH",
"216 482 LINE SMOOTH",
"216 502 OFFCURVE",
"228 515 OFFCURVE",
"251 515 CURVE SMOOTH",
"274 515 OFFCURVE",
"286 502 OFFCURVE",
"286 482 CURVE SMOOTH",
"286 473 LINE SMOOTH",
"286 451 OFFCURVE",
"274 440 OFFCURVE",
"251 440 CURVE SMOOTH"
);
}
);
width = 462;
}
);
leftKerningGroup = questiondown;
rightKerningGroup = questiondown;
unicode = 00BF;
},
{
glyphname = question;
layers = (
{
layerId = "ACBC60AB-B62C-4A0F-8440-773766AFCC64";
name = Light;
paths = (
{
closed = 1;
nodes = (
"194 184 LINE",
"194 354 LINE",
"318 357 OFFCURVE",
"389 420 OFFCURVE",
"389 515 CURVE SMOOTH",
"389 538 LINE SMOOTH",
"389 622 OFFCURVE",
"333 678 OFFCURVE",
"237 678 CURVE SMOOTH",
"142 678 OFFCURVE",
"90 629 OFFCURVE",
"67 546 CURVE",
"35 556 LINE",
"62 649 OFFCURVE",
"125 710 OFFCURVE",
"238 710 CURVE SMOOTH",
"355 710 OFFCURVE",
"427 638 OFFCURVE",
"427 529 CURVE SMOOTH",
"427 409 OFFCURVE",
"350 340 OFFCURVE",
"230 327 CURVE",
"230 184 LINE"
);
},
{
closed = 1;
nodes = (
"189 -7 OFFCURVE",
"177 6 OFFCURVE",
"177 26 CURVE SMOOTH",
"177 35 LINE SMOOTH",
"177 57 OFFCURVE",
"189 68 OFFCURVE",
"212 68 CURVE SMOOTH",
"235 68 OFFCURVE",
"247 57 OFFCURVE",
"247 35 CURVE SMOOTH",
"247 26 LINE SMOOTH",
"247 6 OFFCURVE",
"235 -7 OFFCURVE",
"212 -7 CURVE SMOOTH"
);
}
);
width = 462;
}
);
leftKerningGroup = question;
rightKerningGroup = question;
unicode = 003F;
},
{
glyphname = parenleft;
layers = (
{
layerId = "ACBC60AB-B62C-4A0F-8440-773766AFCC64";
name = Light;
paths = (
{
closed = 1;
nodes = (
"100 412 OFFCURVE",
"123 503 OFFCURVE",
"157 580 CURVE SMOOTH",
"191 656 OFFCURVE",
"236 717 OFFCURVE",
"283 760 CURVE",
"320 760 LINE",
"269 715 OFFCURVE",
"224 653 OFFCURVE",
"190 579 CURVE SMOOTH",
"156 505 OFFCURVE",
"134 421 OFFCURVE",
"134 334 CURVE SMOOTH",
"134 288 LINE SMOOTH",
"134 201 OFFCURVE",
"156 116 OFFCURVE",
"190 43 CURVE SMOOTH",
"224 -30 OFFCURVE",
"269 -94 OFFCURVE",
"320 -138 CURVE",
"283 -138 LINE",
"236 -95 OFFCURVE",
"191 -34 OFFCURVE",
"157 43 CURVE SMOOTH",
"123 119 OFFCURVE",
"100 210 OFFCURVE",
"100 311 CURVE SMOOTH"
);
}
);
width = 333;
}
);
rightKerningGroup = parenleft;
unicode = 0028;
},
{
glyphname = parenright;
layers = (
{
layerId = "ACBC60AB-B62C-4A0F-8440-773766AFCC64";
name = Light;
paths = (
{
closed = 1;
nodes = (
"233 210 OFFCURVE",
"211 119 OFFCURVE",
"177 43 CURVE SMOOTH",
"143 -34 OFFCURVE",
"97 -95 OFFCURVE",
"50 -138 CURVE",
"13 -138 LINE",
"62 -94 OFFCURVE",
"110 -30 OFFCURVE",
"144 43 CURVE SMOOTH",
"178 116 OFFCURVE",
"199 201 OFFCURVE",
"199 288 CURVE SMOOTH",
"199 334 LINE SMOOTH",
"199 421 OFFCURVE",
"178 505 OFFCURVE",
"144 579 CURVE SMOOTH",
"110 653 OFFCURVE",
"64 715 OFFCURVE",
"13 760 CURVE",
"50 760 LINE",
"97 717 OFFCURVE",
"143 656 OFFCURVE",
"177 580 CURVE SMOOTH",
"211 503 OFFCURVE",
"233 412 OFFCURVE",
"233 311 CURVE SMOOTH"
);
}
);
width = 333;
}
);
leftKerningGroup = parenright;
unicode = 0029;
},
{
glyphname = bracketleft;
layers = (
{
layerId = "ACBC60AB-B62C-4A0F-8440-773766AFCC64";
name = Light;
paths = (
{
closed = 1;
nodes = (
"104 -138 LINE",
"104 760 LINE",
"238 760 LINE",
"238 731 LINE",
"136 731 LINE",
"136 -109 LINE",
"238 -109 LINE",
"238 -138 LINE"
);
}
);
width = 305;
}
);
rightKerningGroup = bracketleft;
unicode = 005B;
},
{
glyphname = bracketright;
layers = (
{
layerId = "ACBC60AB-B62C-4A0F-8440-773766AFCC64";
name = Light;
paths = (
{
closed = 1;
nodes = (
"201 760 LINE",
"201 -138 LINE",
"67 -138 LINE",
"67 -109 LINE",
"169 -109 LINE",
"169 731 LINE",
"67 731 LINE",
"67 760 LINE"
);
}
);
width = 305;
}
);
leftKerningGroup = bracketright;
unicode = 005D;
},
{
glyphname = braceleft;
layers = (
{
layerId = "ACBC60AB-B62C-4A0F-8440-773766AFCC64";
name = Light;
paths = (
{
closed = 1;
nodes = (
"159 -138 LINE SMOOTH",
"134 -138 OFFCURVE",
"121 -125 OFFCURVE",
"121 -99 CURVE SMOOTH",
"121 197 LINE SMOOTH",
"121 257 OFFCURVE",
"84 283 OFFCURVE",
"24 283 CURVE",
"24 339 LINE",
"84 339 OFFCURVE",
"121 365 OFFCURVE",
"121 425 CURVE SMOOTH",
"121 721 LINE SMOOTH",
"121 747 OFFCURVE",
"134 760 OFFCURVE",
"159 760 CURVE SMOOTH",
"256 760 LINE",
"256 731 LINE",
"153 731 LINE",
"153 427 LINE SMOOTH",
"153 364 OFFCURVE",
"115 322 OFFCURVE",
"55 319 CURVE",
"55 303 LINE",
"115 300 OFFCURVE",
"153 258 OFFCURVE",
"153 195 CURVE SMOOTH",
"153 -109 LINE",
"256 -109 LINE",
"256 -138 LINE"
);
}
);
width = 322;
}
);
rightKerningGroup = bracketleft;
unicode = 007B;
},
{
glyphname = braceright;
layers = (
{
layerId = "ACBC60AB-B62C-4A0F-8440-773766AFCC64";
name = Light;
paths = (
{
closed = 1;
nodes = (
"163 760 LINE SMOOTH",
"188 760 OFFCURVE",
"201 747 OFFCURVE",
"201 721 CURVE SMOOTH",
"201 425 LINE SMOOTH",
"201 365 OFFCURVE",
"238 339 OFFCURVE",
"298 339 CURVE",
"298 283 LINE",
"238 283 OFFCURVE",
"201 257 OFFCURVE",
"201 197 CURVE SMOOTH",
"201 -99 LINE SMOOTH",
"201 -125 OFFCURVE",
"188 -138 OFFCURVE",
"163 -138 CURVE SMOOTH",
"66 -138 LINE",
"66 -109 LINE",
"169 -109 LINE",
"169 195 LINE SMOOTH",
"169 258 OFFCURVE",
"207 300 OFFCURVE",
"267 303 CURVE",
"267 319 LINE",
"207 322 OFFCURVE",
"169 364 OFFCURVE",
"169 427 CURVE SMOOTH",
"169 731 LINE",
"66 731 LINE",
"66 760 LINE"
);
}
);
width = 322;
}
);
leftKerningGroup = bracketright;
unicode = 007D;
},
{
glyphname = slash;
layers = (
{
layerId = "ACBC60AB-B62C-4A0F-8440-773766AFCC64";
name = Light;
paths = (
{
closed = 1;
nodes = (
"12 -151 LINE",
"256 740 LINE",
"288 740 LINE",
"44 -151 LINE"
);
}
);
width = 330;
}
);
leftKerningGroup = slash;
rightKerningGroup = slash;
unicode = 002F;
},
{
glyphname = backslash;
layers = (
{
layerId = "ACBC60AB-B62C-4A0F-8440-773766AFCC64";
name = Light;
paths = (
{
closed = 1;
nodes = (
"280 -151 LINE",
"40 740 LINE",
"72 740 LINE",
"312 -151 LINE"
);
}
);
width = 330;
}
);
unicode = 005C;
},
{
glyphname = fraction;
layers = (
{
layerId = "ACBC60AB-B62C-4A0F-8440-773766AFCC64";
name = Light;
paths = (
{
closed = 1;
nodes = (
"-170 0 LINE",
"286 698 LINE",
"319 698 LINE",
"-138 0 LINE"
);
}
);
width = 147;
}
);
unicode = 2044;
},
{
glyphname = percent;
layers = (
{
layerId = "ACBC60AB-B62C-4A0F-8440-773766AFCC64";
name = Light;
paths = (
{
closed = 1;
nodes = (
"186 0 LINE",
"670 698 LINE",
"706 698 LINE",
"222 0 LINE"
);
},
{
closed = 1;
nodes = (
"177 323 OFFCURVE",
"141 338 OFFCURVE",
"115 370 CURVE SMOOTH",
"89 401 OFFCURVE",
"73 449 OFFCURVE",
"73 517 CURVE SMOOTH",
"73 584 OFFCURVE",
"89 632 OFFCURVE",
"115 664 CURVE SMOOTH",
"141 695 OFFCURVE",
"177 710 OFFCURVE",
"218 710 CURVE SMOOTH",
"259 710 OFFCURVE",
"296 695 OFFCURVE",
"322 664 CURVE SMOOTH",
"348 632 OFFCURVE",
"363 584 OFFCURVE",
"363 517 CURVE SMOOTH",
"363 449 OFFCURVE",
"348 401 OFFCURVE",
"322 370 CURVE SMOOTH",
"296 338 OFFCURVE",
"259 323 OFFCURVE",
"218 323 CURVE SMOOTH"
);
},
{
closed = 1;
nodes = (
"249 348 OFFCURVE",
"277 359 OFFCURVE",
"297 383 CURVE SMOOTH",
"317 407 OFFCURVE",
"330 445 OFFCURVE",
"330 497 CURVE SMOOTH",
"330 536 LINE SMOOTH",
"330 588 OFFCURVE",
"317 626 OFFCURVE",
"297 650 CURVE SMOOTH",
"277 674 OFFCURVE",
"249 685 OFFCURVE",
"218 685 CURVE SMOOTH",
"187 685 OFFCURVE",
"159 674 OFFCURVE",
"139 650 CURVE SMOOTH",
"119 626 OFFCURVE",
"106 588 OFFCURVE",
"106 536 CURVE SMOOTH",
"106 497 LINE SMOOTH",
"106 445 OFFCURVE",
"119 407 OFFCURVE",
"139 383 CURVE SMOOTH",
"159 359 OFFCURVE",
"187 348 OFFCURVE",
"218 348 CURVE SMOOTH"
);
},
{
closed = 1;
nodes = (
"633 -12 OFFCURVE",
"597 3 OFFCURVE",
"571 35 CURVE SMOOTH",
"545 66 OFFCURVE",
"529 114 OFFCURVE",
"529 182 CURVE SMOOTH",
"529 249 OFFCURVE",
"545 297 OFFCURVE",
"571 329 CURVE SMOOTH",
"597 360 OFFCURVE",
"633 375 OFFCURVE",
"674 375 CURVE SMOOTH",
"715 375 OFFCURVE",
"752 360 OFFCURVE",
"778 329 CURVE SMOOTH",
"804 297 OFFCURVE",
"819 249 OFFCURVE",
"819 182 CURVE SMOOTH",
"819 114 OFFCURVE",
"804 66 OFFCURVE",
"778 35 CURVE SMOOTH",
"752 3 OFFCURVE",
"715 -12 OFFCURVE",
"674 -12 CURVE SMOOTH"
);
},
{
closed = 1;
nodes = (
"705 13 OFFCURVE",
"733 24 OFFCURVE",
"753 48 CURVE SMOOTH",
"773 72 OFFCURVE",
"786 110 OFFCURVE",
"786 162 CURVE SMOOTH",
"786 201 LINE SMOOTH",
"786 253 OFFCURVE",
"773 291 OFFCURVE",
"753 315 CURVE SMOOTH",
"733 339 OFFCURVE",
"705 350 OFFCURVE",
"674 350 CURVE SMOOTH",
"643 350 OFFCURVE",
"615 339 OFFCURVE",
"595 315 CURVE SMOOTH",
"575 291 OFFCURVE",
"562 253 OFFCURVE",
"562 201 CURVE SMOOTH",
"562 162 LINE SMOOTH",
"562 110 OFFCURVE",
"575 72 OFFCURVE",
"595 48 CURVE SMOOTH",
"615 24 OFFCURVE",
"643 13 OFFCURVE",
"674 13 CURVE SMOOTH"
);
}
);
width = 892;
}
);
rightKerningGroup = percent;
unicode = 0025;
},
{
glyphname = perthousand;
layers = (
{
layerId = "ACBC60AB-B62C-4A0F-8440-773766AFCC64";
name = Light;
paths = (
{
closed = 1;
nodes = (
"186 0 LINE",
"670 698 LINE",
"706 698 LINE",
"222 0 LINE"
);
},
{
closed = 1;
nodes = (
"177 323 OFFCURVE",
"141 338 OFFCURVE",
"115 370 CURVE SMOOTH",
"89 401 OFFCURVE",
"73 449 OFFCURVE",
"73 517 CURVE SMOOTH",
"73 584 OFFCURVE",
"89 632 OFFCURVE",
"115 664 CURVE SMOOTH",
"141 695 OFFCURVE",
"177 710 OFFCURVE",
"218 710 CURVE SMOOTH",
"259 710 OFFCURVE",
"296 695 OFFCURVE",
"322 664 CURVE SMOOTH",
"348 632 OFFCURVE",
"363 584 OFFCURVE",
"363 517 CURVE SMOOTH",
"363 449 OFFCURVE",
"348 401 OFFCURVE",
"322 370 CURVE SMOOTH",
"296 338 OFFCURVE",
"259 323 OFFCURVE",
"218 323 CURVE SMOOTH"
);
},
{
closed = 1;
nodes = (
"249 348 OFFCURVE",
"277 359 OFFCURVE",
"297 383 CURVE SMOOTH",
"317 407 OFFCURVE",
"330 445 OFFCURVE",
"330 497 CURVE SMOOTH",
"330 536 LINE SMOOTH",
"330 588 OFFCURVE",
"317 626 OFFCURVE",
"297 650 CURVE SMOOTH",
"277 674 OFFCURVE",
"249 685 OFFCURVE",
"218 685 CURVE SMOOTH",
"187 685 OFFCURVE",
"159 674 OFFCURVE",
"139 650 CURVE SMOOTH",
"119 626 OFFCURVE",
"106 588 OFFCURVE",
"106 536 CURVE SMOOTH",
"106 497 LINE SMOOTH",
"106 445 OFFCURVE",
"119 407 OFFCURVE",
"139 383 CURVE SMOOTH",
"159 359 OFFCURVE",
"187 348 OFFCURVE",
"218 348 CURVE SMOOTH"
);
},
{
closed = 1;
nodes = (
"633 -12 OFFCURVE",
"597 3 OFFCURVE",
"571 35 CURVE SMOOTH",
"545 66 OFFCURVE",
"529 114 OFFCURVE",
"529 182 CURVE SMOOTH",
"529 249 OFFCURVE",
"545 297 OFFCURVE",
"571 329 CURVE SMOOTH",
"597 360 OFFCURVE",
"633 375 OFFCURVE",
"674 375 CURVE SMOOTH",
"715 375 OFFCURVE",
"752 360 OFFCURVE",
"778 329 CURVE SMOOTH",
"804 297 OFFCURVE",
"819 249 OFFCURVE",
"819 182 CURVE SMOOTH",
"819 114 OFFCURVE",
"804 66 OFFCURVE",
"778 35 CURVE SMOOTH",
"752 3 OFFCURVE",
"715 -12 OFFCURVE",
"674 -12 CURVE SMOOTH"
);
},
{
closed = 1;
nodes = (
"705 13 OFFCURVE",
"733 24 OFFCURVE",
"753 48 CURVE SMOOTH",
"773 72 OFFCURVE",
"786 110 OFFCURVE",
"786 162 CURVE SMOOTH",
"786 201 LINE SMOOTH",
"786 253 OFFCURVE",
"773 291 OFFCURVE",
"753 315 CURVE SMOOTH",
"733 339 OFFCURVE",
"705 350 OFFCURVE",
"674 350 CURVE SMOOTH",
"643 350 OFFCURVE",
"615 339 OFFCURVE",
"595 315 CURVE SMOOTH",
"575 291 OFFCURVE",
"562 253 OFFCURVE",
"562 201 CURVE SMOOTH",
"562 162 LINE SMOOTH",
"562 110 OFFCURVE",
"575 72 OFFCURVE",
"595 48 CURVE SMOOTH",
"615 24 OFFCURVE",
"643 13 OFFCURVE",
"674 13 CURVE SMOOTH"
);
},
{
closed = 1;
nodes = (
"994 -12 OFFCURVE",
"958 3 OFFCURVE",
"932 35 CURVE SMOOTH",
"906 66 OFFCURVE",
"890 114 OFFCURVE",
"890 182 CURVE SMOOTH",
"890 249 OFFCURVE",
"906 297 OFFCURVE",
"932 329 CURVE SMOOTH",
"958 360 OFFCURVE",
"994 375 OFFCURVE",
"1035 375 CURVE SMOOTH",
"1076 375 OFFCURVE",
"1113 360 OFFCURVE",
"1139 329 CURVE SMOOTH",
"1165 297 OFFCURVE",
"1180 249 OFFCURVE",
"1180 182 CURVE SMOOTH",
"1180 114 OFFCURVE",
"1165 66 OFFCURVE",
"1139 35 CURVE SMOOTH",
"1113 3 OFFCURVE",
"1076 -12 OFFCURVE",
"1035 -12 CURVE SMOOTH"
);
},
{
closed = 1;
nodes = (
"1066 13 OFFCURVE",
"1094 24 OFFCURVE",
"1114 48 CURVE SMOOTH",
"1134 72 OFFCURVE",
"1147 110 OFFCURVE",
"1147 162 CURVE SMOOTH",
"1147 201 LINE SMOOTH",
"1147 253 OFFCURVE",
"1134 291 OFFCURVE",
"1114 315 CURVE SMOOTH",
"1094 339 OFFCURVE",
"1066 350 OFFCURVE",
"1035 350 CURVE SMOOTH",
"1004 350 OFFCURVE",
"976 339 OFFCURVE",
"956 315 CURVE SMOOTH",
"936 291 OFFCURVE",
"923 253 OFFCURVE",
"923 201 CURVE SMOOTH",
"923 162 LINE SMOOTH",
"923 110 OFFCURVE",
"936 72 OFFCURVE",
"956 48 CURVE SMOOTH",
"976 24 OFFCURVE",
"1004 13 OFFCURVE",
"1035 13 CURVE SMOOTH"
);
}
);
width = 1253;
}
);
rightKerningGroup = perthousand;
unicode = 2030;
},
{
glyphname = bar;
layers = (
{
layerId = "ACBC60AB-B62C-4A0F-8440-773766AFCC64";
name = Light;
paths = (
{
closed = 1;
nodes = (
"112 -138 LINE",
"112 760 LINE",
"143 760 LINE",
"143 -138 LINE"
);
}
);
width = 255;
}
);
unicode = 007C;
},
{
glyphname = brokenbar;
layers = (
{
layerId = "ACBC60AB-B62C-4A0F-8440-773766AFCC64";
name = Light;
paths = (
{
closed = 1;
nodes = (
"112 402 LINE",
"112 760 LINE",
"143 760 LINE",
"143 402 LINE"
);
},
{
closed = 1;
nodes = (
"112 -138 LINE",
"112 220 LINE",
"143 220 LINE",
"143 -138 LINE"
);
}
);
width = 255;
}
);
unicode = 00A6;
},
{
glyphname = section;
layers = (
{
layerId = "ACBC60AB-B62C-4A0F-8440-773766AFCC64";
name = Light;
paths = (
{
closed = 1;
nodes = (
"451 333 OFFCURVE",
"408 368 OFFCURVE",
"323 395 CURVE SMOOTH",
"258 415 LINE",
"243 419 OFFCURVE",
"230 424 OFFCURVE",
"215 431 CURVE",
"155 403 OFFCURVE",
"118 361 OFFCURVE",
"118 296 CURVE SMOOTH",
"118 221 OFFCURVE",
"161 188 OFFCURVE",
"246 161 CURVE SMOOTH",
"311 141 LINE",
"318 138 OFFCURVE",
"326 136 OFFCURVE",
"333 134 CURVE",
"340 131 OFFCURVE",
"347 128 OFFCURVE",
"354 125 CURVE",
"414 153 OFFCURVE",
"451 195 OFFCURVE",
"451 260 CURVE SMOOTH"
);
},
{
closed = 1;
nodes = (
"450 -57 OFFCURVE",
"430 -94 OFFCURVE",
"398 -118 CURVE SMOOTH",
"366 -142 OFFCURVE",
"322 -154 OFFCURVE",
"271 -154 CURVE SMOOTH",
"199 -154 OFFCURVE",
"150 -133 OFFCURVE",
"114 -98 CURVE",
"135 -74 LINE",
"166 -102 OFFCURVE",
"208 -123 OFFCURVE",
"272 -123 CURVE SMOOTH",
"361 -123 OFFCURVE",
"415 -84 OFFCURVE",
"415 -9 CURVE SMOOTH",
"415 26 OFFCURVE",
"401 50 OFFCURVE",
"380 69 CURVE SMOOTH",
"359 88 OFFCURVE",
"328 100 OFFCURVE",
"296 111 CURVE SMOOTH",
"230 132 LINE SMOOTH",
"135 163 OFFCURVE",
"84 205 OFFCURVE",
"84 290 CURVE SMOOTH",
"84 363 OFFCURVE",
"125 411 OFFCURVE",
"193 438 CURVE",
"193 442 LINE",
"146 471 OFFCURVE",
"119 510 OFFCURVE",
"119 565 CURVE SMOOTH",
"119 613 OFFCURVE",
"139 650 OFFCURVE",
"171 674 CURVE SMOOTH",
"203 698 OFFCURVE",
"247 710 OFFCURVE",
"298 710 CURVE SMOOTH",
"370 710 OFFCURVE",
"419 689 OFFCURVE",
"455 654 CURVE",
"434 629 LINE",
"403 658 OFFCURVE",
"361 679 OFFCURVE",
"297 679 CURVE SMOOTH",
"208 679 OFFCURVE",
"154 640 OFFCURVE",
"154 565 CURVE SMOOTH",
"154 530 OFFCURVE",
"168 505 OFFCURVE",
"189 486 CURVE SMOOTH",
"210 467 OFFCURVE",
"241 454 OFFCURVE",
"273 445 CURVE",
"339 423 LINE SMOOTH",
"434 394 OFFCURVE",
"486 351 OFFCURVE",
"486 266 CURVE SMOOTH",
"486 193 OFFCURVE",
"444 144 OFFCURVE",
"376 117 CURVE",
"376 114 LINE",
"423 85 OFFCURVE",
"450 44 OFFCURVE",
"450 -9 CURVE SMOOTH"
);
}
);
width = 570;
}
);
unicode = 00A7;
},
{
glyphname = paragraph;
layers = (
{
layerId = "ACBC60AB-B62C-4A0F-8440-773766AFCC64";
name = Light;
paths = (
{
closed = 1;
nodes = (
"249 323 LINE",
"194 323 OFFCURVE",
"145 341 OFFCURVE",
"109 374 CURVE SMOOTH",
"73 406 OFFCURVE",
"51 453 OFFCURVE",
"51 510 CURVE SMOOTH",
"51 567 OFFCURVE",
"73 615 OFFCURVE",
"109 648 CURVE SMOOTH",
"145 680 OFFCURVE",
"194 698 OFFCURVE",
"249 698 CURVE SMOOTH",
"511 698 LINE",
"511 668 LINE",
"443 668 LINE",
"443 -149 LINE",
"410 -149 LINE",
"410 668 LINE",
"282 668 LINE",
"282 -149 LINE",
"249 -149 LINE"
);
}
);
width = 605;
}
);
unicode = 00B6;
},
{
glyphname = copyright;
layers = (
{
layerId = "ACBC60AB-B62C-4A0F-8440-773766AFCC64";
name = Light;
paths = (
{
closed = 1;
nodes = (
"267 -12 OFFCURVE",
"188 23 OFFCURVE",
"130 86 CURVE SMOOTH",
"72 149 OFFCURVE",
"38 238 OFFCURVE",
"38 349 CURVE SMOOTH",
"38 458 OFFCURVE",
"72 549 OFFCURVE",
"130 612 CURVE SMOOTH",
"188 675 OFFCURVE",
"267 710 OFFCURVE",
"362 710 CURVE SMOOTH",
"457 710 OFFCURVE",
"538 675 OFFCURVE",
"595 612 CURVE SMOOTH",
"652 549 OFFCURVE",
"686 458 OFFCURVE",
"686 349 CURVE SMOOTH",
"686 238 OFFCURVE",
"652 149 OFFCURVE",
"595 86 CURVE SMOOTH",
"538 23 OFFCURVE",
"457 -12 OFFCURVE",
"362 -12 CURVE SMOOTH"
);
},
{
closed = 1;
nodes = (
"449 16 OFFCURVE",
"521 49 OFFCURVE",
"573 105 CURVE SMOOTH",
"624 160 OFFCURVE",
"653 237 OFFCURVE",
"653 325 CURVE SMOOTH",
"653 373 LINE SMOOTH",
"653 461 OFFCURVE",
"624 538 OFFCURVE",
"573 594 CURVE SMOOTH",
"521 649 OFFCURVE",
"449 682 OFFCURVE",
"362 682 CURVE SMOOTH",
"275 682 OFFCURVE",
"202 649 OFFCURVE",
"151 594 CURVE SMOOTH",
"100 538 OFFCURVE",
"71 461 OFFCURVE",
"71 373 CURVE SMOOTH",
"71 325 LINE SMOOTH",
"71 237 OFFCURVE",
"100 160 OFFCURVE",
"151 105 CURVE SMOOTH",
"202 49 OFFCURVE",
"275 16 OFFCURVE",
"362 16 CURVE SMOOTH"
);
},
{
closed = 1;
nodes = (
"267 150 OFFCURVE",
"209 219 OFFCURVE",
"209 347 CURVE SMOOTH",
"209 474 OFFCURVE",
"268 543 OFFCURVE",
"363 543 CURVE SMOOTH",
"430 543 OFFCURVE",
"470 508 OFFCURVE",
"489 461 CURVE",
"463 449 LINE",
"446 490 OFFCURVE",
"414 515 OFFCURVE",
"363 515 CURVE SMOOTH",
"288 515 OFFCURVE",
"242 462 OFFCURVE",
"242 362 CURVE SMOOTH",
"242 331 LINE SMOOTH",
"242 228 OFFCURVE",
"289 178 OFFCURVE",
"362 178 CURVE SMOOTH",
"414 178 OFFCURVE",
"450 203 OFFCURVE",
"469 246 CURVE",
"493 232 LINE",
"473 185 OFFCURVE",
"427 150 OFFCURVE",
"362 150 CURVE SMOOTH"
);
}
);
width = 724;
}
);
leftKerningGroup = copyright;
unicode = 00A9;
},
{
glyphname = registered;
layers = (
{
layerId = "ACBC60AB-B62C-4A0F-8440-773766AFCC64";
name = Light;
paths = (
{
closed = 1;
nodes = (
"178 298 OFFCURVE",
"128 319 OFFCURVE",
"93 356 CURVE SMOOTH",
"57 392 OFFCURVE",
"36 444 OFFCURVE",
"36 504 CURVE SMOOTH",
"36 564 OFFCURVE",
"57 616 OFFCURVE",
"93 653 CURVE SMOOTH",
"128 689 OFFCURVE",
"178 710 OFFCURVE",
"234 710 CURVE SMOOTH",
"291 710 OFFCURVE",
"340 689 OFFCURVE",
"376 653 CURVE SMOOTH",
"411 616 OFFCURVE",
"432 564 OFFCURVE",
"432 504 CURVE SMOOTH",
"432 444 OFFCURVE",
"411 392 OFFCURVE",
"376 356 CURVE SMOOTH",
"340 319 OFFCURVE",
"291 298 OFFCURVE",
"234 298 CURVE SMOOTH"
);
},
{
closed = 1;
nodes = (
"283 320 OFFCURVE",
"327 339 OFFCURVE",
"358 370 CURVE SMOOTH",
"389 401 OFFCURVE",
"407 445 OFFCURVE",
"407 494 CURVE SMOOTH",
"407 514 LINE SMOOTH",
"407 563 OFFCURVE",
"389 607 OFFCURVE",
"358 638 CURVE SMOOTH",
"327 669 OFFCURVE",
"283 688 OFFCURVE",
"234 688 CURVE SMOOTH",
"183 688 OFFCURVE",
"141 669 OFFCURVE",
"110 638 CURVE SMOOTH",
"79 607 OFFCURVE",
"61 563 OFFCURVE",
"61 514 CURVE SMOOTH",
"61 494 LINE SMOOTH",
"61 445 OFFCURVE",
"79 401 OFFCURVE",
"110 370 CURVE SMOOTH",
"141 339 OFFCURVE",
"183 320 OFFCURVE",
"234 320 CURVE SMOOTH"
);
},
{
closed = 1;
nodes = (
"189 397 LINE",
"167 397 LINE",
"167 608 LINE",
"250 608 LINE SMOOTH",
"289 608 OFFCURVE",
"313 589 OFFCURVE",
"313 546 CURVE SMOOTH",
"313 511 OFFCURVE",
"294 490 OFFCURVE",
"267 487 CURVE",
"320 397 LINE",
"295 397 LINE",
"245 485 LINE",
"189 485 LINE"
);
},
{
closed = 1;
nodes = (
"249 504 LINE SMOOTH",
"276 504 OFFCURVE",
"289 516 OFFCURVE",
"289 541 CURVE SMOOTH",
"289 552 LINE SMOOTH",
"289 577 OFFCURVE",
"276 589 OFFCURVE",
"249 589 CURVE SMOOTH",
"189 589 LINE",
"189 504 LINE"
);
}
);
width = 468;
}
);
leftKerningGroup = registered;
rightKerningGroup = registered;
unicode = 00AE;
},
{
glyphname = trademark;
layers = (
{
layerId = "ACBC60AB-B62C-4A0F-8440-773766AFCC64";
name = Light;
paths = (
{
closed = 1;
nodes = (
"127 427 LINE",
"127 675 LINE",
"25 675 LINE",
"25 698 LINE",
"256 698 LINE",
"256 675 LINE",
"154 675 LINE",
"154 427 LINE"
);
},
{
closed = 1;
nodes = (
"322 427 LINE",
"322 698 LINE",
"355 698 LINE",
"438 538 LINE",
"440 538 LINE",
"524 698 LINE",
"556 698 LINE",
"556 427 LINE",
"532 427 LINE",
"532 660 LINE",
"529 660 LINE",
"439 489 LINE",
"349 660 LINE",
"346 660 LINE",
"346 427 LINE"
);
}
);
width = 643;
}
);
leftKerningGroup = trademark;
rightKerningGroup = trademark;
unicode = 2122;
},
{
glyphname = ordfeminine;
lastChange = "2018-11-02 02:42:56 +0000";
layers = (
{
layerId = "ACBC60AB-B62C-4A0F-8440-773766AFCC64";
name = Light;
paths = (
{
closed = 1;
nodes = (
"106 710 OFFCURVE",
"69 682 OFFCURVE",
"50 642 CURVE",
"72 628 LINE",
"89 667 OFFCURVE",
"125 685 OFFCURVE",
"169 685 CURVE SMOOTH",
"229 685 OFFCURVE",
"262 658 OFFCURVE",
"262 598 CURVE SMOOTH",
"262 549 LINE",
"172 549 LINE SMOOTH",
"77 549 OFFCURVE",
"40 513 OFFCURVE",
"40 453 CURVE SMOOTH",
"40 398 OFFCURVE",
"77 363 OFFCURVE",
"149 363 CURVE SMOOTH",
"213 363 OFFCURVE",
"246 391 OFFCURVE",
"261 419 CURVE",
"263 419 LINE",
"263 370 LINE",
"292 370 LINE",
"292 601 LINE SMOOTH",
"292 670 OFFCURVE",
"246 710 OFFCURVE",
"170 710 CURVE SMOOTH"
);
},
{
closed = 1;
nodes = (
"262 440 OFFCURVE",
"249 420 OFFCURVE",
"229 408 CURVE",
"209 395 OFFCURVE",
"181 388 OFFCURVE",
"152 388 CURVE SMOOTH",
"103 388 OFFCURVE",
"71 409 OFFCURVE",
"71 449 CURVE SMOOTH",
"71 461 LINE SMOOTH",
"71 501 OFFCURVE",
"99 525 OFFCURVE",
"171 525 CURVE SMOOTH",
"262 525 LINE",
"262 467 LINE SMOOTH"
);
}
);
width = 344;
}
);
unicode = 00AA;
},
{
glyphname = ordmasculine;
layers = (
{
layerId = "ACBC60AB-B62C-4A0F-8440-773766AFCC64";
name = Light;
paths = (
{
closed = 1;
nodes = (
"96 363 OFFCURVE",
"46 430 OFFCURVE",
"46 538 CURVE SMOOTH",
"46 645 OFFCURVE",
"98 710 OFFCURVE",
"187 710 CURVE SMOOTH",
"276 710 OFFCURVE",
"328 645 OFFCURVE",
"328 538 CURVE SMOOTH",
"328 430 OFFCURVE",
"278 363 OFFCURVE",
"187 363 CURVE SMOOTH"
);
},
{
closed = 1;
nodes = (
"223 388 OFFCURVE",
"251 402 OFFCURVE",
"269 426 CURVE SMOOTH",
"287 449 OFFCURVE",
"296 481 OFFCURVE",
"296 517 CURVE SMOOTH",
"296 557 LINE SMOOTH",
"296 592 OFFCURVE",
"287 624 OFFCURVE",
"269 648 CURVE SMOOTH",
"251 671 OFFCURVE",
"223 685 OFFCURVE",
"187 685 CURVE SMOOTH",
"151 685 OFFCURVE",
"124 671 OFFCURVE",
"106 648 CURVE SMOOTH",
"88 624 OFFCURVE",
"78 592 OFFCURVE",
"78 557 CURVE SMOOTH",
"78 517 LINE SMOOTH",
"78 481 OFFCURVE",
"88 449 OFFCURVE",
"106 426 CURVE SMOOTH",
"124 402 OFFCURVE",
"151 388 OFFCURVE",
"187 388 CURVE SMOOTH"
);
}
);
width = 374;
}
);
unicode = 00BA;
},
{
glyphname = degree;
layers = (
{
layerId = "ACBC60AB-B62C-4A0F-8440-773766AFCC64";
name = Light;
paths = (
{
closed = 1;
nodes = (
"186 372 OFFCURVE",
"145 391 OFFCURVE",
"117 421 CURVE SMOOTH",
"88 451 OFFCURVE",
"70 493 OFFCURVE",
"70 541 CURVE SMOOTH",
"70 589 OFFCURVE",
"88 632 OFFCURVE",
"117 662 CURVE SMOOTH",
"145 692 OFFCURVE",
"186 710 OFFCURVE",
"233 710 CURVE SMOOTH",
"280 710 OFFCURVE",
"321 692 OFFCURVE",
"350 662 CURVE SMOOTH",
"378 632 OFFCURVE",
"396 589 OFFCURVE",
"396 541 CURVE SMOOTH",
"396 493 OFFCURVE",
"378 451 OFFCURVE",
"350 421 CURVE SMOOTH",
"321 391 OFFCURVE",
"280 372 OFFCURVE",
"233 372 CURVE SMOOTH"
);
},
{
closed = 1;
nodes = (
"273 402 OFFCURVE",
"305 418 OFFCURVE",
"329 443 CURVE SMOOTH",
"352 467 OFFCURVE",
"364 502 OFFCURVE",
"364 541 CURVE SMOOTH",
"364 580 OFFCURVE",
"352 615 OFFCURVE",
"329 640 CURVE",
"305 664 OFFCURVE",
"273 680 OFFCURVE",
"233 680 CURVE SMOOTH",
"193 680 OFFCURVE",
"161 664 OFFCURVE",
"138 640 CURVE SMOOTH",
"114 615 OFFCURVE",
"102 580 OFFCURVE",
"102 541 CURVE SMOOTH",
"102 502 OFFCURVE",
"114 467 OFFCURVE",
"138 443 CURVE",
"161 418 OFFCURVE",
"193 402 OFFCURVE",
"233 402 CURVE SMOOTH"
);
}
);
width = 466;
}
);
unicode = 00B0;
},
{
glyphname = asterisk;
layers = (
{
layerId = "ACBC60AB-B62C-4A0F-8440-773766AFCC64";
name = Light;
paths = (
{
closed = 1;
nodes = (
"101 425 LINE",
"76 443 LINE",
"170 568 LINE",
"22 612 LINE",
"31 643 LINE",
"178 592 LINE",
"176 747 LINE",
"206 747 LINE",
"204 592 LINE",
"352 643 LINE",
"361 612 LINE",
"212 568 LINE",
"307 443 LINE",
"282 425 LINE",
"191 552 LINE"
);
}
);
width = 383;
}
);
leftKerningGroup = quotesingle;
rightKerningGroup = quotesingle;
unicode = 002A;
},
{
glyphname = dagger;
layers = (
{
layerId = "ACBC60AB-B62C-4A0F-8440-773766AFCC64";
name = Light;
paths = (
{
closed = 1;
nodes = (
"263 -200 LINE",
"263 479 LINE",
"56 479 LINE",
"56 508 LINE",
"263 508 LINE",
"263 740 LINE",
"296 740 LINE",
"296 508 LINE",
"503 508 LINE",
"503 479 LINE",
"296 479 LINE",
"296 -200 LINE"
);
}
);
width = 559;
}
);
unicode = 2020;
},
{
glyphname = daggerdbl;
layers = (
{
layerId = "ACBC60AB-B62C-4A0F-8440-773766AFCC64";
name = Light;
paths = (
{
closed = 1;
nodes = (
"263 -200 LINE",
"263 32 LINE",
"56 32 LINE",
"56 61 LINE",
"263 61 LINE",
"263 479 LINE",
"56 479 LINE",
"56 508 LINE",
"263 508 LINE",
"263 740 LINE",
"296 740 LINE",
"296 508 LINE",
"503 508 LINE",
"503 479 LINE",
"296 479 LINE",
"296 61 LINE",
"503 61 LINE",
"503 32 LINE",
"296 32 LINE",
"296 -200 LINE"
);
}
);
width = 559;
}
);
unicode = 2021;
},
{
glyphname = numbersign;
layers = (
{
layerId = "ACBC60AB-B62C-4A0F-8440-773766AFCC64";
name = Light;
paths = (
{
closed = 1;
nodes = (
"422 216 LINE",
"244 216 LINE",
"206 0 LINE",
"175 0 LINE",
"212 216 LINE",
"68 216 LINE",
"68 245 LINE",
"218 245 LINE",
"253 453 LINE",
"107 453 LINE",
"107 482 LINE",
"258 482 LINE",
"295 698 LINE",
"326 698 LINE",
"289 482 LINE",
"467 482 LINE",
"504 698 LINE",
"536 698 LINE",
"498 482 LINE",
"643 482 LINE",
"643 453 LINE",
"493 453 LINE",
"458 245 LINE",
"604 245 LINE",
"604 216 LINE",
"453 216 LINE",
"416 0 LINE",
"384 0 LINE"
);
},
{
closed = 1;
nodes = (
"427 245 LINE",
"462 453 LINE",
"284 453 LINE",
"248 245 LINE"
);
}
);
width = 711;
}
);
unicode = 0023;
},
{
glyphname = asciicircum;
layers = (
{
layerId = "ACBC60AB-B62C-4A0F-8440-773766AFCC64";
name = Light;
paths = (
{
closed = 1;
nodes = (
"508 316 LINE",
"301 664 LINE",
"299 664 LINE",
"92 316 LINE",
"64 331 LINE",
"281 698 LINE",
"319 698 LINE",
"536 331 LINE"
);
}
);
width = 600;
}
);
unicode = 005E;
},
{
glyphname = asciitilde;
layers = (
{
layerId = "ACBC60AB-B62C-4A0F-8440-773766AFCC64";
name = Light;
paths = (
{
closed = 1;
nodes = (
"403 252 OFFCURVE",
"384 256 OFFCURVE",
"364 262 CURVE SMOOTH",
"344 268 OFFCURVE",
"322 277 OFFCURVE",
"293 290 CURVE SMOOTH",
"266 302 OFFCURVE",
"247 311 OFFCURVE",
"229 317 CURVE SMOOTH",
"211 323 OFFCURVE",
"194 326 OFFCURVE",
"175 326 CURVE SMOOTH",
"138 326 OFFCURVE",
"113 315 OFFCURVE",
"82 286 CURVE",
"64 308 LINE",
"96 341 OFFCURVE",
"129 357 OFFCURVE",
"177 357 CURVE SMOOTH",
"197 357 OFFCURVE",
"216 354 OFFCURVE",
"236 348 CURVE SMOOTH",
"256 342 OFFCURVE",
"278 332 OFFCURVE",
"307 319 CURVE SMOOTH",
"320 313 OFFCURVE",
"332 308 OFFCURVE",
"343 303 CURVE SMOOTH",
"363 294 OFFCURVE",
"381 288 OFFCURVE",
"398 285 CURVE",
"407 284 OFFCURVE",
"416 283 OFFCURVE",
"425 283 CURVE SMOOTH",
"462 283 OFFCURVE",
"487 294 OFFCURVE",
"518 323 CURVE",
"536 301 LINE",
"504 268 OFFCURVE",
"471 252 OFFCURVE",
"423 252 CURVE SMOOTH"
);
}
);
width = 600;
}
);
unicode = 007E;
},
{
glyphname = plus;
layers = (
{
layerId = "ACBC60AB-B62C-4A0F-8440-773766AFCC64";
name = Light;
paths = (
{
closed = 1;
nodes = (
"283 62 LINE",
"283 290 LINE",
"63 290 LINE",
"63 321 LINE",
"283 321 LINE",
"283 549 LINE",
"317 549 LINE",
"317 321 LINE",
"537 321 LINE",
"537 290 LINE",
"317 290 LINE",
"317 62 LINE"
);
}
);
width = 600;
}
);
unicode = 002B;
},
{
glyphname = minus;
layers = (
{
layerId = "ACBC60AB-B62C-4A0F-8440-773766AFCC64";
name = Light;
paths = (
{
closed = 1;
nodes = (
"63 290 LINE",
"63 321 LINE",
"537 321 LINE",
"537 290 LINE"
);
}
);
width = 600;
}
);
unicode = 2212;
},
{
glyphname = plusminus;
layers = (
{
layerId = "ACBC60AB-B62C-4A0F-8440-773766AFCC64";
name = Light;
paths = (
{
closed = 1;
nodes = (
"283 124 LINE",
"283 349 LINE",
"63 349 LINE",
"63 380 LINE",
"283 380 LINE",
"283 606 LINE",
"317 606 LINE",
"317 380 LINE",
"537 380 LINE",
"537 349 LINE",
"317 349 LINE",
"317 124 LINE"
);
},
{
closed = 1;
nodes = (
"63 0 LINE",
"63 31 LINE",
"537 31 LINE",
"537 0 LINE"
);
}
);
width = 600;
}
);
unicode = 00B1;
},
{
glyphname = multiply;
layers = (
{
layerId = "ACBC60AB-B62C-4A0F-8440-773766AFCC64";
name = Light;
paths = (
{
closed = 1;
nodes = (
"300 283 LINE",
"124 106 LINE",
"102 128 LINE",
"278 305 LINE",
"102 482 LINE",
"124 504 LINE",
"300 327 LINE",
"476 504 LINE",
"498 482 LINE",
"322 305 LINE",
"498 128 LINE",
"476 106 LINE"
);
}
);
width = 600;
}
);
unicode = 00D7;
},
{
glyphname = divide;
layers = (
{
layerId = "ACBC60AB-B62C-4A0F-8440-773766AFCC64";
name = Light;
paths = (
{
closed = 1;
nodes = (
"63 290 LINE",
"63 321 LINE",
"537 321 LINE",
"537 290 LINE"
);
},
{
closed = 1;
nodes = (
"272 74 OFFCURVE",
"259 87 OFFCURVE",
"259 106 CURVE SMOOTH",
"259 117 LINE SMOOTH",
"259 138 OFFCURVE",
"273 149 OFFCURVE",
"300 149 CURVE SMOOTH",
"327 149 OFFCURVE",
"341 138 OFFCURVE",
"341 117 CURVE SMOOTH",
"341 106 LINE SMOOTH",
"341 87 OFFCURVE",
"328 74 OFFCURVE",
"300 74 CURVE SMOOTH"
);
},
{
closed = 1;
nodes = (
"272 461 OFFCURVE",
"259 474 OFFCURVE",
"259 493 CURVE SMOOTH",
"259 505 LINE SMOOTH",
"259 524 OFFCURVE",
"272 537 OFFCURVE",
"300 537 CURVE SMOOTH",
"328 537 OFFCURVE",
"341 524 OFFCURVE",
"341 505 CURVE SMOOTH",
"341 493 LINE SMOOTH",
"341 474 OFFCURVE",
"328 461 OFFCURVE",
"300 461 CURVE SMOOTH"
);
}
);
width = 600;
}
);
unicode = 00F7;
},
{
glyphname = equal;
layers = (
{
layerId = "ACBC60AB-B62C-4A0F-8440-773766AFCC64";
name = Light;
paths = (
{
closed = 1;
nodes = (
"63 382 LINE",
"63 413 LINE",
"537 413 LINE",
"537 382 LINE"
);
},
{
closed = 1;
nodes = (
"63 198 LINE",
"63 229 LINE",
"537 229 LINE",
"537 198 LINE"
);
}
);
width = 600;
}
);
unicode = 003D;
},
{
glyphname = approxequal;
layers = (
{
layerId = "ACBC60AB-B62C-4A0F-8440-773766AFCC64";
name = Light;
paths = (
{
closed = 1;
nodes = (
"403 339 OFFCURVE",
"384 343 OFFCURVE",
"364 349 CURVE SMOOTH",
"344 355 OFFCURVE",
"322 364 OFFCURVE",
"293 377 CURVE SMOOTH",
"266 389 OFFCURVE",
"247 398 OFFCURVE",
"229 404 CURVE SMOOTH",
"211 410 OFFCURVE",
"194 413 OFFCURVE",
"175 413 CURVE SMOOTH",
"138 413 OFFCURVE",
"113 402 OFFCURVE",
"82 373 CURVE",
"64 395 LINE",
"96 428 OFFCURVE",
"129 444 OFFCURVE",
"177 444 CURVE SMOOTH",
"197 444 OFFCURVE",
"216 441 OFFCURVE",
"236 435 CURVE SMOOTH",
"256 429 OFFCURVE",
"278 419 OFFCURVE",
"307 406 CURVE SMOOTH",
"320 400 OFFCURVE",
"332 395 OFFCURVE",
"343 390 CURVE SMOOTH",
"363 381 OFFCURVE",
"381 375 OFFCURVE",
"398 372 CURVE",
"407 371 OFFCURVE",
"416 370 OFFCURVE",
"425 370 CURVE SMOOTH",
"462 370 OFFCURVE",
"487 381 OFFCURVE",
"518 410 CURVE",
"536 388 LINE",
"504 355 OFFCURVE",
"471 339 OFFCURVE",
"423 339 CURVE SMOOTH"
);
},
{
closed = 1;
nodes = (
"403 167 OFFCURVE",
"384 171 OFFCURVE",
"364 177 CURVE SMOOTH",
"344 183 OFFCURVE",
"322 192 OFFCURVE",
"293 205 CURVE SMOOTH",
"266 217 OFFCURVE",
"247 226 OFFCURVE",
"229 232 CURVE SMOOTH",
"211 238 OFFCURVE",
"194 241 OFFCURVE",
"175 241 CURVE SMOOTH",
"138 241 OFFCURVE",
"113 230 OFFCURVE",
"82 201 CURVE",
"64 223 LINE",
"96 256 OFFCURVE",
"129 272 OFFCURVE",
"177 272 CURVE SMOOTH",
"197 272 OFFCURVE",
"216 269 OFFCURVE",
"236 263 CURVE SMOOTH",
"256 257 OFFCURVE",
"278 247 OFFCURVE",
"307 234 CURVE SMOOTH",
"320 228 OFFCURVE",
"332 223 OFFCURVE",
"343 218 CURVE SMOOTH",
"363 209 OFFCURVE",
"381 203 OFFCURVE",
"398 200 CURVE",
"407 199 OFFCURVE",
"416 198 OFFCURVE",
"425 198 CURVE SMOOTH",
"462 198 OFFCURVE",
"487 209 OFFCURVE",
"518 238 CURVE",
"536 216 LINE",
"504 183 OFFCURVE",
"471 167 OFFCURVE",
"423 167 CURVE SMOOTH"
);
}
);
width = 600;
}
);
unicode = 2248;
},
{
glyphname = notequal;
layers = (
{
layerId = "ACBC60AB-B62C-4A0F-8440-773766AFCC64";
name = Light;
paths = (
{
closed = 1;
nodes = (
"155 87 LINE",
"221 198 LINE",
"63 198 LINE",
"63 229 LINE",
"238 229 LINE",
"329 382 LINE",
"63 382 LINE",
"63 413 LINE",
"346 413 LINE",
"412 524 LINE",
"445 524 LINE",
"379 413 LINE",
"537 413 LINE",
"537 382 LINE",
"362 382 LINE",
"271 229 LINE",
"537 229 LINE",
"537 198 LINE",
"254 198 LINE",
"188 87 LINE"
);
}
);
width = 600;
}
);
unicode = 2260;
},
{
glyphname = less;
layers = (
{
layerId = "ACBC60AB-B62C-4A0F-8440-773766AFCC64";
name = Light;
paths = (
{
closed = 1;
nodes = (
"86 282 LINE",
"86 315 LINE",
"514 571 LINE",
"514 533 LINE",
"122 300 LINE",
"122 297 LINE",
"514 64 LINE",
"514 26 LINE"
);
}
);
width = 600;
}
);
unicode = 003C;
},
{
glyphname = greater;
layers = (
{
layerId = "ACBC60AB-B62C-4A0F-8440-773766AFCC64";
name = Light;
paths = (
{
closed = 1;
nodes = (
"86 64 LINE",
"478 297 LINE",
"478 300 LINE",
"86 533 LINE",
"86 571 LINE",
"514 315 LINE",
"514 282 LINE",
"86 26 LINE"
);
}
);
width = 600;
}
);
unicode = 003E;
},
{
glyphname = lessequal;
layers = (
{
layerId = "ACBC60AB-B62C-4A0F-8440-773766AFCC64";
name = Light;
paths = (
{
closed = 1;
nodes = (
"86 0 LINE",
"86 31 LINE",
"514 31 LINE",
"514 0 LINE"
);
},
{
closed = 1;
nodes = (
"514 556 LINE",
"121 349 LINE",
"121 346 LINE",
"514 139 LINE",
"514 103 LINE",
"86 330 LINE",
"86 365 LINE",
"514 592 LINE"
);
}
);
width = 600;
}
);
unicode = 2264;
},
{
glyphname = greaterequal;
layers = (
{
layerId = "ACBC60AB-B62C-4A0F-8440-773766AFCC64";
name = Light;
paths = (
{
closed = 1;
nodes = (
"86 139 LINE",
"479 346 LINE",
"479 349 LINE",
"86 556 LINE",
"86 592 LINE",
"514 365 LINE",
"514 330 LINE",
"86 103 LINE"
);
},
{
closed = 1;
nodes = (
"86 31 LINE",
"514 31 LINE",
"514 0 LINE",
"86 0 LINE"
);
}
);
width = 600;
}
);
unicode = 2265;
},
{
glyphname = periodcentered;
layers = (
{
layerId = "ACBC60AB-B62C-4A0F-8440-773766AFCC64";
name = Light;
paths = (
{
closed = 1;
nodes = (
"130 268 OFFCURVE",
"118 281 OFFCURVE",
"118 301 CURVE SMOOTH",
"118 310 LINE SMOOTH",
"118 330 OFFCURVE",
"130 343 OFFCURVE",
"153 343 CURVE SMOOTH",
"176 343 OFFCURVE",
"188 330 OFFCURVE",
"188 310 CURVE SMOOTH",
"188 301 LINE SMOOTH",
"188 281 OFFCURVE",
"176 268 OFFCURVE",
"153 268 CURVE SMOOTH"
);
}
);
width = 306;
}
);
unicode = 00B7;
},
{
glyphname = bullet;
layers = (
{
layerId = "ACBC60AB-B62C-4A0F-8440-773766AFCC64";
name = Light;
paths = (
{
closed = 1;
nodes = (
"107 210 OFFCURVE",
"80 245 OFFCURVE",
"80 292 CURVE SMOOTH",
"80 316 LINE SMOOTH",
"80 363 OFFCURVE",
"107 398 OFFCURVE",
"175 398 CURVE SMOOTH",
"243 398 OFFCURVE",
"270 363 OFFCURVE",
"270 316 CURVE SMOOTH",
"270 292 LINE SMOOTH",
"270 245 OFFCURVE",
"243 210 OFFCURVE",
"175 210 CURVE SMOOTH"
);
}
);
width = 350;
}
);
unicode = 2022;
},
{
glyphname = lozenge;
layers = (
{
layerId = "ACBC60AB-B62C-4A0F-8440-773766AFCC64";
name = Light;
paths = (
{
closed = 1;
nodes = (
"282 0 LINE",
"55 349 LINE",
"282 698 LINE",
"318 698 LINE",
"545 349 LINE",
"318 0 LINE"
);
},
{
closed = 1;
nodes = (
"302 33 LINE",
"507 349 LINE",
"302 665 LINE",
"298 665 LINE",
"93 349 LINE",
"298 33 LINE"
);
}
);
width = 600;
}
);
unicode = 25CA;
},
{
glyphname = logicalnot;
layers = (
{
layerId = "ACBC60AB-B62C-4A0F-8440-773766AFCC64";
name = Light;
paths = (
{
closed = 1;
nodes = (
"492 98 LINE",
"492 290 LINE",
"63 290 LINE",
"63 321 LINE",
"525 321 LINE",
"525 98 LINE"
);
}
);
width = 600;
}
);
unicode = 00AC;
},
{
glyphname = radical;
layers = (
{
layerId = "ACBC60AB-B62C-4A0F-8440-773766AFCC64";
name = Light;
paths = (
{
closed = 1;
nodes = (
"280 0 LINE",
"144 478 LINE",
"28 478 LINE",
"28 508 LINE",
"170 508 LINE",
"304 36 LINE",
"307 36 LINE",
"508 698 LINE",
"543 698 LINE",
"328 0 LINE"
);
}
);
width = 600;
}
);
unicode = 221A;
},
{
glyphname = integral;
layers = (
{
layerId = "ACBC60AB-B62C-4A0F-8440-773766AFCC64";
name = Light;
paths = (
{
closed = 1;
nodes = (
"50 -169 LINE",
"168 -169 LINE",
"168 690 LINE SMOOTH",
"168 723 OFFCURVE",
"184 740 OFFCURVE",
"217 740 CURVE SMOOTH",
"321 740 LINE",
"321 709 LINE",
"203 709 LINE",
"203 -150 LINE SMOOTH",
"203 -183 OFFCURVE",
"187 -200 OFFCURVE",
"154 -200 CURVE SMOOTH",
"50 -200 LINE"
);
}
);
width = 371;
}
);
unicode = 222B;
},
{
glyphname = infinity;
layers = (
{
layerId = "ACBC60AB-B62C-4A0F-8440-773766AFCC64";
name = Light;
paths = (
{
closed = 1;
nodes = (
"84 123 OFFCURVE",
"25 192 OFFCURVE",
"25 305 CURVE SMOOTH",
"25 418 OFFCURVE",
"84 487 OFFCURVE",
"192 487 CURVE SMOOTH",
"279 487 OFFCURVE",
"347 430 OFFCURVE",
"372 334 CURVE",
"375 334 LINE",
"398 431 OFFCURVE",
"465 487 OFFCURVE",
"542 487 CURVE SMOOTH",
"650 487 OFFCURVE",
"709 418 OFFCURVE",
"709 305 CURVE SMOOTH",
"709 192 OFFCURVE",
"650 123 OFFCURVE",
"542 123 CURVE SMOOTH",
"454 123 OFFCURVE",
"387 180 OFFCURVE",
"362 276 CURVE",
"359 276 LINE",
"336 179 OFFCURVE",
"269 123 OFFCURVE",
"192 123 CURVE SMOOTH"
);
},
{
closed = 1;
nodes = (
"259 154 OFFCURVE",
"320 204 OFFCURVE",
"349 305 CURVE",
"320 413 OFFCURVE",
"259 456 OFFCURVE",
"190 456 CURVE SMOOTH",
"114 456 OFFCURVE",
"61 409 OFFCURVE",
"61 325 CURVE SMOOTH",
"61 285 LINE SMOOTH",
"61 201 OFFCURVE",
"114 154 OFFCURVE",
"190 154 CURVE SMOOTH"
);
},
{
closed = 1;
nodes = (
"619 154 OFFCURVE",
"673 201 OFFCURVE",
"673 285 CURVE SMOOTH",
"673 325 LINE SMOOTH",
"673 409 OFFCURVE",
"619 456 OFFCURVE",
"544 456 CURVE SMOOTH",
"475 456 OFFCURVE",
"413 406 OFFCURVE",
"385 305 CURVE",
"413 198 OFFCURVE",
"475 154 OFFCURVE",
"544 154 CURVE SMOOTH"
);
}
);
width = 734;
}
);
unicode = 221E;
},
{
glyphname = uni212E;
layers = (
{
layerId = "ACBC60AB-B62C-4A0F-8440-773766AFCC64";
name = Light;
paths = (
{
closed = 1;
nodes = (
"116 173 LINE",
"133 129 OFFCURVE",
"164 89 OFFCURVE",
"205 61 CURVE SMOOTH",
"245 32 OFFCURVE",
"295 15 OFFCURVE",
"352 15 CURVE SMOOTH",
"477 15 OFFCURVE",
"553 73 OFFCURVE",
"602 161 CURVE",
"627 148 LINE",
"603 103 OFFCURVE",
"568 62 OFFCURVE",
"523 34 CURVE SMOOTH",
"478 5 OFFCURVE",
"420 -12 OFFCURVE",
"352 -12 CURVE SMOOTH",
"259 -12 OFFCURVE",
"182 26 OFFCURVE",
"127 90 CURVE SMOOTH",
"72 154 OFFCURVE",
"41 244 OFFCURVE",
"41 349 CURVE SMOOTH",
"41 454 OFFCURVE",
"73 544 OFFCURVE",
"127 608 CURVE SMOOTH",
"181 672 OFFCURVE",
"258 710 OFFCURVE",
"350 710 CURVE SMOOTH",
"442 710 OFFCURVE",
"520 672 OFFCURVE",
"574 608 CURVE SMOOTH",
"628 544 OFFCURVE",
"659 454 OFFCURVE",
"659 349 CURVE",
"116 349 LINE"
);
},
{
closed = 1;
nodes = (
"584 376 LINE",
"584 528 LINE",
"549 619 OFFCURVE",
"465 683 OFFCURVE",
"350 683 CURVE SMOOTH",
"235 683 OFFCURVE",
"151 619 OFFCURVE",
"116 528 CURVE",
"116 376 LINE"
);
}
);
width = 700;
}
);
unicode = 212E;
},
{
glyphname = uni2113;
layers = (
{
layerId = "ACBC60AB-B62C-4A0F-8440-773766AFCC64";
name = Light;
paths = (
{
closed = 1;
nodes = (
"162 -12 OFFCURVE",
"124 56 OFFCURVE",
"124 163 CURVE SMOOTH",
"124 193 LINE",
"103 176 OFFCURVE",
"80 160 OFFCURVE",
"56 145 CURVE",
"41 171 LINE",
"68 187 OFFCURVE",
"97 206 OFFCURVE",
"124 230 CURVE",
"124 569 LINE SMOOTH",
"124 696 OFFCURVE",
"167 752 OFFCURVE",
"243 752 CURVE SMOOTH",
"319 752 OFFCURVE",
"357 703 OFFCURVE",
"357 605 CURVE SMOOTH",
"357 534 OFFCURVE",
"336 464 OFFCURVE",
"301 397 CURVE SMOOTH",
"265 330 OFFCURVE",
"215 268 OFFCURVE",
"158 216 CURVE",
"158 167 LINE SMOOTH",
"158 67 OFFCURVE",
"187 19 OFFCURVE",
"259 19 CURVE SMOOTH",
"296 19 OFFCURVE",
"324 32 OFFCURVE",
"348 53 CURVE SMOOTH",
"371 73 OFFCURVE",
"389 101 OFFCURVE",
"405 132 CURVE",
"432 117 LINE",
"415 84 OFFCURVE",
"394 52 OFFCURVE",
"366 28 CURVE SMOOTH",
"338 4 OFFCURVE",
"303 -12 OFFCURVE",
"258 -12 CURVE SMOOTH"
);
},
{
closed = 1;
nodes = (
"219 721 OFFCURVE",
"197 712 OFFCURVE",
"182 689 CURVE SMOOTH",
"167 665 OFFCURVE",
"158 627 OFFCURVE",
"158 571 CURVE SMOOTH",
"158 255 LINE",
"206 303 OFFCURVE",
"247 360 OFFCURVE",
"277 419 CURVE SMOOTH",
"307 478 OFFCURVE",
"324 540 OFFCURVE",
"324 600 CURVE SMOOTH",
"324 613 LINE SMOOTH",
"324 689 OFFCURVE",
"293 721 OFFCURVE",
"244 721 CURVE SMOOTH"
);
}
);
width = 466;
}
);
unicode = 2113;
},
{
glyphname = uni2116;
layers = (
{
layerId = "ACBC60AB-B62C-4A0F-8440-773766AFCC64";
name = Light;
paths = (
{
closed = 1;
nodes = (
"736 366 OFFCURVE",
"680 431 OFFCURVE",
"680 539 CURVE SMOOTH",
"680 646 OFFCURVE",
"738 710 OFFCURVE",
"831 710 CURVE SMOOTH",
"924 710 OFFCURVE",
"982 646 OFFCURVE",
"982 539 CURVE SMOOTH",
"982 431 OFFCURVE",
"926 366 OFFCURVE",
"831 366 CURVE SMOOTH"
);
},
{
closed = 1;
nodes = (
"104 0 LINE",
"104 698 LINE",
"151 698 LINE",
"547 48 LINE",
"550 48 LINE",
"550 698 LINE",
"585 698 LINE",
"585 0 LINE",
"538 0 LINE",
"142 648 LINE",
"139 648 LINE",
"139 0 LINE"
);
},
{
closed = 1;
nodes = (
"870 392 OFFCURVE",
"899 406 OFFCURVE",
"919 430 CURVE SMOOTH",
"939 453 OFFCURVE",
"949 484 OFFCURVE",
"949 519 CURVE SMOOTH",
"949 558 LINE SMOOTH",
"949 591 OFFCURVE",
"939 623 OFFCURVE",
"919 647 CURVE SMOOTH",
"899 670 OFFCURVE",
"870 684 OFFCURVE",
"831 684 CURVE SMOOTH",
"792 684 OFFCURVE",
"763 670 OFFCURVE",
"743 647 CURVE SMOOTH",
"723 623 OFFCURVE",
"713 591 OFFCURVE",
"713 558 CURVE SMOOTH",
"713 519 LINE SMOOTH",
"713 484 OFFCURVE",
"723 453 OFFCURVE",
"743 430 CURVE SMOOTH",
"763 406 OFFCURVE",
"792 392 OFFCURVE",
"831 392 CURVE SMOOTH"
);
},
{
closed = 1;
nodes = (
"694 275 LINE",
"694 305 LINE",
"968 305 LINE",
"968 275 LINE"
);
}
);
width = 1014;
}
);
unicode = 2116;
},
{
glyphname = partialdiff;
layers = (
{
layerId = "ACBC60AB-B62C-4A0F-8440-773766AFCC64";
name = Light;
paths = (
{
closed = 1;
nodes = (
"503 81 OFFCURVE",
"419 -12 OFFCURVE",
"288 -12 CURVE SMOOTH",
"223 -12 OFFCURVE",
"169 12 OFFCURVE",
"132 56 CURVE SMOOTH",
"95 100 OFFCURVE",
"73 165 OFFCURVE",
"73 246 CURVE SMOOTH",
"73 327 OFFCURVE",
"95 392 OFFCURVE",
"132 436 CURVE SMOOTH",
"168 480 OFFCURVE",
"221 504 OFFCURVE",
"285 504 CURVE SMOOTH",
"350 504 OFFCURVE",
"401 477 OFFCURVE",
"436 429 CURVE",
"439 431 LINE",
"418 487 OFFCURVE",
"380 539 OFFCURVE",
"330 584 CURVE SMOOTH",
"280 628 OFFCURVE",
"219 666 OFFCURVE",
"155 698 CURVE",
"215 698 LINE",
"271 666 OFFCURVE",
"343 622 OFFCURVE",
"401 553 CURVE SMOOTH",
"459 484 OFFCURVE",
"503 388 OFFCURVE",
"503 253 CURVE SMOOTH"
);
},
{
closed = 1;
nodes = (
"340 19 OFFCURVE",
"384 37 OFFCURVE",
"416 72 CURVE SMOOTH",
"447 107 OFFCURVE",
"465 157 OFFCURVE",
"465 220 CURVE SMOOTH",
"465 272 LINE SMOOTH",
"465 335 OFFCURVE",
"447 385 OFFCURVE",
"416 420 CURVE SMOOTH",
"384 455 OFFCURVE",
"340 473 OFFCURVE",
"288 473 CURVE SMOOTH",
"236 473 OFFCURVE",
"192 455 OFFCURVE",
"161 420 CURVE SMOOTH",
"129 385 OFFCURVE",
"111 335 OFFCURVE",
"111 272 CURVE SMOOTH",
"111 220 LINE SMOOTH",
"111 157 OFFCURVE",
"129 107 OFFCURVE",
"161 72 CURVE SMOOTH",
"192 37 OFFCURVE",
"236 19 OFFCURVE",
"288 19 CURVE SMOOTH"
);
}
);
width = 580;
}
);
unicode = 2202;
},
{
glyphname = cent;
layers = (
{
layerId = "ACBC60AB-B62C-4A0F-8440-773766AFCC64";
name = Light;
paths = (
{
closed = 1;
nodes = (
"249 -114 LINE",
"249 -11 LINE",
"126 0 OFFCURVE",
"57 90 OFFCURVE",
"57 254 CURVE SMOOTH",
"57 418 OFFCURVE",
"126 510 OFFCURVE",
"249 519 CURVE",
"249 622 LINE",
"281 622 LINE",
"281 520 LINE",
"361 517 OFFCURVE",
"412 476 OFFCURVE",
"443 416 CURVE",
"414 401 LINE",
"385 457 OFFCURVE",
"345 486 OFFCURVE",
"280 489 CURVE",
"280 20 LINE",
"352 23 OFFCURVE",
"395 53 OFFCURVE",
"426 108 CURVE",
"452 90 LINE",
"420 30 OFFCURVE",
"365 -9 OFFCURVE",
"281 -12 CURVE",
"281 -114 LINE"
);
},
{
closed = 1;
nodes = (
"95 225 LINE SMOOTH",
"95 108 OFFCURVE",
"149 30 OFFCURVE",
"249 21 CURVE",
"249 487 LINE",
"149 479 OFFCURVE",
"95 400 OFFCURVE",
"95 283 CURVE SMOOTH"
);
}
);
width = 492;
}
);
unicode = 00A2;
},
{
glyphname = Euro;
layers = (
{
layerId = "ACBC60AB-B62C-4A0F-8440-773766AFCC64";
name = Light;
paths = (
{
closed = 1;
nodes = (
"520 49 OFFCURVE",
"444 -12 OFFCURVE",
"331 -12 CURVE SMOOTH",
"163 -12 OFFCURVE",
"67 109 OFFCURVE",
"67 349 CURVE SMOOTH",
"67 589 OFFCURVE",
"163 710 OFFCURVE",
"331 710 CURVE SMOOTH",
"436 710 OFFCURVE",
"513 653 OFFCURVE",
"552 565 CURVE",
"522 548 LINE",
"487 628 OFFCURVE",
"422 677 OFFCURVE",
"331 677 CURVE SMOOTH",
"206 677 OFFCURVE",
"126 598 OFFCURVE",
"109 442 CURVE",
"371 442 LINE",
"371 412 LINE",
"107 412 LINE",
"106 407 OFFCURVE",
"106 401 OFFCURVE",
"106 395 CURVE SMOOTH",
"106 389 OFFCURVE",
"106 383 OFFCURVE",
"106 376 CURVE SMOOTH",
"106 322 LINE SMOOTH",
"106 315 OFFCURVE",
"106 309 OFFCURVE",
"106 304 CURVE SMOOTH",
"106 299 OFFCURVE",
"106 293 OFFCURVE",
"107 286 CURVE",
"371 286 LINE",
"371 256 LINE",
"109 256 LINE",
"126 100 OFFCURVE",
"207 21 OFFCURVE",
"331 21 CURVE SMOOTH",
"428 21 OFFCURVE",
"495 74 OFFCURVE",
"527 158 CURVE",
"557 141 LINE"
);
}
);
width = 612;
}
);
unicode = 20AC;
},
{
glyphname = florin;
layers = (
{
layerId = "ACBC60AB-B62C-4A0F-8440-773766AFCC64";
name = Light;
paths = (
{
closed = 1;
nodes = (
"-7 -103 LINE",
"163 -103 LINE",
"204 309 LINE",
"38 309 LINE",
"42 340 LINE",
"207 340 LINE",
"238 648 LINE SMOOTH",
"241 681 OFFCURVE",
"260 698 OFFCURVE",
"293 698 CURVE SMOOTH",
"456 698 LINE",
"453 667 LINE",
"275 667 LINE",
"243 340 LINE",
"443 340 LINE",
"440 309 LINE",
"239 309 LINE",
"201 -84 LINE SMOOTH",
"197 -117 OFFCURVE",
"178 -134 OFFCURVE",
"145 -134 CURVE SMOOTH",
"-10 -134 LINE"
);
}
);
width = 484;
}
);
unicode = 0192;
},
{
glyphname = sterling;
layers = (
{
layerId = "ACBC60AB-B62C-4A0F-8440-773766AFCC64";
name = Light;
paths = (
{
closed = 1;
nodes = (
"83 0 LINE",
"83 43 LINE",
"139 82 OFFCURVE",
"173 144 OFFCURVE",
"173 224 CURVE SMOOTH",
"173 253 OFFCURVE",
"168 281 OFFCURVE",
"161 306 CURVE",
"68 306 LINE",
"68 337 LINE",
"152 337 LINE",
"143 364 OFFCURVE",
"133 391 OFFCURVE",
"124 418 CURVE SMOOTH",
"114 445 OFFCURVE",
"109 474 OFFCURVE",
"109 507 CURVE SMOOTH",
"109 570 OFFCURVE",
"131 620 OFFCURVE",
"168 656 CURVE SMOOTH",
"205 691 OFFCURVE",
"259 710 OFFCURVE",
"322 710 CURVE SMOOTH",
"411 710 OFFCURVE",
"478 671 OFFCURVE",
"525 593 CURVE",
"495 574 LINE",
"455 643 OFFCURVE",
"397 677 OFFCURVE",
"322 677 CURVE SMOOTH",
"217 677 OFFCURVE",
"147 616 OFFCURVE",
"147 505 CURVE SMOOTH",
"147 473 OFFCURVE",
"152 444 OFFCURVE",
"161 418 CURVE SMOOTH",
"170 391 OFFCURVE",
"180 364 OFFCURVE",
"189 337 CURVE",
"407 337 LINE",
"407 306 LINE",
"198 306 LINE",
"205 282 OFFCURVE",
"209 255 OFFCURVE",
"209 227 CURVE SMOOTH",
"209 147 OFFCURVE",
"176 79 OFFCURVE",
"120 36 CURVE",
"120 33 LINE",
"516 33 LINE",
"516 0 LINE"
);
}
);
width = 583;
}
);
unicode = 00A3;
},
{
glyphname = dollar;
layers = (
{
layerId = "ACBC60AB-B62C-4A0F-8440-773766AFCC64";
name = Light;
paths = (
{
closed = 1;
nodes = (
"269 -82 LINE",
"269 0 LINE",
"161 3 OFFCURVE",
"93 51 OFFCURVE",
"44 115 CURVE",
"72 138 LINE",
"119 77 OFFCURVE",
"176 36 OFFCURVE",
"269 32 CURVE",
"269 346 LINE",
"245 350 LINE SMOOTH",
"174 362 OFFCURVE",
"129 384 OFFCURVE",
"101 415 CURVE SMOOTH",
"73 446 OFFCURVE",
"62 484 OFFCURVE",
"62 527 CURVE SMOOTH",
"62 639 OFFCURVE",
"145 695 OFFCURVE",
"269 698 CURVE",
"269 780 LINE",
"298 780 LINE",
"298 698 LINE",
"390 693 OFFCURVE",
"452 655 OFFCURVE",
"491 599 CURVE",
"463 578 LINE",
"427 630 OFFCURVE",
"374 661 OFFCURVE",
"297 666 CURVE",
"297 374 LINE",
"319 370 LINE SMOOTH",
"390 357 OFFCURVE",
"435 333 OFFCURVE",
"463 302 CURVE SMOOTH",
"491 270 OFFCURVE",
"501 232 OFFCURVE",
"501 189 CURVE SMOOTH",
"501 70 OFFCURVE",
"423 7 OFFCURVE",
"298 0 CURVE",
"298 -82 LINE"
);
},
{
closed = 1;
nodes = (
"465 239 OFFCURVE",
"448 272 OFFCURVE",
"421 295 CURVE SMOOTH",
"393 318 OFFCURVE",
"355 330 OFFCURVE",
"312 338 CURVE SMOOTH",
"297 341 LINE",
"297 32 LINE",
"405 39 OFFCURVE",
"465 91 OFFCURVE",
"465 187 CURVE SMOOTH"
);
},
{
closed = 1;
nodes = (
"97 481 OFFCURVE",
"114 449 OFFCURVE",
"142 427 CURVE SMOOTH",
"169 405 OFFCURVE",
"207 392 OFFCURVE",
"250 383 CURVE SMOOTH",
"269 379 LINE",
"269 666 LINE",
"161 663 OFFCURVE",
"97 618 OFFCURVE",
"97 529 CURVE SMOOTH"
);
}
);
width = 559;
}
);
unicode = 0024;
},
{
glyphname = yen;
layers = (
{
layerId = "ACBC60AB-B62C-4A0F-8440-773766AFCC64";
name = Light;
paths = (
{
closed = 1;
nodes = (
"311 163 LINE",
"311 0 LINE",
"275 0 LINE",
"275 163 LINE",
"82 163 LINE",
"82 193 LINE",
"275 193 LINE",
"275 321 LINE",
"82 321 LINE",
"82 351 LINE",
"256 351 LINE",
"45 698 LINE",
"86 698 LINE",
"292 356 LINE",
"296 356 LINE",
"501 698 LINE",
"541 698 LINE",
"330 351 LINE",
"504 351 LINE",
"504 321 LINE",
"311 321 LINE",
"311 193 LINE",
"504 193 LINE",
"504 163 LINE"
);
}
);
width = 586;
}
);
unicode = 00A5;
},
{
glyphname = uni0E3F;
layers = (
{
layerId = "ACBC60AB-B62C-4A0F-8440-773766AFCC64";
name = Light;
paths = (
{
closed = 1;
nodes = (
"316 -82 LINE",
"285 -82 LINE",
"285 21 LINE",
"104 21 LINE",
"104 677 LINE",
"285 677 LINE",
"285 780 LINE",
"316 780 LINE",
"316 677 LINE",
"355 677 LINE SMOOTH",
"460 677 OFFCURVE",
"519 615 OFFCURVE",
"519 514 CURVE SMOOTH",
"519 430 OFFCURVE",
"479 387 OFFCURVE",
"418 370 CURVE",
"418 367 LINE",
"499 354 OFFCURVE",
"550 298 OFFCURVE",
"550 202 CURVE SMOOTH",
"550 147 OFFCURVE",
"534 103 OFFCURVE",
"504 71 CURVE SMOOTH",
"474 39 OFFCURVE",
"430 21 OFFCURVE",
"374 21 CURVE SMOOTH",
"316 21 LINE"
);
},
{
closed = 1;
nodes = (
"285 380 LINE",
"285 644 LINE",
"141 644 LINE",
"141 380 LINE"
);
},
{
closed = 1;
nodes = (
"316 380 LINE",
"355 380 LINE SMOOTH",
"440 380 OFFCURVE",
"480 431 OFFCURVE",
"480 492 CURVE SMOOTH",
"480 532 LINE SMOOTH",
"480 563 OFFCURVE",
"470 591 OFFCURVE",
"450 611 CURVE SMOOTH",
"429 631 OFFCURVE",
"398 644 OFFCURVE",
"355 644 CURVE SMOOTH",
"316 644 LINE"
);
},
{
closed = 1;
nodes = (
"285 54 LINE",
"285 348 LINE",
"141 348 LINE",
"141 54 LINE"
);
},
{
closed = 1;
nodes = (
"316 54 LINE",
"369 54 LINE SMOOTH",
"417 54 OFFCURVE",
"452 68 OFFCURVE",
"476 92 CURVE SMOOTH",
"499 115 OFFCURVE",
"511 146 OFFCURVE",
"511 181 CURVE SMOOTH",
"511 222 LINE SMOOTH",
"511 255 OFFCURVE",
"499 287 OFFCURVE",
"476 311 CURVE",
"452 334 OFFCURVE",
"417 348 OFFCURVE",
"369 348 CURVE SMOOTH",
"316 348 LINE"
);
}
);
width = 614;
}
);
unicode = 0E3F;
},
{
glyphname = uni20A1;
layers = (
{
layerId = "ACBC60AB-B62C-4A0F-8440-773766AFCC64";
name = Light;
paths = (
{
closed = 1;
nodes = (
"322 -2 LINE",
"285 -1 OFFCURVE",
"252 6 OFFCURVE",
"224 19 CURVE",
"212 -82 LINE",
"181 -82 LINE",
"194 32 LINE",
"111 80 OFFCURVE",
"67 184 OFFCURVE",
"67 349 CURVE SMOOTH",
"67 560 OFFCURVE",
"141 672 OFFCURVE",
"273 696 CURVE",
"283 780 LINE",
"314 780 LINE",
"304 699 LINE",
"311 700 OFFCURVE",
"317 700 OFFCURVE",
"320 700 CURVE SMOOTH",
"323 700 OFFCURVE",
"326 700 OFFCURVE",
"331 700 CURVE SMOOTH",
"358 700 OFFCURVE",
"381 696 OFFCURVE",
"404 689 CURVE",
"415 780 LINE",
"445 780 LINE",
"434 680 LINE",
"487 656 OFFCURVE",
"526 611 OFFCURVE",
"553 555 CURVE",
"523 538 LINE",
"502 585 OFFCURVE",
"470 623 OFFCURVE",
"429 644 CURVE",
"356 33 LINE",
"440 40 OFFCURVE",
"497 91 OFFCURVE",
"528 168 CURVE",
"558 151 LINE",
"523 66 OFFCURVE",
"453 6 OFFCURVE",
"353 -1 CURVE",
"343 -82 LINE",
"312 -82 LINE"
);
},
{
closed = 1;
nodes = (
"321 667 OFFCURVE",
"309 666 OFFCURVE",
"300 665 CURVE",
"228 54 LINE",
"257 39 OFFCURVE",
"289 31 OFFCURVE",
"326 31 CURVE",
"400 656 LINE",
"379 663 OFFCURVE",
"357 667 OFFCURVE",
"332 667 CURVE SMOOTH"
);
},
{
closed = 1;
nodes = (
"107 320 LINE SMOOTH",
"107 195 OFFCURVE",
"140 114 OFFCURVE",
"200 70 CURVE",
"269 660 LINE",
"166 636 OFFCURVE",
"107 546 OFFCURVE",
"107 379 CURVE SMOOTH"
);
}
);
width = 613;
}
);
unicode = 20A1;
},
{
glyphname = uni20A4;
layers = (
{
layerId = "ACBC60AB-B62C-4A0F-8440-773766AFCC64";
name = Light;
paths = (
{
closed = 1;
nodes = (
"516 0 LINE",
"83 0 LINE",
"83 43 LINE",
"139 82 OFFCURVE",
"173 146 OFFCURVE",
"173 222 CURVE SMOOTH",
"173 226 OFFCURVE",
"173 229 OFFCURVE",
"173 232 CURVE SMOOTH",
"173 234 OFFCURVE",
"173 237 OFFCURVE",
"172 242 CURVE",
"66 242 LINE",
"66 272 LINE",
"169 272 LINE",
"165 295 OFFCURVE",
"159 317 OFFCURVE",
"152 336 CURVE SMOOTH",
"145 355 OFFCURVE",
"137 375 OFFCURVE",
"130 396 CURVE",
"66 396 LINE",
"66 426 LINE",
"121 426 LINE",
"114 449 OFFCURVE",
"109 480 OFFCURVE",
"109 507 CURVE SMOOTH",
"109 570 OFFCURVE",
"131 620 OFFCURVE",
"168 656 CURVE SMOOTH",
"205 691 OFFCURVE",
"259 710 OFFCURVE",
"322 710 CURVE SMOOTH",
"411 710 OFFCURVE",
"478 671 OFFCURVE",
"525 593 CURVE",
"495 574 LINE",
"455 643 OFFCURVE",
"397 677 OFFCURVE",
"322 677 CURVE SMOOTH",
"217 677 OFFCURVE",
"147 616 OFFCURVE",
"147 505 CURVE SMOOTH",
"147 480 OFFCURVE",
"152 449 OFFCURVE",
"159 426 CURVE",
"422 426 LINE",
"422 396 LINE",
"168 396 LINE",
"184 353 OFFCURVE",
"197 319 OFFCURVE",
"206 272 CURVE",
"422 272 LINE",
"422 242 LINE",
"209 242 LINE",
"209 224 LINE SMOOTH",
"209 149 OFFCURVE",
"176 79 OFFCURVE",
"120 36 CURVE",
"120 33 LINE",
"516 33 LINE"
);
}
);
width = 583;
}
);
unicode = 20A4;
},
{
glyphname = uni20A6;
layers = (
{
layerId = "ACBC60AB-B62C-4A0F-8440-773766AFCC64";
name = Light;
paths = (
{
closed = 1;
nodes = (
"370 255 LINE",
"142 255 LINE",
"142 0 LINE",
"107 0 LINE",
"107 255 LINE",
"17 255 LINE",
"17 285 LINE",
"107 285 LINE",
"107 413 LINE",
"17 413 LINE",
"17 443 LINE",
"107 443 LINE",
"107 698 LINE",
"153 698 LINE",
"302 443 LINE",
"530 443 LINE",
"530 698 LINE",
"565 698 LINE",
"565 443 LINE",
"655 443 LINE",
"655 413 LINE",
"565 413 LINE",
"565 285 LINE",
"655 285 LINE",
"655 255 LINE",
"565 255 LINE",
"565 0 LINE",
"519 0 LINE"
);
},
{
closed = 1;
nodes = (
"392 284 LINE",
"530 284 LINE",
"530 414 LINE",
"317 414 LINE"
);
},
{
closed = 1;
nodes = (
"354 284 LINE",
"279 414 LINE",
"142 414 LINE",
"142 284 LINE"
);
},
{
closed = 1;
nodes = (
"530 50 LINE",
"530 255 LINE",
"409 255 LINE",
"527 50 LINE"
);
},
{
closed = 1;
nodes = (
"142 443 LINE",
"262 443 LINE",
"145 646 LINE",
"142 646 LINE"
);
}
);
width = 672;
}
);
unicode = 20A6;
},
{
glyphname = uni20A8;
layers = (
{
layerId = "ACBC60AB-B62C-4A0F-8440-773766AFCC64";
name = Light;
paths = (
{
closed = 1;
nodes = (
"681 38 OFFCURVE",
"627 -12 OFFCURVE",
"546 -12 CURVE SMOOTH",
"470 -12 OFFCURVE",
"420 15 OFFCURVE",
"385 83 CURVE SMOOTH",
"254 331 LINE",
"251 330 OFFCURVE",
"247 330 OFFCURVE",
"244 330 CURVE SMOOTH",
"240 330 OFFCURVE",
"236 330 OFFCURVE",
"232 330 CURVE SMOOTH",
"141 330 LINE",
"141 0 LINE",
"104 0 LINE",
"104 698 LINE",
"233 698 LINE SMOOTH",
"354 698 OFFCURVE",
"408 630 OFFCURVE",
"408 514 CURVE SMOOTH",
"408 418 OFFCURVE",
"371 356 OFFCURVE",
"291 337 CURVE",
"416 102 LINE SMOOTH",
"447 46 OFFCURVE",
"483 19 OFFCURVE",
"547 19 CURVE SMOOTH",
"606 19 OFFCURVE",
"646 56 OFFCURVE",
"646 109 CURVE SMOOTH",
"646 129 OFFCURVE",
"643 143 OFFCURVE",
"634 158 CURVE SMOOTH",
"625 173 OFFCURVE",
"609 187 OFFCURVE",
"584 207 CURVE SMOOTH",
"549 235 LINE SMOOTH",
"489 282 OFFCURVE",
"464 317 OFFCURVE",
"464 372 CURVE SMOOTH",
"464 397 OFFCURVE",
"472 423 OFFCURVE",
"491 443 CURVE SMOOTH",
"510 462 OFFCURVE",
"537 474 OFFCURVE",
"576 474 CURVE SMOOTH",
"615 474 OFFCURVE",
"647 463 OFFCURVE",
"674 440 CURVE",
"656 414 LINE",
"633 433 OFFCURVE",
"610 443 OFFCURVE",
"577 443 CURVE SMOOTH",
"525 443 OFFCURVE",
"499 412 OFFCURVE",
"499 372 CURVE SMOOTH",
"499 327 OFFCURVE",
"521 299 OFFCURVE",
"572 259 CURVE SMOOTH",
"606 232 LINE SMOOTH",
"634 209 OFFCURVE",
"652 192 OFFCURVE",
"664 173 CURVE SMOOTH",
"676 154 OFFCURVE",
"681 134 OFFCURVE",
"681 109 CURVE SMOOTH"
);
},
{
closed = 1;
nodes = (
"141 361 LINE",
"232 361 LINE SMOOTH",
"320 361 OFFCURVE",
"370 407 OFFCURVE",
"370 491 CURVE SMOOTH",
"370 536 LINE SMOOTH",
"370 620 OFFCURVE",
"320 666 OFFCURVE",
"232 666 CURVE SMOOTH",
"141 666 LINE"
);
}
);
width = 719;
}
);
unicode = 20A8;
},
{
glyphname = uni20A9;
layers = (
{
layerId = "ACBC60AB-B62C-4A0F-8440-773766AFCC64";
name = Light;
paths = (
{
closed = 1;
nodes = (
"568 252 LINE",
"342 252 LINE",
"273 0 LINE",
"228 0 LINE",
"163 251 LINE",
"40 251 LINE",
"40 281 LINE",
"155 281 LINE",
"122 410 LINE",
"40 410 LINE",
"40 440 LINE",
"114 440 LINE",
"47 698 LINE",
"84 698 LINE",
"151 439 LINE",
"360 439 LINE",
"432 698 LINE",
"480 698 LINE",
"550 439 LINE",
"762 439 LINE",
"829 698 LINE",
"866 698 LINE",
"798 440 LINE",
"872 440 LINE",
"872 410 LINE",
"790 410 LINE",
"756 281 LINE",
"872 281 LINE",
"872 251 LINE",
"748 251 LINE",
"682 0 LINE",
"637 0 LINE"
);
},
{
closed = 1;
nodes = (
"524 410 LINE",
"385 410 LINE",
"350 281 LINE",
"560 281 LINE"
);
},
{
closed = 1;
nodes = (
"558 410 LINE",
"593 281 LINE",
"721 281 LINE",
"755 410 LINE"
);
},
{
closed = 1;
nodes = (
"191 281 LINE",
"317 281 LINE",
"353 410 LINE",
"158 410 LINE"
);
},
{
closed = 1;
nodes = (
"393 439 LINE",
"516 439 LINE",
"456 659 LINE",
"454 659 LINE"
);
},
{
closed = 1;
nodes = (
"661 47 LINE",
"714 252 LINE",
"601 252 LINE",
"658 47 LINE"
);
},
{
closed = 1;
nodes = (
"253 47 LINE",
"309 252 LINE",
"198 252 LINE",
"251 47 LINE"
);
}
);
width = 912;
}
);
unicode = 20A9;
},
{
glyphname = uni20AA;
layers = (
{
layerId = "ACBC60AB-B62C-4A0F-8440-773766AFCC64";
name = Light;
paths = (
{
closed = 1;
nodes = (
"278 564 LINE",
"314 564 LINE",
"314 32 LINE",
"518 32 LINE SMOOTH",
"546 32 OFFCURVE",
"574 39 OFFCURVE",
"594 59 CURVE SMOOTH",
"614 79 OFFCURVE",
"627 111 OFFCURVE",
"627 162 CURVE SMOOTH",
"627 698 LINE",
"663 698 LINE",
"663 166 LINE SMOOTH",
"663 53 OFFCURVE",
"607 0 OFFCURVE",
"518 0 CURVE SMOOTH",
"278 0 LINE"
);
},
{
closed = 1;
nodes = (
"104 0 LINE",
"104 698 LINE",
"337 698 LINE SMOOTH",
"426 698 OFFCURVE",
"489 644 OFFCURVE",
"489 532 CURVE SMOOTH",
"489 134 LINE",
"453 134 LINE",
"453 536 LINE SMOOTH",
"453 587 OFFCURVE",
"438 619 OFFCURVE",
"416 639 CURVE SMOOTH",
"394 659 OFFCURVE",
"365 666 OFFCURVE",
"337 666 CURVE SMOOTH",
"140 666 LINE",
"140 0 LINE"
);
}
);
width = 767;
}
);
unicode = 20AA;
},
{
glyphname = uni20AB;
layers = (
{
layerId = "ACBC60AB-B62C-4A0F-8440-773766AFCC64";
name = Light;
paths = (
{
closed = 1;
nodes = (
"420 189 LINE",
"417 189 LINE",
"396 145 OFFCURVE",
"345 106 OFFCURVE",
"264 106 CURVE SMOOTH",
"141 106 OFFCURVE",
"68 183 OFFCURVE",
"68 328 CURVE SMOOTH",
"68 475 OFFCURVE",
"141 551 OFFCURVE",
"264 551 CURVE SMOOTH",
"345 551 OFFCURVE",
"396 511 OFFCURVE",
"417 467 CURVE",
"420 467 LINE",
"420 639 LINE",
"259 639 LINE",
"259 668 LINE",
"420 668 LINE",
"420 740 LINE",
"455 740 LINE",
"455 668 LINE",
"525 668 LINE",
"525 639 LINE",
"455 639 LINE",
"455 117 LINE",
"420 117 LINE"
);
},
{
closed = 1;
nodes = (
"312 136 OFFCURVE",
"349 149 OFFCURVE",
"376 170 CURVE SMOOTH",
"403 191 OFFCURVE",
"420 221 OFFCURVE",
"420 257 CURVE SMOOTH",
"420 399 LINE SMOOTH",
"420 435 OFFCURVE",
"403 466 OFFCURVE",
"376 487 CURVE SMOOTH",
"349 508 OFFCURVE",
"312 521 OFFCURVE",
"272 521 CURVE SMOOTH",
"168 521 OFFCURVE",
"106 457 OFFCURVE",
"106 356 CURVE SMOOTH",
"106 301 LINE SMOOTH",
"106 201 OFFCURVE",
"168 136 OFFCURVE",
"272 136 CURVE SMOOTH"
);
},
{
closed = 1;
nodes = (
"68 0 LINE",
"68 31 LINE",
"488 31 LINE",
"488 0 LINE"
);
}
);
width = 566;
}
);
unicode = 20AB;
},
{
glyphname = uni20AD;
layers = (
{
layerId = "ACBC60AB-B62C-4A0F-8440-773766AFCC64";
name = Light;
paths = (
{
closed = 1;
nodes = (
"144 0 LINE",
"107 0 LINE",
"107 351 LINE",
"17 351 LINE",
"17 382 LINE",
"107 382 LINE",
"107 698 LINE",
"144 698 LINE",
"144 382 LINE",
"236 382 LINE",
"491 698 LINE",
"534 698 LINE",
"278 382 LINE",
"519 382 LINE",
"519 351 LINE",
"280 351 LINE",
"550 0 LINE",
"505 0 LINE",
"236 351 LINE",
"144 351 LINE"
);
}
);
width = 580;
}
);
unicode = 20AD;
},
{
glyphname = uni20AE;
layers = (
{
layerId = "ACBC60AB-B62C-4A0F-8440-773766AFCC64";
name = Light;
paths = (
{
closed = 1;
nodes = (
"312 244 LINE",
"312 0 LINE",
"275 0 LINE",
"275 228 LINE",
"125 155 LINE",
"125 188 LINE",
"275 261 LINE",
"275 379 LINE",
"125 306 LINE",
"125 339 LINE",
"275 412 LINE",
"275 665 LINE",
"30 665 LINE",
"30 698 LINE",
"557 698 LINE",
"557 665 LINE",
"312 665 LINE",
"312 428 LINE",
"462 502 LINE",
"462 469 LINE",
"312 396 LINE",
"312 278 LINE",
"462 351 LINE",
"462 318 LINE"
);
}
);
width = 587;
}
);
unicode = 20AE;
},
{
glyphname = uni20B1;
layers = (
{
layerId = "ACBC60AB-B62C-4A0F-8440-773766AFCC64";
name = Light;
paths = (
{
closed = 1;
nodes = (
"144 0 LINE",
"107 0 LINE",
"107 379 LINE",
"17 379 LINE",
"17 409 LINE",
"107 409 LINE",
"107 532 LINE",
"17 532 LINE",
"17 562 LINE",
"107 562 LINE",
"107 698 LINE",
"332 698 LINE SMOOTH",
"428 698 OFFCURVE",
"485 646 OFFCURVE",
"504 562 CURVE",
"592 562 LINE",
"592 532 LINE",
"508 532 LINE",
"508 470 LINE",
"508 409 LINE",
"592 409 LINE",
"592 379 LINE",
"504 379 LINE",
"485 294 OFFCURVE",
"428 242 OFFCURVE",
"332 242 CURVE SMOOTH",
"144 242 LINE"
);
},
{
closed = 1;
nodes = (
"144 562 LINE",
"468 562 LINE",
"456 621 OFFCURVE",
"412 665 OFFCURVE",
"332 665 CURVE SMOOTH",
"144 665 LINE"
);
},
{
closed = 1;
nodes = (
"471 409 LINE",
"471 532 LINE",
"144 532 LINE",
"144 409 LINE"
);
},
{
closed = 1;
nodes = (
"332 275 LINE SMOOTH",
"412 275 OFFCURVE",
"456 320 OFFCURVE",
"468 379 CURVE",
"144 379 LINE",
"144 275 LINE"
);
}
);
width = 608;
}
);
unicode = 20B1;
},
{
glyphname = uni20B2;
layers = (
{
layerId = "ACBC60AB-B62C-4A0F-8440-773766AFCC64";
name = Light;
paths = (
{
closed = 1;
nodes = (
"244 -82 LINE",
"260 6 LINE",
"136 37 OFFCURVE",
"67 150 OFFCURVE",
"67 350 CURVE SMOOTH",
"67 583 OFFCURVE",
"162 700 OFFCURVE",
"333 700 CURVE SMOOTH",
"345 700 OFFCURVE",
"357 699 OFFCURVE",
"368 697 CURVE",
"382 780 LINE",
"415 780 LINE",
"401 692 LINE",
"473 673 OFFCURVE",
"529 628 OFFCURVE",
"558 561 CURVE",
"528 544 LINE",
"503 604 OFFCURVE",
"456 643 OFFCURVE",
"395 659 CURVE",
"344 338 LINE",
"575 338 LINE",
"575 219 LINE SMOOTH",
"575 147 OFFCURVE",
"549 91 OFFCURVE",
"506 54 CURVE SMOOTH",
"463 17 OFFCURVE",
"403 -2 OFFCURVE",
"338 -2 CURVE SMOOTH",
"321 -2 OFFCURVE",
"306 -1 OFFCURVE",
"291 1 CURVE",
"277 -82 LINE"
);
},
{
closed = 1;
nodes = (
"107 320 LINE SMOOTH",
"107 163 OFFCURVE",
"165 68 OFFCURVE",
"266 40 CURVE",
"363 665 LINE",
"354 666 OFFCURVE",
"344 667 OFFCURVE",
"333 667 CURVE SMOOTH",
"192 667 OFFCURVE",
"107 568 OFFCURVE",
"107 379 CURVE SMOOTH"
);
},
{
closed = 1;
nodes = (
"339 306 LINE",
"296 34 LINE",
"311 32 OFFCURVE",
"326 31 OFFCURVE",
"341 31 CURVE SMOOTH",
"397 31 OFFCURVE",
"447 46 OFFCURVE",
"482 78 CURVE SMOOTH",
"517 109 OFFCURVE",
"538 154 OFFCURVE",
"538 214 CURVE SMOOTH",
"538 306 LINE"
);
}
);
width = 652;
}
);
unicode = 20B2;
},
{
glyphname = uni20B4;
layers = (
{
layerId = "ACBC60AB-B62C-4A0F-8440-773766AFCC64";
name = Light;
paths = (
{
closed = 1;
nodes = (
"199 -12 OFFCURVE",
"121 55 OFFCURVE",
"121 163 CURVE SMOOTH",
"121 207 OFFCURVE",
"136 238 OFFCURVE",
"155 265 CURVE",
"53 265 LINE",
"53 295 LINE",
"180 295 LINE",
"394 423 LINE",
"53 423 LINE",
"53 453 LINE",
"431 453 LINE",
"452 478 OFFCURVE",
"460 505 OFFCURVE",
"460 544 CURVE SMOOTH",
"460 628 OFFCURVE",
"403 677 OFFCURVE",
"310 677 CURVE SMOOTH",
"253 677 OFFCURVE",
"198 655 OFFCURVE",
"147 599 CURVE",
"122 623 LINE",
"178 684 OFFCURVE",
"245 710 OFFCURVE",
"313 710 CURVE SMOOTH",
"422 710 OFFCURVE",
"497 649 OFFCURVE",
"497 545 CURVE SMOOTH",
"497 505 OFFCURVE",
"487 476 OFFCURVE",
"470 453 CURVE",
"569 453 LINE",
"569 423 LINE",
"448 423 LINE",
"234 295 LINE",
"569 295 LINE",
"569 265 LINE",
"196 265 LINE",
"172 237 OFFCURVE",
"158 207 OFFCURVE",
"158 164 CURVE SMOOTH",
"158 72 OFFCURVE",
"219 21 OFFCURVE",
"320 21 CURVE SMOOTH",
"381 21 OFFCURVE",
"440 46 OFFCURVE",
"500 110 CURVE",
"524 86 LINE",
"464 18 OFFCURVE",
"391 -12 OFFCURVE",
"319 -12 CURVE SMOOTH"
);
}
);
width = 622;
}
);
unicode = 20B4;
},
{
glyphname = uni20B5;
layers = (
{
layerId = "ACBC60AB-B62C-4A0F-8440-773766AFCC64";
name = Light;
paths = (
{
closed = 1;
nodes = (
"237 -82 LINE",
"253 8 LINE",
"133 39 OFFCURVE",
"67 150 OFFCURVE",
"67 349 CURVE SMOOTH",
"67 586 OFFCURVE",
"164 700 OFFCURVE",
"331 700 CURVE SMOOTH",
"342 700 OFFCURVE",
"352 699 OFFCURVE",
"361 698 CURVE",
"375 780 LINE",
"407 780 LINE",
"393 693 LINE",
"468 674 OFFCURVE",
"522 624 OFFCURVE",
"553 555 CURVE",
"522 539 LINE",
"495 600 OFFCURVE",
"450 644 OFFCURVE",
"387 660 CURVE",
"290 34 LINE",
"303 32 OFFCURVE",
"316 31 OFFCURVE",
"331 31 CURVE SMOOTH",
"428 31 OFFCURVE",
"495 84 OFFCURVE",
"528 168 CURVE",
"558 152 LINE",
"519 60 OFFCURVE",
"444 -2 OFFCURVE",
"331 -2 CURVE SMOOTH",
"315 -2 OFFCURVE",
"299 -1 OFFCURVE",
"284 2 CURVE",
"270 -82 LINE"
);
},
{
closed = 1;
nodes = (
"107 320 LINE SMOOTH",
"107 159 OFFCURVE",
"163 70 OFFCURVE",
"259 41 CURVE",
"356 666 LINE",
"353 666 OFFCURVE",
"349 666 OFFCURVE",
"344 667 CURVE",
"339 667 OFFCURVE",
"335 667 OFFCURVE",
"331 667 CURVE SMOOTH",
"190 667 OFFCURVE",
"107 575 OFFCURVE",
"107 379 CURVE SMOOTH"
);
}
);
width = 613;
}
);
unicode = 20B5;
},
{
glyphname = uni20B8;
layers = (
{
layerId = "ACBC60AB-B62C-4A0F-8440-773766AFCC64";
name = Light;
paths = (
{
closed = 1;
nodes = (
"38 667 LINE",
"38 698 LINE",
"565 698 LINE",
"565 667 LINE"
);
},
{
closed = 1;
nodes = (
"320 515 LINE",
"320 0 LINE",
"283 0 LINE",
"283 515 LINE",
"38 515 LINE",
"38 546 LINE",
"565 546 LINE",
"565 515 LINE"
);
}
);
width = 603;
}
);
unicode = 20B8;
},
{
glyphname = uni20B9;
layers = (
{
layerId = "ACBC60AB-B62C-4A0F-8440-773766AFCC64";
name = Light;
paths = (
{
closed = 1;
nodes = (
"465 0 LINE",
"227 316 LINE",
"66 316 LINE",
"66 348 LINE",
"289 348 LINE SMOOTH",
"384 348 OFFCURVE",
"431 406 OFFCURVE",
"431 489 CURVE SMOOTH",
"431 498 LINE",
"66 498 LINE",
"66 528 LINE",
"431 528 LINE",
"430 608 OFFCURVE",
"379 666 OFFCURVE",
"290 666 CURVE SMOOTH",
"66 666 LINE",
"66 698 LINE",
"578 698 LINE",
"578 666 LINE",
"381 666 LINE",
"381 664 LINE",
"428 645 OFFCURVE",
"462 605 OFFCURVE",
"467 528 CURVE",
"578 528 LINE",
"578 498 LINE",
"467 498 LINE",
"467 493 LINE SMOOTH",
"464 386 OFFCURVE",
"400 316 OFFCURVE",
"287 316 CURVE SMOOTH",
"270 316 LINE",
"510 0 LINE"
);
}
);
width = 610;
}
);
unicode = 20B9;
},
{
glyphname = uni20BA;
layers = (
{
layerId = "ACBC60AB-B62C-4A0F-8440-773766AFCC64";
name = Light;
paths = (
{
closed = 1;
nodes = (
"144 291 LINE",
"21 232 LINE",
"21 265 LINE",
"144 324 LINE",
"144 442 LINE",
"21 383 LINE",
"21 416 LINE",
"144 475 LINE",
"144 698 LINE",
"181 698 LINE",
"181 491 LINE",
"390 593 LINE",
"390 560 LINE",
"181 459 LINE",
"181 340 LINE",
"390 442 LINE",
"390 409 LINE",
"181 307 LINE",
"181 33 LINE",
"309 33 LINE SMOOTH",
"377 33 OFFCURVE",
"430 62 OFFCURVE",
"466 111 CURVE SMOOTH",
"502 159 OFFCURVE",
"521 226 OFFCURVE",
"521 305 CURVE",
"557 305 LINE",
"557 218 OFFCURVE",
"535 143 OFFCURVE",
"494 88 CURVE SMOOTH",
"453 33 OFFCURVE",
"392 0 OFFCURVE",
"312 0 CURVE SMOOTH",
"144 0 LINE"
);
}
);
width = 610;
}
);
unicode = 20BA;
},
{
glyphname = uni20BD;
layers = (
{
layerId = "ACBC60AB-B62C-4A0F-8440-773766AFCC64";
name = Light;
paths = (
{
closed = 1;
nodes = (
"144 162 LINE",
"144 0 LINE",
"107 0 LINE",
"107 162 LINE",
"17 162 LINE",
"17 193 LINE",
"107 193 LINE",
"107 316 LINE",
"17 316 LINE",
"17 348 LINE",
"107 348 LINE",
"107 698 LINE",
"377 698 LINE SMOOTH",
"494 698 OFFCURVE",
"556 624 OFFCURVE",
"556 507 CURVE SMOOTH",
"556 390 OFFCURVE",
"494 316 OFFCURVE",
"377 316 CURVE SMOOTH",
"144 316 LINE",
"144 193 LINE",
"397 193 LINE",
"397 162 LINE"
);
},
{
closed = 1;
nodes = (
"144 348 LINE",
"377 348 LINE SMOOTH",
"424 348 OFFCURVE",
"458 364 OFFCURVE",
"482 389 CURVE SMOOTH",
"505 413 OFFCURVE",
"516 448 OFFCURVE",
"516 484 CURVE SMOOTH",
"516 529 LINE SMOOTH",
"516 565 OFFCURVE",
"505 600 OFFCURVE",
"482 625 CURVE",
"458 649 OFFCURVE",
"424 665 OFFCURVE",
"377 665 CURVE SMOOTH",
"144 665 LINE"
);
}
);
width = 599;
}
);
unicode = 20BD;
},
{
glyphname = uni20BF;
layers = (
{
layerId = "ACBC60AB-B62C-4A0F-8440-773766AFCC64";
name = Light;
paths = (
{
closed = 1;
nodes = (
"343 21 LINE",
"248 21 LINE",
"248 -82 LINE",
"216 -82 LINE",
"216 21 LINE",
"104 21 LINE",
"104 677 LINE",
"216 677 LINE",
"216 780 LINE",
"248 780 LINE",
"248 677 LINE",
"343 677 LINE",
"343 780 LINE",
"375 780 LINE",
"375 676 LINE",
"467 669 OFFCURVE",
"519 609 OFFCURVE",
"519 514 CURVE SMOOTH",
"519 430 OFFCURVE",
"479 387 OFFCURVE",
"418 370 CURVE",
"418 367 LINE",
"499 354 OFFCURVE",
"550 298 OFFCURVE",
"550 202 CURVE SMOOTH",
"550 94 OFFCURVE",
"486 21 OFFCURVE",
"375 21 CURVE",
"375 -82 LINE",
"343 -82 LINE"
);
},
{
closed = 1;
nodes = (
"141 380 LINE",
"355 380 LINE SMOOTH",
"440 380 OFFCURVE",
"480 431 OFFCURVE",
"480 492 CURVE SMOOTH",
"480 532 LINE SMOOTH",
"480 563 OFFCURVE",
"470 591 OFFCURVE",
"450 611 CURVE SMOOTH",
"429 631 OFFCURVE",
"398 644 OFFCURVE",
"355 644 CURVE SMOOTH",
"141 644 LINE"
);
},
{
closed = 1;
nodes = (
"141 54 LINE",
"369 54 LINE SMOOTH",
"417 54 OFFCURVE",
"452 68 OFFCURVE",
"476 92 CURVE SMOOTH",
"499 115 OFFCURVE",
"511 146 OFFCURVE",
"511 181 CURVE SMOOTH",
"511 222 LINE SMOOTH",
"511 255 OFFCURVE",
"499 287 OFFCURVE",
"476 311 CURVE",
"452 334 OFFCURVE",
"417 348 OFFCURVE",
"369 348 CURVE SMOOTH",
"141 348 LINE"
);
}
);
width = 614;
}
);
unicode = 20BF;
},
{
glyphname = fi;
layers = (
{
layerId = "ACBC60AB-B62C-4A0F-8440-773766AFCC64";
name = Light;
paths = (
{
closed = 1;
nodes = (
"121 477 LINE",
"30 477 LINE",
"30 508 LINE",
"121 508 LINE",
"121 689 LINE SMOOTH",
"121 723 OFFCURVE",
"137 740 OFFCURVE",
"170 740 CURVE SMOOTH",
"270 740 LINE",
"270 709 LINE",
"156 709 LINE",
"156 508 LINE",
"423 508 LINE",
"423 0 LINE",
"388 0 LINE",
"388 477 LINE",
"156 477 LINE",
"156 0 LINE",
"121 0 LINE"
);
},
{
closed = 1;
nodes = (
"385 665 OFFCURVE",
"376 676 OFFCURVE",
"376 691 CURVE SMOOTH",
"376 700 LINE SMOOTH",
"376 715 OFFCURVE",
"384 726 OFFCURVE",
"405 726 CURVE SMOOTH",
"426 726 OFFCURVE",
"435 715 OFFCURVE",
"435 700 CURVE SMOOTH",
"435 691 LINE SMOOTH",
"435 676 OFFCURVE",
"427 665 OFFCURVE",
"406 665 CURVE SMOOTH"
);
}
);
width = 524;
}
);
leftKerningGroup = f;
rightKerningGroup = i;
unicode = FB01;
},
{
glyphname = fl;
lastChange = "2018-11-02 14:44:12 +0000";
layers = (
{
layerId = "ACBC60AB-B62C-4A0F-8440-773766AFCC64";
name = Light;
paths = (
{
closed = 1;
nodes = (
"121 477 LINE",
"30 477 LINE",
"30 508 LINE",
"121 508 LINE",
"121 689 LINE SMOOTH",
"121 723 OFFCURVE",
"137 740 OFFCURVE",
"170 740 CURVE SMOOTH",
"270 740 LINE",
"270 709 LINE",
"156 709 LINE",
"156 508 LINE",
"270 508 LINE",
"270 477 LINE",
"156 477 LINE",
"156 0 LINE",
"121 0 LINE"
);
},
{
closed = 1;
nodes = (
"437 0 LINE SMOOTH",
"408 0 OFFCURVE",
"394 14 OFFCURVE",
"394 42 CURVE SMOOTH",
"394 740 LINE",
"429 740 LINE",
"429 31 LINE",
"512 31 LINE",
"512 0 LINE"
);
}
);
width = 549;
}
);
leftKerningGroup = f;
rightKerningGroup = l;
unicode = FB02;
},
{
glyphname = aacute;
lastChange = "2018-11-02 02:20:33 +0000";
layers = (
{
layerId = "ACBC60AB-B62C-4A0F-8440-773766AFCC64";
name = Light;
paths = (
{
closed = 1;
nodes = (
"239 587 LINE",
"215 600 LINE",
"320 758 LINE",
"352 740 LINE"
);
},
{
closed = 1;
nodes = (
"154 520 OFFCURVE",
"103 479 OFFCURVE",
"75 416 CURVE",
"100 399 LINE",
"127 459 OFFCURVE",
"177 489 OFFCURVE",
"248 489 CURVE SMOOTH",
"340 489 OFFCURVE",
"387 444 OFFCURVE",
"387 348 CURVE SMOOTH",
"387 280 LINE",
"254 280 LINE SMOOTH",
"181 280 OFFCURVE",
"132 266 OFFCURVE",
"101 240 CURVE SMOOTH",
"69 214 OFFCURVE",
"57 177 OFFCURVE",
"57 133 CURVE SMOOTH",
"57 41 OFFCURVE",
"117 -12 OFFCURVE",
"222 -12 CURVE SMOOTH",
"310 -12 OFFCURVE",
"360 27 OFFCURVE",
"384 79 CURVE",
"388 79 LINE",
"388 0 LINE",
"422 0 LINE",
"422 352 LINE SMOOTH",
"422 460 OFFCURVE",
"362 520 OFFCURVE",
"249 520 CURVE SMOOTH"
);
},
{
closed = 1;
nodes = (
"387 105 OFFCURVE",
"368 73 OFFCURVE",
"339 52 CURVE SMOOTH",
"310 31 OFFCURVE",
"269 19 OFFCURVE",
"225 19 CURVE SMOOTH",
"148 19 OFFCURVE",
"94 53 OFFCURVE",
"94 120 CURVE SMOOTH",
"94 148 LINE SMOOTH",
"94 211 OFFCURVE",
"142 252 OFFCURVE",
"254 252 CURVE SMOOTH",
"387 252 LINE",
"387 148 LINE SMOOTH"
);
}
);
width = 522;
}
);
leftKerningGroup = a;
rightKerningGroup = a;
unicode = 00E1;
},
{
glyphname = abreve;
lastChange = "2018-11-02 02:20:37 +0000";
layers = (
{
layerId = "ACBC60AB-B62C-4A0F-8440-773766AFCC64";
name = Light;
paths = (
{
closed = 1;
nodes = (
"212 604 OFFCURVE",
"186 617 OFFCURVE",
"166 638 CURVE SMOOTH",
"146 658 OFFCURVE",
"130 688 OFFCURVE",
"114 723 CURVE",
"137 733 LINE",
"154 705 LINE SMOOTH",
"170 677 OFFCURVE",
"182 660 OFFCURVE",
"197 649 CURVE",
"212 637 OFFCURVE",
"228 633 OFFCURVE",
"251 633 CURVE SMOOTH",
"296 633 OFFCURVE",
"317 650 OFFCURVE",
"348 705 CURVE SMOOTH",
"365 733 LINE",
"388 723 LINE",
"372 688 OFFCURVE",
"356 658 OFFCURVE",
"336 638 CURVE SMOOTH",
"316 617 OFFCURVE",
"290 604 OFFCURVE",
"251 604 CURVE SMOOTH"
);
},
{
closed = 1;
nodes = (
"154 520 OFFCURVE",
"103 479 OFFCURVE",
"75 416 CURVE",
"100 399 LINE",
"127 459 OFFCURVE",
"177 489 OFFCURVE",
"248 489 CURVE SMOOTH",
"340 489 OFFCURVE",
"387 444 OFFCURVE",
"387 348 CURVE SMOOTH",
"387 280 LINE",
"254 280 LINE SMOOTH",
"181 280 OFFCURVE",
"132 266 OFFCURVE",
"101 240 CURVE SMOOTH",
"69 214 OFFCURVE",
"57 177 OFFCURVE",
"57 133 CURVE SMOOTH",
"57 41 OFFCURVE",
"117 -12 OFFCURVE",
"222 -12 CURVE SMOOTH",
"310 -12 OFFCURVE",
"360 27 OFFCURVE",
"384 79 CURVE",
"388 79 LINE",
"388 0 LINE",
"422 0 LINE",
"422 352 LINE SMOOTH",
"422 460 OFFCURVE",
"362 520 OFFCURVE",
"249 520 CURVE SMOOTH"
);
},
{
closed = 1;
nodes = (
"387 105 OFFCURVE",
"368 73 OFFCURVE",
"339 52 CURVE SMOOTH",
"310 31 OFFCURVE",
"269 19 OFFCURVE",
"225 19 CURVE SMOOTH",
"148 19 OFFCURVE",
"94 53 OFFCURVE",
"94 120 CURVE SMOOTH",
"94 148 LINE SMOOTH",
"94 211 OFFCURVE",
"142 252 OFFCURVE",
"254 252 CURVE SMOOTH",
"387 252 LINE",
"387 148 LINE SMOOTH"
);
}
);
width = 522;
}
);
leftKerningGroup = a;
rightKerningGroup = a;
unicode = 0103;
},
{
glyphname = acircumflex;
lastChange = "2018-11-02 02:20:49 +0000";
layers = (
{
layerId = "ACBC60AB-B62C-4A0F-8440-773766AFCC64";
name = Light;
paths = (
{
closed = 1;
nodes = (
"272 748 LINE",
"396 613 LINE",
"375 597 LINE",
"251 722 LINE",
"127 597 LINE",
"106 613 LINE",
"230 748 LINE"
);
},
{
closed = 1;
nodes = (
"154 520 OFFCURVE",
"103 479 OFFCURVE",
"75 416 CURVE",
"100 399 LINE",
"127 459 OFFCURVE",
"177 489 OFFCURVE",
"248 489 CURVE SMOOTH",
"340 489 OFFCURVE",
"387 444 OFFCURVE",
"387 348 CURVE SMOOTH",
"387 280 LINE",
"254 280 LINE SMOOTH",
"181 280 OFFCURVE",
"132 266 OFFCURVE",
"101 240 CURVE SMOOTH",
"69 214 OFFCURVE",
"57 177 OFFCURVE",
"57 133 CURVE SMOOTH",
"57 41 OFFCURVE",
"117 -12 OFFCURVE",
"222 -12 CURVE SMOOTH",
"310 -12 OFFCURVE",
"360 27 OFFCURVE",
"384 79 CURVE",
"388 79 LINE",
"388 0 LINE",
"422 0 LINE",
"422 352 LINE SMOOTH",
"422 460 OFFCURVE",
"362 520 OFFCURVE",
"249 520 CURVE SMOOTH"
);
},
{
closed = 1;
nodes = (
"387 105 OFFCURVE",
"368 73 OFFCURVE",
"339 52 CURVE SMOOTH",
"310 31 OFFCURVE",
"269 19 OFFCURVE",
"225 19 CURVE SMOOTH",
"148 19 OFFCURVE",
"94 53 OFFCURVE",
"94 120 CURVE SMOOTH",
"94 148 LINE SMOOTH",
"94 211 OFFCURVE",
"142 252 OFFCURVE",
"254 252 CURVE SMOOTH",
"387 252 LINE",
"387 148 LINE SMOOTH"
);
}
);
width = 522;
}
);
leftKerningGroup = a;
rightKerningGroup = a;
unicode = 00E2;
},
{
glyphname = adieresis;
lastChange = "2018-11-02 02:20:53 +0000";
layers = (
{
layerId = "ACBC60AB-B62C-4A0F-8440-773766AFCC64";
name = Light;
paths = (
{
closed = 1;
nodes = (
"137 636 OFFCURVE",
"130 648 OFFCURVE",
"130 663 CURVE SMOOTH",
"130 671 LINE SMOOTH",
"130 686 OFFCURVE",
"137 698 OFFCURVE",
"160 698 CURVE SMOOTH",
"181 698 OFFCURVE",
"189 686 OFFCURVE",
"189 671 CURVE SMOOTH",
"189 663 LINE SMOOTH",
"189 648 OFFCURVE",
"181 636 OFFCURVE",
"160 636 CURVE SMOOTH"
);
},
{
closed = 1;
nodes = (
"321 636 OFFCURVE",
"313 648 OFFCURVE",
"313 663 CURVE SMOOTH",
"313 671 LINE SMOOTH",
"313 686 OFFCURVE",
"321 698 OFFCURVE",
"342 698 CURVE SMOOTH",
"365 698 OFFCURVE",
"372 686 OFFCURVE",
"372 671 CURVE SMOOTH",
"372 663 LINE SMOOTH",
"372 648 OFFCURVE",
"365 636 OFFCURVE",
"342 636 CURVE SMOOTH"
);
},
{
closed = 1;
nodes = (
"154 520 OFFCURVE",
"103 479 OFFCURVE",
"75 416 CURVE",
"100 399 LINE",
"127 459 OFFCURVE",
"177 489 OFFCURVE",
"248 489 CURVE SMOOTH",
"340 489 OFFCURVE",
"387 444 OFFCURVE",
"387 348 CURVE SMOOTH",
"387 280 LINE",
"254 280 LINE SMOOTH",
"181 280 OFFCURVE",
"132 266 OFFCURVE",
"101 240 CURVE SMOOTH",
"69 214 OFFCURVE",
"57 177 OFFCURVE",
"57 133 CURVE SMOOTH",
"57 41 OFFCURVE",
"117 -12 OFFCURVE",
"222 -12 CURVE SMOOTH",
"310 -12 OFFCURVE",
"360 27 OFFCURVE",
"384 79 CURVE",
"388 79 LINE",
"388 0 LINE",
"422 0 LINE",
"422 352 LINE SMOOTH",
"422 460 OFFCURVE",
"362 520 OFFCURVE",
"249 520 CURVE SMOOTH"
);
},
{
closed = 1;
nodes = (
"387 105 OFFCURVE",
"368 73 OFFCURVE",
"339 52 CURVE SMOOTH",
"310 31 OFFCURVE",
"269 19 OFFCURVE",
"225 19 CURVE SMOOTH",
"148 19 OFFCURVE",
"94 53 OFFCURVE",
"94 120 CURVE SMOOTH",
"94 148 LINE SMOOTH",
"94 211 OFFCURVE",
"142 252 OFFCURVE",
"254 252 CURVE SMOOTH",
"387 252 LINE",
"387 148 LINE SMOOTH"
);
}
);
width = 522;
}
);
leftKerningGroup = a;
rightKerningGroup = a;
unicode = 00E4;
},
{
glyphname = uni1EA1;
lastChange = "2018-11-02 02:20:57 +0000";
layers = (
{
layerId = "ACBC60AB-B62C-4A0F-8440-773766AFCC64";
name = Light;
paths = (
{
closed = 1;
nodes = (
"208 -142 OFFCURVE",
"199 -130 OFFCURVE",
"199 -115 CURVE SMOOTH",
"199 -107 LINE SMOOTH",
"199 -92 OFFCURVE",
"208 -80 OFFCURVE",
"229 -80 CURVE SMOOTH",
"250 -80 OFFCURVE",
"259 -92 OFFCURVE",
"259 -107 CURVE SMOOTH",
"259 -115 LINE SMOOTH",
"259 -130 OFFCURVE",
"250 -142 OFFCURVE",
"229 -142 CURVE SMOOTH"
);
},
{
closed = 1;
nodes = (
"154 520 OFFCURVE",
"103 479 OFFCURVE",
"75 416 CURVE",
"100 399 LINE",
"127 459 OFFCURVE",
"177 489 OFFCURVE",
"248 489 CURVE SMOOTH",
"340 489 OFFCURVE",
"387 444 OFFCURVE",
"387 348 CURVE SMOOTH",
"387 280 LINE",
"254 280 LINE SMOOTH",
"181 280 OFFCURVE",
"132 266 OFFCURVE",
"101 240 CURVE SMOOTH",
"69 214 OFFCURVE",
"57 177 OFFCURVE",
"57 133 CURVE SMOOTH",
"57 41 OFFCURVE",
"117 -12 OFFCURVE",
"222 -12 CURVE SMOOTH",
"310 -12 OFFCURVE",
"360 27 OFFCURVE",
"384 79 CURVE",
"388 79 LINE",
"388 0 LINE",
"422 0 LINE",
"422 352 LINE SMOOTH",
"422 460 OFFCURVE",
"362 520 OFFCURVE",
"249 520 CURVE SMOOTH"
);
},
{
closed = 1;
nodes = (
"387 105 OFFCURVE",
"368 73 OFFCURVE",
"339 52 CURVE SMOOTH",
"310 31 OFFCURVE",
"269 19 OFFCURVE",
"225 19 CURVE SMOOTH",
"148 19 OFFCURVE",
"94 53 OFFCURVE",
"94 120 CURVE SMOOTH",
"94 148 LINE SMOOTH",
"94 211 OFFCURVE",
"142 252 OFFCURVE",
"254 252 CURVE SMOOTH",
"387 252 LINE",
"387 148 LINE SMOOTH"
);
}
);
width = 522;
}
);
leftKerningGroup = a;
rightKerningGroup = a;
unicode = 1EA1;
},
{
glyphname = agrave;
lastChange = "2018-11-02 02:21:02 +0000";
layers = (
{
layerId = "ACBC60AB-B62C-4A0F-8440-773766AFCC64";
name = Light;
paths = (
{
closed = 1;
nodes = (
"149 740 LINE",
"181 758 LINE",
"286 600 LINE",
"262 587 LINE"
);
},
{
closed = 1;
nodes = (
"154 520 OFFCURVE",
"103 479 OFFCURVE",
"75 416 CURVE",
"100 399 LINE",
"127 459 OFFCURVE",
"177 489 OFFCURVE",
"248 489 CURVE SMOOTH",
"340 489 OFFCURVE",
"387 444 OFFCURVE",
"387 348 CURVE SMOOTH",
"387 280 LINE",
"254 280 LINE SMOOTH",
"181 280 OFFCURVE",
"132 266 OFFCURVE",
"101 240 CURVE SMOOTH",
"69 214 OFFCURVE",
"57 177 OFFCURVE",
"57 133 CURVE SMOOTH",
"57 41 OFFCURVE",
"117 -12 OFFCURVE",
"222 -12 CURVE SMOOTH",
"310 -12 OFFCURVE",
"360 27 OFFCURVE",
"384 79 CURVE",
"388 79 LINE",
"388 0 LINE",
"422 0 LINE",
"422 352 LINE SMOOTH",
"422 460 OFFCURVE",
"362 520 OFFCURVE",
"249 520 CURVE SMOOTH"
);
},
{
closed = 1;
nodes = (
"387 105 OFFCURVE",
"368 73 OFFCURVE",
"339 52 CURVE SMOOTH",
"310 31 OFFCURVE",
"269 19 OFFCURVE",
"225 19 CURVE SMOOTH",
"148 19 OFFCURVE",
"94 53 OFFCURVE",
"94 120 CURVE SMOOTH",
"94 148 LINE SMOOTH",
"94 211 OFFCURVE",
"142 252 OFFCURVE",
"254 252 CURVE SMOOTH",
"387 252 LINE",
"387 148 LINE SMOOTH"
);
}
);
width = 522;
}
);
leftKerningGroup = a;
rightKerningGroup = a;
unicode = 00E0;
},
{
glyphname = uni1EA3;
lastChange = "2018-11-02 02:21:06 +0000";
layers = (
{
layerId = "ACBC60AB-B62C-4A0F-8440-773766AFCC64";
name = Light;
paths = (
{
closed = 1;
nodes = (
"174 744 LINE",
"304 744 LINE SMOOTH",
"328 744 OFFCURVE",
"338 732 OFFCURVE",
"338 717 CURVE SMOOTH",
"338 710 OFFCURVE",
"336 702 OFFCURVE",
"331 693 CURVE",
"326 683 OFFCURVE",
"316 668 OFFCURVE",
"303 648 CURVE SMOOTH",
"260 583 LINE",
"237 595 LINE",
"309 715 LINE",
"174 715 LINE"
);
},
{
closed = 1;
nodes = (
"154 520 OFFCURVE",
"103 479 OFFCURVE",
"75 416 CURVE",
"100 399 LINE",
"127 459 OFFCURVE",
"177 489 OFFCURVE",
"248 489 CURVE SMOOTH",
"340 489 OFFCURVE",
"387 444 OFFCURVE",
"387 348 CURVE SMOOTH",
"387 280 LINE",
"254 280 LINE SMOOTH",
"181 280 OFFCURVE",
"132 266 OFFCURVE",
"101 240 CURVE SMOOTH",
"69 214 OFFCURVE",
"57 177 OFFCURVE",
"57 133 CURVE SMOOTH",
"57 41 OFFCURVE",
"117 -12 OFFCURVE",
"222 -12 CURVE SMOOTH",
"310 -12 OFFCURVE",
"360 27 OFFCURVE",
"384 79 CURVE",
"388 79 LINE",
"388 0 LINE",
"422 0 LINE",
"422 352 LINE SMOOTH",
"422 460 OFFCURVE",
"362 520 OFFCURVE",
"249 520 CURVE SMOOTH"
);
},
{
closed = 1;
nodes = (
"387 105 OFFCURVE",
"368 73 OFFCURVE",
"339 52 CURVE SMOOTH",
"310 31 OFFCURVE",
"269 19 OFFCURVE",
"225 19 CURVE SMOOTH",
"148 19 OFFCURVE",
"94 53 OFFCURVE",
"94 120 CURVE SMOOTH",
"94 148 LINE SMOOTH",
"94 211 OFFCURVE",
"142 252 OFFCURVE",
"254 252 CURVE SMOOTH",
"387 252 LINE",
"387 148 LINE SMOOTH"
);
}
);
width = 522;
}
);
leftKerningGroup = a;
rightKerningGroup = a;
unicode = 1EA3;
},
{
glyphname = amacron;
lastChange = "2018-11-02 02:21:11 +0000";
layers = (
{
layerId = "ACBC60AB-B62C-4A0F-8440-773766AFCC64";
name = Light;
paths = (
{
closed = 1;
nodes = (
"119 683 LINE",
"383 683 LINE",
"383 653 LINE",
"119 653 LINE"
);
},
{
closed = 1;
nodes = (
"154 520 OFFCURVE",
"103 479 OFFCURVE",
"75 416 CURVE",
"100 399 LINE",
"127 459 OFFCURVE",
"177 489 OFFCURVE",
"248 489 CURVE SMOOTH",
"340 489 OFFCURVE",
"387 444 OFFCURVE",
"387 348 CURVE SMOOTH",
"387 280 LINE",
"254 280 LINE SMOOTH",
"181 280 OFFCURVE",
"132 266 OFFCURVE",
"101 240 CURVE SMOOTH",
"69 214 OFFCURVE",
"57 177 OFFCURVE",
"57 133 CURVE SMOOTH",
"57 41 OFFCURVE",
"117 -12 OFFCURVE",
"222 -12 CURVE SMOOTH",
"310 -12 OFFCURVE",
"360 27 OFFCURVE",
"384 79 CURVE",
"388 79 LINE",
"388 0 LINE",
"422 0 LINE",
"422 352 LINE SMOOTH",
"422 460 OFFCURVE",
"362 520 OFFCURVE",
"249 520 CURVE SMOOTH"
);
},
{
closed = 1;
nodes = (
"387 105 OFFCURVE",
"368 73 OFFCURVE",
"339 52 CURVE SMOOTH",
"310 31 OFFCURVE",
"269 19 OFFCURVE",
"225 19 CURVE SMOOTH",
"148 19 OFFCURVE",
"94 53 OFFCURVE",
"94 120 CURVE SMOOTH",
"94 148 LINE SMOOTH",
"94 211 OFFCURVE",
"142 252 OFFCURVE",
"254 252 CURVE SMOOTH",
"387 252 LINE",
"387 148 LINE SMOOTH"
);
}
);
width = 522;
}
);
leftKerningGroup = a;
rightKerningGroup = a;
unicode = 0101;
},
{
glyphname = aogonek;
lastChange = "2018-11-02 02:28:23 +0000";
layers = (
{
layerId = "ACBC60AB-B62C-4A0F-8440-773766AFCC64";
name = Light;
paths = (
{
closed = 1;
nodes = (
"430 -165 OFFCURVE",
"412 -177 OFFCURVE",
"383 -177 CURVE SMOOTH",
"352 -177 OFFCURVE",
"331 -163 OFFCURVE",
"331 -128 CURVE SMOOTH",
"331 -88 OFFCURVE",
"358 -60 OFFCURVE",
"422 0 CURVE",
"422 352 LINE SMOOTH",
"422 460 OFFCURVE",
"362 520 OFFCURVE",
"249 520 CURVE SMOOTH",
"154 520 OFFCURVE",
"103 479 OFFCURVE",
"75 416 CURVE",
"100 399 LINE",
"127 459 OFFCURVE",
"177 489 OFFCURVE",
"248 489 CURVE SMOOTH",
"340 489 OFFCURVE",
"387 444 OFFCURVE",
"387 348 CURVE SMOOTH",
"387 280 LINE",
"254 280 LINE SMOOTH",
"181 280 OFFCURVE",
"132 266 OFFCURVE",
"101 240 CURVE SMOOTH",
"69 214 OFFCURVE",
"57 177 OFFCURVE",
"57 133 CURVE SMOOTH",
"57 41 OFFCURVE",
"117 -12 OFFCURVE",
"222 -12 CURVE SMOOTH",
"310 -12 OFFCURVE",
"360 27 OFFCURVE",
"384 79 CURVE",
"388 79 LINE",
"388 0 LINE",
"392 0 LINE",
"392 -1 LINE",
"332 -49 OFFCURVE",
"300 -85 OFFCURVE",
"300 -133 CURVE SMOOTH",
"300 -180 OFFCURVE",
"336 -203 OFFCURVE",
"383 -203 CURVE SMOOTH",
"422 -203 OFFCURVE",
"448 -189 OFFCURVE",
"461 -170 CURVE",
"441 -152 LINE"
);
},
{
closed = 1;
nodes = (
"387 105 OFFCURVE",
"368 73 OFFCURVE",
"339 52 CURVE SMOOTH",
"310 31 OFFCURVE",
"269 19 OFFCURVE",
"225 19 CURVE SMOOTH",
"148 19 OFFCURVE",
"94 53 OFFCURVE",
"94 120 CURVE SMOOTH",
"94 148 LINE SMOOTH",
"94 211 OFFCURVE",
"142 252 OFFCURVE",
"254 252 CURVE SMOOTH",
"387 252 LINE",
"387 148 LINE SMOOTH"
);
}
);
width = 522;
}
);
leftKerningGroup = a;
rightKerningGroup = a;
unicode = 0105;
},
{
glyphname = aring;
lastChange = "2018-11-02 02:21:17 +0000";
layers = (
{
layerId = "ACBC60AB-B62C-4A0F-8440-773766AFCC64";
name = Light;
paths = (
{
closed = 1;
nodes = (
"194 586 OFFCURVE",
"155 626 OFFCURVE",
"155 683 CURVE SMOOTH",
"155 739 OFFCURVE",
"194 779 OFFCURVE",
"251 779 CURVE SMOOTH",
"308 779 OFFCURVE",
"347 739 OFFCURVE",
"347 683 CURVE SMOOTH",
"347 626 OFFCURVE",
"308 586 OFFCURVE",
"251 586 CURVE SMOOTH"
);
},
{
closed = 1;
nodes = (
"292 611 OFFCURVE",
"318 637 OFFCURVE",
"318 676 CURVE SMOOTH",
"318 689 LINE SMOOTH",
"318 729 OFFCURVE",
"292 754 OFFCURVE",
"251 754 CURVE SMOOTH",
"210 754 OFFCURVE",
"184 729 OFFCURVE",
"184 689 CURVE SMOOTH",
"184 676 LINE SMOOTH",
"184 637 OFFCURVE",
"210 611 OFFCURVE",
"251 611 CURVE SMOOTH"
);
},
{
closed = 1;
nodes = (
"154 520 OFFCURVE",
"103 479 OFFCURVE",
"75 416 CURVE",
"100 399 LINE",
"127 459 OFFCURVE",
"177 489 OFFCURVE",
"248 489 CURVE SMOOTH",
"340 489 OFFCURVE",
"387 444 OFFCURVE",
"387 348 CURVE SMOOTH",
"387 280 LINE",
"254 280 LINE SMOOTH",
"181 280 OFFCURVE",
"132 266 OFFCURVE",
"101 240 CURVE SMOOTH",
"69 214 OFFCURVE",
"57 177 OFFCURVE",
"57 133 CURVE SMOOTH",
"57 41 OFFCURVE",
"117 -12 OFFCURVE",
"222 -12 CURVE SMOOTH",
"310 -12 OFFCURVE",
"360 27 OFFCURVE",
"384 79 CURVE",
"388 79 LINE",
"388 0 LINE",
"422 0 LINE",
"422 352 LINE SMOOTH",
"422 460 OFFCURVE",
"362 520 OFFCURVE",
"249 520 CURVE SMOOTH"
);
},
{
closed = 1;
nodes = (
"387 105 OFFCURVE",
"368 73 OFFCURVE",
"339 52 CURVE SMOOTH",
"310 31 OFFCURVE",
"269 19 OFFCURVE",
"225 19 CURVE SMOOTH",
"148 19 OFFCURVE",
"94 53 OFFCURVE",
"94 120 CURVE SMOOTH",
"94 148 LINE SMOOTH",
"94 211 OFFCURVE",
"142 252 OFFCURVE",
"254 252 CURVE SMOOTH",
"387 252 LINE",
"387 148 LINE SMOOTH"
);
}
);
width = 522;
}
);
leftKerningGroup = a;
rightKerningGroup = a;
unicode = 00E5;
},
{
glyphname = aringacute;
lastChange = "2018-11-02 02:21:22 +0000";
layers = (
{
layerId = "ACBC60AB-B62C-4A0F-8440-773766AFCC64";
name = Light;
paths = (
{
closed = 1;
nodes = (
"254 803 LINE",
"232 816 LINE",
"311 922 LINE",
"340 903 LINE"
);
},
{
closed = 1;
nodes = (
"194 584 OFFCURVE",
"155 623 OFFCURVE",
"155 680 CURVE SMOOTH",
"155 737 OFFCURVE",
"194 777 OFFCURVE",
"251 777 CURVE SMOOTH",
"308 777 OFFCURVE",
"347 737 OFFCURVE",
"347 680 CURVE SMOOTH",
"347 623 OFFCURVE",
"308 584 OFFCURVE",
"251 584 CURVE SMOOTH"
);
},
{
closed = 1;
nodes = (
"292 609 OFFCURVE",
"318 634 OFFCURVE",
"318 674 CURVE SMOOTH",
"318 687 LINE SMOOTH",
"318 726 OFFCURVE",
"292 752 OFFCURVE",
"251 752 CURVE SMOOTH",
"210 752 OFFCURVE",
"184 726 OFFCURVE",
"184 687 CURVE SMOOTH",
"184 674 LINE SMOOTH",
"184 634 OFFCURVE",
"210 609 OFFCURVE",
"251 609 CURVE SMOOTH"
);
},
{
closed = 1;
nodes = (
"154 520 OFFCURVE",
"103 479 OFFCURVE",
"75 416 CURVE",
"100 399 LINE",
"127 459 OFFCURVE",
"177 489 OFFCURVE",
"248 489 CURVE SMOOTH",
"340 489 OFFCURVE",
"387 444 OFFCURVE",
"387 348 CURVE SMOOTH",
"387 280 LINE",
"254 280 LINE SMOOTH",
"181 280 OFFCURVE",
"132 266 OFFCURVE",
"101 240 CURVE SMOOTH",
"69 214 OFFCURVE",
"57 177 OFFCURVE",
"57 133 CURVE SMOOTH",
"57 41 OFFCURVE",
"117 -12 OFFCURVE",
"222 -12 CURVE SMOOTH",
"310 -12 OFFCURVE",
"360 27 OFFCURVE",
"384 79 CURVE",
"388 79 LINE",
"388 0 LINE",
"422 0 LINE",
"422 352 LINE SMOOTH",
"422 460 OFFCURVE",
"362 520 OFFCURVE",
"249 520 CURVE SMOOTH"
);
},
{
closed = 1;
nodes = (
"387 105 OFFCURVE",
"368 73 OFFCURVE",
"339 52 CURVE SMOOTH",
"310 31 OFFCURVE",
"269 19 OFFCURVE",
"225 19 CURVE SMOOTH",
"148 19 OFFCURVE",
"94 53 OFFCURVE",
"94 120 CURVE SMOOTH",
"94 148 LINE SMOOTH",
"94 211 OFFCURVE",
"142 252 OFFCURVE",
"254 252 CURVE SMOOTH",
"387 252 LINE",
"387 148 LINE SMOOTH"
);
}
);
width = 522;
}
);
leftKerningGroup = a;
rightKerningGroup = a;
unicode = 01FB;
},
{
glyphname = atilde;
lastChange = "2018-11-02 02:21:27 +0000";
layers = (
{
layerId = "ACBC60AB-B62C-4A0F-8440-773766AFCC64";
name = Light;
paths = (
{
closed = 1;
nodes = (
"297 624 OFFCURVE",
"276 633 OFFCURVE",
"245 653 CURVE SMOOTH",
"214 672 OFFCURVE",
"197 679 OFFCURVE",
"178 679 CURVE SMOOTH",
"154 679 OFFCURVE",
"135 668 OFFCURVE",
"114 647 CURVE",
"97 666 LINE",
"121 694 OFFCURVE",
"149 708 OFFCURVE",
"180 708 CURVE SMOOTH",
"205 708 OFFCURVE",
"226 699 OFFCURVE",
"257 679 CURVE SMOOTH",
"288 660 OFFCURVE",
"305 653 OFFCURVE",
"324 653 CURVE SMOOTH",
"348 653 OFFCURVE",
"367 664 OFFCURVE",
"388 685 CURVE",
"405 666 LINE",
"381 638 OFFCURVE",
"353 624 OFFCURVE",
"322 624 CURVE SMOOTH"
);
},
{
closed = 1;
nodes = (
"154 520 OFFCURVE",
"103 479 OFFCURVE",
"75 416 CURVE",
"100 399 LINE",
"127 459 OFFCURVE",
"177 489 OFFCURVE",
"248 489 CURVE SMOOTH",
"340 489 OFFCURVE",
"387 444 OFFCURVE",
"387 348 CURVE SMOOTH",
"387 280 LINE",
"254 280 LINE SMOOTH",
"181 280 OFFCURVE",
"132 266 OFFCURVE",
"101 240 CURVE SMOOTH",
"69 214 OFFCURVE",
"57 177 OFFCURVE",
"57 133 CURVE SMOOTH",
"57 41 OFFCURVE",
"117 -12 OFFCURVE",
"222 -12 CURVE SMOOTH",
"310 -12 OFFCURVE",
"360 27 OFFCURVE",
"384 79 CURVE",
"388 79 LINE",
"388 0 LINE",
"422 0 LINE",
"422 352 LINE SMOOTH",
"422 460 OFFCURVE",
"362 520 OFFCURVE",
"249 520 CURVE SMOOTH"
);
},
{
closed = 1;
nodes = (
"387 105 OFFCURVE",
"368 73 OFFCURVE",
"339 52 CURVE SMOOTH",
"310 31 OFFCURVE",
"269 19 OFFCURVE",
"225 19 CURVE SMOOTH",
"148 19 OFFCURVE",
"94 53 OFFCURVE",
"94 120 CURVE SMOOTH",
"94 148 LINE SMOOTH",
"94 211 OFFCURVE",
"142 252 OFFCURVE",
"254 252 CURVE SMOOTH",
"387 252 LINE",
"387 148 LINE SMOOTH"
);
}
);
width = 522;
}
);
leftKerningGroup = a;
rightKerningGroup = a;
unicode = 00E3;
},
{
glyphname = uni1EAF;
lastChange = "2018-11-02 02:21:31 +0000";
layers = (
{
layerId = "ACBC60AB-B62C-4A0F-8440-773766AFCC64";
name = Light;
paths = (
{
closed = 1;
nodes = (
"211 592 OFFCURVE",
"185 603 OFFCURVE",
"164 623 CURVE SMOOTH",
"143 643 OFFCURVE",
"128 671 OFFCURVE",
"113 703 CURVE",
"136 714 LINE",
"153 686 LINE SMOOTH",
"182 635 OFFCURVE",
"203 620 OFFCURVE",
"250 620 CURVE SMOOTH",
"297 620 OFFCURVE",
"318 635 OFFCURVE",
"347 686 CURVE SMOOTH",
"364 714 LINE",
"387 703 LINE",
"372 671 OFFCURVE",
"357 643 OFFCURVE",
"336 623 CURVE SMOOTH",
"315 603 OFFCURVE",
"289 592 OFFCURVE",
"250 592 CURVE SMOOTH"
);
},
{
closed = 1;
nodes = (
"244 697 LINE",
"221 710 LINE",
"326 868 LINE",
"357 851 LINE"
);
},
{
closed = 1;
nodes = (
"154 520 OFFCURVE",
"103 479 OFFCURVE",
"75 416 CURVE",
"100 399 LINE",
"127 459 OFFCURVE",
"177 489 OFFCURVE",
"248 489 CURVE SMOOTH",
"340 489 OFFCURVE",
"387 444 OFFCURVE",
"387 348 CURVE SMOOTH",
"387 280 LINE",
"254 280 LINE SMOOTH",
"181 280 OFFCURVE",
"132 266 OFFCURVE",
"101 240 CURVE SMOOTH",
"69 214 OFFCURVE",
"57 177 OFFCURVE",
"57 133 CURVE SMOOTH",
"57 41 OFFCURVE",
"117 -12 OFFCURVE",
"222 -12 CURVE SMOOTH",
"310 -12 OFFCURVE",
"360 27 OFFCURVE",
"384 79 CURVE",
"388 79 LINE",
"388 0 LINE",
"422 0 LINE",
"422 352 LINE SMOOTH",
"422 460 OFFCURVE",
"362 520 OFFCURVE",
"249 520 CURVE SMOOTH"
);
},
{
closed = 1;
nodes = (
"387 105 OFFCURVE",
"368 73 OFFCURVE",
"339 52 CURVE SMOOTH",
"310 31 OFFCURVE",
"269 19 OFFCURVE",
"225 19 CURVE SMOOTH",
"148 19 OFFCURVE",
"94 53 OFFCURVE",
"94 120 CURVE SMOOTH",
"94 148 LINE SMOOTH",
"94 211 OFFCURVE",
"142 252 OFFCURVE",
"254 252 CURVE SMOOTH",
"387 252 LINE",
"387 148 LINE SMOOTH"
);
}
);
width = 522;
}
);
leftKerningGroup = a;
rightKerningGroup = a;
unicode = 1EAF;
},
{
glyphname = uni1EB7;
lastChange = "2018-11-02 02:21:36 +0000";
layers = (
{
layerId = "ACBC60AB-B62C-4A0F-8440-773766AFCC64";
name = Light;
paths = (
{
closed = 1;
nodes = (
"212 604 OFFCURVE",
"186 617 OFFCURVE",
"166 638 CURVE SMOOTH",
"146 658 OFFCURVE",
"130 688 OFFCURVE",
"114 723 CURVE",
"137 733 LINE",
"154 705 LINE SMOOTH",
"170 677 OFFCURVE",
"182 660 OFFCURVE",
"197 649 CURVE",
"212 637 OFFCURVE",
"228 633 OFFCURVE",
"251 633 CURVE SMOOTH",
"296 633 OFFCURVE",
"317 650 OFFCURVE",
"348 705 CURVE SMOOTH",
"365 733 LINE",
"388 723 LINE",
"372 688 OFFCURVE",
"356 658 OFFCURVE",
"336 638 CURVE SMOOTH",
"316 617 OFFCURVE",
"290 604 OFFCURVE",
"251 604 CURVE SMOOTH"
);
},
{
closed = 1;
nodes = (
"208 -142 OFFCURVE",
"199 -130 OFFCURVE",
"199 -115 CURVE SMOOTH",
"199 -107 LINE SMOOTH",
"199 -92 OFFCURVE",
"208 -80 OFFCURVE",
"229 -80 CURVE SMOOTH",
"250 -80 OFFCURVE",
"259 -92 OFFCURVE",
"259 -107 CURVE SMOOTH",
"259 -115 LINE SMOOTH",
"259 -130 OFFCURVE",
"250 -142 OFFCURVE",
"229 -142 CURVE SMOOTH"
);
},
{
closed = 1;
nodes = (
"154 520 OFFCURVE",
"103 479 OFFCURVE",
"75 416 CURVE",
"100 399 LINE",
"127 459 OFFCURVE",
"177 489 OFFCURVE",
"248 489 CURVE SMOOTH",
"340 489 OFFCURVE",
"387 444 OFFCURVE",
"387 348 CURVE SMOOTH",
"387 280 LINE",
"254 280 LINE SMOOTH",
"181 280 OFFCURVE",
"132 266 OFFCURVE",
"101 240 CURVE SMOOTH",
"69 214 OFFCURVE",
"57 177 OFFCURVE",
"57 133 CURVE SMOOTH",
"57 41 OFFCURVE",
"117 -12 OFFCURVE",
"222 -12 CURVE SMOOTH",
"310 -12 OFFCURVE",
"360 27 OFFCURVE",
"384 79 CURVE",
"388 79 LINE",
"388 0 LINE",
"422 0 LINE",
"422 352 LINE SMOOTH",
"422 460 OFFCURVE",
"362 520 OFFCURVE",
"249 520 CURVE SMOOTH"
);
},
{
closed = 1;
nodes = (
"387 105 OFFCURVE",
"368 73 OFFCURVE",
"339 52 CURVE SMOOTH",
"310 31 OFFCURVE",
"269 19 OFFCURVE",
"225 19 CURVE SMOOTH",
"148 19 OFFCURVE",
"94 53 OFFCURVE",
"94 120 CURVE SMOOTH",
"94 148 LINE SMOOTH",
"94 211 OFFCURVE",
"142 252 OFFCURVE",
"254 252 CURVE SMOOTH",
"387 252 LINE",
"387 148 LINE SMOOTH"
);
}
);
width = 522;
}
);
leftKerningGroup = a;
rightKerningGroup = a;
unicode = 1EB7;
},
{
glyphname = uni1EB1;
lastChange = "2018-11-02 02:21:40 +0000";
layers = (
{
layerId = "ACBC60AB-B62C-4A0F-8440-773766AFCC64";
name = Light;
paths = (
{
closed = 1;
nodes = (
"211 592 OFFCURVE",
"185 603 OFFCURVE",
"164 623 CURVE SMOOTH",
"143 643 OFFCURVE",
"128 671 OFFCURVE",
"113 703 CURVE",
"136 714 LINE",
"153 686 LINE SMOOTH",
"182 635 OFFCURVE",
"203 620 OFFCURVE",
"250 620 CURVE SMOOTH",
"297 620 OFFCURVE",
"318 635 OFFCURVE",
"347 686 CURVE SMOOTH",
"364 714 LINE",
"387 703 LINE",
"372 671 OFFCURVE",
"357 643 OFFCURVE",
"336 623 CURVE SMOOTH",
"315 603 OFFCURVE",
"289 592 OFFCURVE",
"250 592 CURVE SMOOTH"
);
},
{
closed = 1;
nodes = (
"143 851 LINE",
"174 868 LINE",
"279 710 LINE",
"256 697 LINE"
);
},
{
closed = 1;
nodes = (
"154 520 OFFCURVE",
"103 479 OFFCURVE",
"75 416 CURVE",
"100 399 LINE",
"127 459 OFFCURVE",
"177 489 OFFCURVE",
"248 489 CURVE SMOOTH",
"340 489 OFFCURVE",
"387 444 OFFCURVE",
"387 348 CURVE SMOOTH",
"387 280 LINE",
"254 280 LINE SMOOTH",
"181 280 OFFCURVE",
"132 266 OFFCURVE",
"101 240 CURVE SMOOTH",
"69 214 OFFCURVE",
"57 177 OFFCURVE",
"57 133 CURVE SMOOTH",
"57 41 OFFCURVE",
"117 -12 OFFCURVE",
"222 -12 CURVE SMOOTH",
"310 -12 OFFCURVE",
"360 27 OFFCURVE",
"384 79 CURVE",
"388 79 LINE",
"388 0 LINE",
"422 0 LINE",
"422 352 LINE SMOOTH",
"422 460 OFFCURVE",
"362 520 OFFCURVE",
"249 520 CURVE SMOOTH"
);
},
{
closed = 1;
nodes = (
"387 105 OFFCURVE",
"368 73 OFFCURVE",
"339 52 CURVE SMOOTH",
"310 31 OFFCURVE",
"269 19 OFFCURVE",
"225 19 CURVE SMOOTH",
"148 19 OFFCURVE",
"94 53 OFFCURVE",
"94 120 CURVE SMOOTH",
"94 148 LINE SMOOTH",
"94 211 OFFCURVE",
"142 252 OFFCURVE",
"254 252 CURVE SMOOTH",
"387 252 LINE",
"387 148 LINE SMOOTH"
);
}
);
width = 522;
}
);
leftKerningGroup = a;
rightKerningGroup = a;
unicode = 1EB1;
},
{
glyphname = uni1EB3;
lastChange = "2018-11-02 02:21:44 +0000";
layers = (
{
layerId = "ACBC60AB-B62C-4A0F-8440-773766AFCC64";
name = Light;
paths = (
{
closed = 1;
nodes = (
"211 592 OFFCURVE",
"185 603 OFFCURVE",
"164 623 CURVE SMOOTH",
"143 643 OFFCURVE",
"128 671 OFFCURVE",
"113 703 CURVE",
"136 714 LINE",
"153 686 LINE SMOOTH",
"182 635 OFFCURVE",
"203 620 OFFCURVE",
"250 620 CURVE SMOOTH",
"297 620 OFFCURVE",
"318 635 OFFCURVE",
"347 686 CURVE SMOOTH",
"364 714 LINE",
"387 703 LINE",
"372 671 OFFCURVE",
"357 643 OFFCURVE",
"336 623 CURVE SMOOTH",
"315 603 OFFCURVE",
"289 592 OFFCURVE",
"250 592 CURVE SMOOTH"
);
},
{
closed = 1;
nodes = (
"172 855 LINE",
"299 855 LINE SMOOTH",
"323 855 OFFCURVE",
"333 844 OFFCURVE",
"333 828 CURVE SMOOTH",
"333 821 OFFCURVE",
"331 813 OFFCURVE",
"326 804 CURVE",
"321 794 OFFCURVE",
"311 779 OFFCURVE",
"298 759 CURVE SMOOTH",
"255 694 LINE",
"232 706 LINE",
"305 827 LINE",
"172 827 LINE"
);
},
{
closed = 1;
nodes = (
"154 520 OFFCURVE",
"103 479 OFFCURVE",
"75 416 CURVE",
"100 399 LINE",
"127 459 OFFCURVE",
"177 489 OFFCURVE",
"248 489 CURVE SMOOTH",
"340 489 OFFCURVE",
"387 444 OFFCURVE",
"387 348 CURVE SMOOTH",
"387 280 LINE",
"254 280 LINE SMOOTH",
"181 280 OFFCURVE",
"132 266 OFFCURVE",
"101 240 CURVE SMOOTH",
"69 214 OFFCURVE",
"57 177 OFFCURVE",
"57 133 CURVE SMOOTH",
"57 41 OFFCURVE",
"117 -12 OFFCURVE",
"222 -12 CURVE SMOOTH",
"310 -12 OFFCURVE",
"360 27 OFFCURVE",
"384 79 CURVE",
"388 79 LINE",
"388 0 LINE",
"422 0 LINE",
"422 352 LINE SMOOTH",
"422 460 OFFCURVE",
"362 520 OFFCURVE",
"249 520 CURVE SMOOTH"
);
},
{
closed = 1;
nodes = (
"387 105 OFFCURVE",
"368 73 OFFCURVE",
"339 52 CURVE SMOOTH",
"310 31 OFFCURVE",
"269 19 OFFCURVE",
"225 19 CURVE SMOOTH",
"148 19 OFFCURVE",
"94 53 OFFCURVE",
"94 120 CURVE SMOOTH",
"94 148 LINE SMOOTH",
"94 211 OFFCURVE",
"142 252 OFFCURVE",
"254 252 CURVE SMOOTH",
"387 252 LINE",
"387 148 LINE SMOOTH"
);
}
);
width = 522;
}
);
leftKerningGroup = a;
rightKerningGroup = a;
unicode = 1EB3;
},
{
glyphname = uni1EB5;
lastChange = "2018-11-02 02:21:48 +0000";
layers = (
{
layerId = "ACBC60AB-B62C-4A0F-8440-773766AFCC64";
name = Light;
paths = (
{
closed = 1;
nodes = (
"211 592 OFFCURVE",
"185 603 OFFCURVE",
"164 623 CURVE SMOOTH",
"143 643 OFFCURVE",
"128 671 OFFCURVE",
"113 703 CURVE",
"136 714 LINE",
"153 686 LINE SMOOTH",
"182 635 OFFCURVE",
"203 620 OFFCURVE",
"250 620 CURVE SMOOTH",
"297 620 OFFCURVE",
"318 635 OFFCURVE",
"347 686 CURVE SMOOTH",
"364 714 LINE",
"387 703 LINE",
"372 671 OFFCURVE",
"357 643 OFFCURVE",
"336 623 CURVE SMOOTH",
"315 603 OFFCURVE",
"289 592 OFFCURVE",
"250 592 CURVE SMOOTH"
);
},
{
closed = 1;
nodes = (
"294 765 OFFCURVE",
"275 775 OFFCURVE",
"244 794 CURVE SMOOTH",
"213 813 OFFCURVE",
"196 820 OFFCURVE",
"177 820 CURVE SMOOTH",
"153 820 OFFCURVE",
"134 809 OFFCURVE",
"113 788 CURVE",
"97 806 LINE",
"120 834 OFFCURVE",
"147 848 OFFCURVE",
"179 848 CURVE SMOOTH",
"206 848 OFFCURVE",
"225 838 OFFCURVE",
"256 819 CURVE SMOOTH",
"287 800 OFFCURVE",
"304 793 OFFCURVE",
"323 793 CURVE SMOOTH",
"347 793 OFFCURVE",
"366 804 OFFCURVE",
"387 825 CURVE",
"403 807 LINE",
"380 779 OFFCURVE",
"353 765 OFFCURVE",
"321 765 CURVE SMOOTH"
);
},
{
closed = 1;
nodes = (
"154 520 OFFCURVE",
"103 479 OFFCURVE",
"75 416 CURVE",
"100 399 LINE",
"127 459 OFFCURVE",
"177 489 OFFCURVE",
"248 489 CURVE SMOOTH",
"340 489 OFFCURVE",
"387 444 OFFCURVE",
"387 348 CURVE SMOOTH",
"387 280 LINE",
"254 280 LINE SMOOTH",
"181 280 OFFCURVE",
"132 266 OFFCURVE",
"101 240 CURVE SMOOTH",
"69 214 OFFCURVE",
"57 177 OFFCURVE",
"57 133 CURVE SMOOTH",
"57 41 OFFCURVE",
"117 -12 OFFCURVE",
"222 -12 CURVE SMOOTH",
"310 -12 OFFCURVE",
"360 27 OFFCURVE",
"384 79 CURVE",
"388 79 LINE",
"388 0 LINE",
"422 0 LINE",
"422 352 LINE SMOOTH",
"422 460 OFFCURVE",
"362 520 OFFCURVE",
"249 520 CURVE SMOOTH"
);
},
{
closed = 1;
nodes = (
"387 105 OFFCURVE",
"368 73 OFFCURVE",
"339 52 CURVE SMOOTH",
"310 31 OFFCURVE",
"269 19 OFFCURVE",
"225 19 CURVE SMOOTH",
"148 19 OFFCURVE",
"94 53 OFFCURVE",
"94 120 CURVE SMOOTH",
"94 148 LINE SMOOTH",
"94 211 OFFCURVE",
"142 252 OFFCURVE",
"254 252 CURVE SMOOTH",
"387 252 LINE",
"387 148 LINE SMOOTH"
);
}
);
width = 522;
}
);
leftKerningGroup = a;
rightKerningGroup = a;
unicode = 1EB5;
},
{
glyphname = uni1EA5;
lastChange = "2018-11-02 02:21:52 +0000";
layers = (
{
layerId = "ACBC60AB-B62C-4A0F-8440-773766AFCC64";
name = Light;
paths = (
{
closed = 1;
nodes = (
"373 697 LINE",
"350 710 LINE",
"455 868 LINE",
"486 851 LINE"
);
},
{
closed = 1;
nodes = (
"271 737 LINE",
"395 604 LINE",
"374 589 LINE",
"250 712 LINE",
"126 589 LINE",
"105 604 LINE",
"229 737 LINE"
);
},
{
closed = 1;
nodes = (
"154 520 OFFCURVE",
"103 479 OFFCURVE",
"75 416 CURVE",
"100 399 LINE",
"127 459 OFFCURVE",
"177 489 OFFCURVE",
"248 489 CURVE SMOOTH",
"340 489 OFFCURVE",
"387 444 OFFCURVE",
"387 348 CURVE SMOOTH",
"387 280 LINE",
"254 280 LINE SMOOTH",
"181 280 OFFCURVE",
"132 266 OFFCURVE",
"101 240 CURVE SMOOTH",
"69 214 OFFCURVE",
"57 177 OFFCURVE",
"57 133 CURVE SMOOTH",
"57 41 OFFCURVE",
"117 -12 OFFCURVE",
"222 -12 CURVE SMOOTH",
"310 -12 OFFCURVE",
"360 27 OFFCURVE",
"384 79 CURVE",
"388 79 LINE",
"388 0 LINE",
"422 0 LINE",
"422 352 LINE SMOOTH",
"422 460 OFFCURVE",
"362 520 OFFCURVE",
"249 520 CURVE SMOOTH"
);
},
{
closed = 1;
nodes = (
"387 105 OFFCURVE",
"368 73 OFFCURVE",
"339 52 CURVE SMOOTH",
"310 31 OFFCURVE",
"269 19 OFFCURVE",
"225 19 CURVE SMOOTH",
"148 19 OFFCURVE",
"94 53 OFFCURVE",
"94 120 CURVE SMOOTH",
"94 148 LINE SMOOTH",
"94 211 OFFCURVE",
"142 252 OFFCURVE",
"254 252 CURVE SMOOTH",
"387 252 LINE",
"387 148 LINE SMOOTH"
);
}
);
width = 522;
}
);
leftKerningGroup = a;
rightKerningGroup = a;
unicode = 1EA5;
},
{
glyphname = uni1EAD;
lastChange = "2018-11-02 02:21:57 +0000";
layers = (
{
layerId = "ACBC60AB-B62C-4A0F-8440-773766AFCC64";
name = Light;
paths = (
{
closed = 1;
nodes = (
"272 748 LINE",
"396 613 LINE",
"375 597 LINE",
"251 722 LINE",
"127 597 LINE",
"106 613 LINE",
"230 748 LINE"
);
},
{
closed = 1;
nodes = (
"208 -142 OFFCURVE",
"199 -130 OFFCURVE",
"199 -115 CURVE SMOOTH",
"199 -107 LINE SMOOTH",
"199 -92 OFFCURVE",
"208 -80 OFFCURVE",
"229 -80 CURVE SMOOTH",
"250 -80 OFFCURVE",
"259 -92 OFFCURVE",
"259 -107 CURVE SMOOTH",
"259 -115 LINE SMOOTH",
"259 -130 OFFCURVE",
"250 -142 OFFCURVE",
"229 -142 CURVE SMOOTH"
);
},
{
closed = 1;
nodes = (
"154 520 OFFCURVE",
"103 479 OFFCURVE",
"75 416 CURVE",
"100 399 LINE",
"127 459 OFFCURVE",
"177 489 OFFCURVE",
"248 489 CURVE SMOOTH",
"340 489 OFFCURVE",
"387 444 OFFCURVE",
"387 348 CURVE SMOOTH",
"387 280 LINE",
"254 280 LINE SMOOTH",
"181 280 OFFCURVE",
"132 266 OFFCURVE",
"101 240 CURVE SMOOTH",
"69 214 OFFCURVE",
"57 177 OFFCURVE",
"57 133 CURVE SMOOTH",
"57 41 OFFCURVE",
"117 -12 OFFCURVE",
"222 -12 CURVE SMOOTH",
"310 -12 OFFCURVE",
"360 27 OFFCURVE",
"384 79 CURVE",
"388 79 LINE",
"388 0 LINE",
"422 0 LINE",
"422 352 LINE SMOOTH",
"422 460 OFFCURVE",
"362 520 OFFCURVE",
"249 520 CURVE SMOOTH"
);
},
{
closed = 1;
nodes = (
"387 105 OFFCURVE",
"368 73 OFFCURVE",
"339 52 CURVE SMOOTH",
"310 31 OFFCURVE",
"269 19 OFFCURVE",
"225 19 CURVE SMOOTH",
"148 19 OFFCURVE",
"94 53 OFFCURVE",
"94 120 CURVE SMOOTH",
"94 148 LINE SMOOTH",
"94 211 OFFCURVE",
"142 252 OFFCURVE",
"254 252 CURVE SMOOTH",
"387 252 LINE",
"387 148 LINE SMOOTH"
);
}
);
width = 522;
}
);
leftKerningGroup = a;
rightKerningGroup = a;
unicode = 1EAD;
},
{
glyphname = uni1EA7;
lastChange = "2018-11-02 02:22:01 +0000";
layers = (
{
layerId = "ACBC60AB-B62C-4A0F-8440-773766AFCC64";
name = Light;
paths = (
{
closed = 1;
nodes = (
"14 851 LINE",
"45 868 LINE",
"150 710 LINE",
"127 697 LINE"
);
},
{
closed = 1;
nodes = (
"271 737 LINE",
"395 604 LINE",
"374 589 LINE",
"250 712 LINE",
"126 589 LINE",
"105 604 LINE",
"229 737 LINE"
);
},
{
closed = 1;
nodes = (
"154 520 OFFCURVE",
"103 479 OFFCURVE",
"75 416 CURVE",
"100 399 LINE",
"127 459 OFFCURVE",
"177 489 OFFCURVE",
"248 489 CURVE SMOOTH",
"340 489 OFFCURVE",
"387 444 OFFCURVE",
"387 348 CURVE SMOOTH",
"387 280 LINE",
"254 280 LINE SMOOTH",
"181 280 OFFCURVE",
"132 266 OFFCURVE",
"101 240 CURVE SMOOTH",
"69 214 OFFCURVE",
"57 177 OFFCURVE",
"57 133 CURVE SMOOTH",
"57 41 OFFCURVE",
"117 -12 OFFCURVE",
"222 -12 CURVE SMOOTH",
"310 -12 OFFCURVE",
"360 27 OFFCURVE",
"384 79 CURVE",
"388 79 LINE",
"388 0 LINE",
"422 0 LINE",
"422 352 LINE SMOOTH",
"422 460 OFFCURVE",
"362 520 OFFCURVE",
"249 520 CURVE SMOOTH"
);
},
{
closed = 1;
nodes = (
"387 105 OFFCURVE",
"368 73 OFFCURVE",
"339 52 CURVE SMOOTH",
"310 31 OFFCURVE",
"269 19 OFFCURVE",
"225 19 CURVE SMOOTH",
"148 19 OFFCURVE",
"94 53 OFFCURVE",
"94 120 CURVE SMOOTH",
"94 148 LINE SMOOTH",
"94 211 OFFCURVE",
"142 252 OFFCURVE",
"254 252 CURVE SMOOTH",
"387 252 LINE",
"387 148 LINE SMOOTH"
);
}
);
width = 522;
}
);
leftKerningGroup = a;
rightKerningGroup = a;
unicode = 1EA7;
},
{
glyphname = uni1EA9;
lastChange = "2018-11-02 02:22:05 +0000";
layers = (
{
layerId = "ACBC60AB-B62C-4A0F-8440-773766AFCC64";
name = Light;
paths = (
{
closed = 1;
nodes = (
"292 855 LINE",
"422 855 LINE SMOOTH",
"446 855 OFFCURVE",
"456 844 OFFCURVE",
"456 828 CURVE SMOOTH",
"456 821 OFFCURVE",
"454 813 OFFCURVE",
"449 804 CURVE",
"444 794 OFFCURVE",
"434 779 OFFCURVE",
"421 759 CURVE SMOOTH",
"378 694 LINE",
"355 706 LINE",
"428 827 LINE",
"292 827 LINE"
);
},
{
closed = 1;
nodes = (
"271 737 LINE",
"395 604 LINE",
"374 589 LINE",
"250 712 LINE",
"126 589 LINE",
"105 604 LINE",
"229 737 LINE"
);
},
{
closed = 1;
nodes = (
"154 520 OFFCURVE",
"103 479 OFFCURVE",
"75 416 CURVE",
"100 399 LINE",
"127 459 OFFCURVE",
"177 489 OFFCURVE",
"248 489 CURVE SMOOTH",
"340 489 OFFCURVE",
"387 444 OFFCURVE",
"387 348 CURVE SMOOTH",
"387 280 LINE",
"254 280 LINE SMOOTH",
"181 280 OFFCURVE",
"132 266 OFFCURVE",
"101 240 CURVE SMOOTH",
"69 214 OFFCURVE",
"57 177 OFFCURVE",
"57 133 CURVE SMOOTH",
"57 41 OFFCURVE",
"117 -12 OFFCURVE",
"222 -12 CURVE SMOOTH",
"310 -12 OFFCURVE",
"360 27 OFFCURVE",
"384 79 CURVE",
"388 79 LINE",
"388 0 LINE",
"422 0 LINE",
"422 352 LINE SMOOTH",
"422 460 OFFCURVE",
"362 520 OFFCURVE",
"249 520 CURVE SMOOTH"
);
},
{
closed = 1;
nodes = (
"387 105 OFFCURVE",
"368 73 OFFCURVE",
"339 52 CURVE SMOOTH",
"310 31 OFFCURVE",
"269 19 OFFCURVE",
"225 19 CURVE SMOOTH",
"148 19 OFFCURVE",
"94 53 OFFCURVE",
"94 120 CURVE SMOOTH",
"94 148 LINE SMOOTH",
"94 211 OFFCURVE",
"142 252 OFFCURVE",
"254 252 CURVE SMOOTH",
"387 252 LINE",
"387 148 LINE SMOOTH"
);
}
);
width = 522;
}
);
leftKerningGroup = a;
rightKerningGroup = a;
unicode = 1EA9;
},
{
glyphname = uni1EAB;
lastChange = "2018-11-02 02:22:09 +0000";
layers = (
{
layerId = "ACBC60AB-B62C-4A0F-8440-773766AFCC64";
name = Light;
paths = (
{
closed = 1;
nodes = (
"206 856 OFFCURVE",
"225 846 OFFCURVE",
"256 827 CURVE SMOOTH",
"287 808 OFFCURVE",
"304 802 OFFCURVE",
"323 802 CURVE SMOOTH",
"347 802 OFFCURVE",
"366 812 OFFCURVE",
"387 833 CURVE",
"403 816 LINE",
"380 789 OFFCURVE",
"354 773 OFFCURVE",
"321 773 CURVE SMOOTH",
"294 773 OFFCURVE",
"275 783 OFFCURVE",
"244 802 CURVE SMOOTH",
"213 821 OFFCURVE",
"196 827 OFFCURVE",
"177 827 CURVE SMOOTH",
"153 827 OFFCURVE",
"134 817 OFFCURVE",
"113 796 CURVE",
"97 813 LINE",
"120 840 OFFCURVE",
"146 856 OFFCURVE",
"179 856 CURVE SMOOTH"
);
},
{
closed = 1;
nodes = (
"271 737 LINE",
"395 604 LINE",
"374 589 LINE",
"250 712 LINE",
"126 589 LINE",
"105 604 LINE",
"229 737 LINE"
);
},
{
closed = 1;
nodes = (
"154 520 OFFCURVE",
"103 479 OFFCURVE",
"75 416 CURVE",
"100 399 LINE",
"127 459 OFFCURVE",
"177 489 OFFCURVE",
"248 489 CURVE SMOOTH",
"340 489 OFFCURVE",
"387 444 OFFCURVE",
"387 348 CURVE SMOOTH",
"387 280 LINE",
"254 280 LINE SMOOTH",
"181 280 OFFCURVE",
"132 266 OFFCURVE",
"101 240 CURVE SMOOTH",
"69 214 OFFCURVE",
"57 177 OFFCURVE",
"57 133 CURVE SMOOTH",
"57 41 OFFCURVE",
"117 -12 OFFCURVE",
"222 -12 CURVE SMOOTH",
"310 -12 OFFCURVE",
"360 27 OFFCURVE",
"384 79 CURVE",
"388 79 LINE",
"388 0 LINE",
"422 0 LINE",
"422 352 LINE SMOOTH",
"422 460 OFFCURVE",
"362 520 OFFCURVE",
"249 520 CURVE SMOOTH"
);
},
{
closed = 1;
nodes = (
"387 105 OFFCURVE",
"368 73 OFFCURVE",
"339 52 CURVE SMOOTH",
"310 31 OFFCURVE",
"269 19 OFFCURVE",
"225 19 CURVE SMOOTH",
"148 19 OFFCURVE",
"94 53 OFFCURVE",
"94 120 CURVE SMOOTH",
"94 148 LINE SMOOTH",
"94 211 OFFCURVE",
"142 252 OFFCURVE",
"254 252 CURVE SMOOTH",
"387 252 LINE",
"387 148 LINE SMOOTH"
);
}
);
width = 522;
}
);
leftKerningGroup = a;
rightKerningGroup = a;
unicode = 1EAB;
},
{
glyphname = ae;
layers = (
{
layerId = "ACBC60AB-B62C-4A0F-8440-773766AFCC64";
name = Light;
paths = (
{
closed = 1;
nodes = (
"250 252 LINE SMOOTH",
"138 252 OFFCURVE",
"91 211 OFFCURVE",
"91 148 CURVE SMOOTH",
"91 120 LINE SMOOTH",
"91 53 OFFCURVE",
"143 19 OFFCURVE",
"222 19 CURVE SMOOTH",
"266 19 OFFCURVE",
"306 31 OFFCURVE",
"335 52 CURVE SMOOTH",
"364 73 OFFCURVE",
"383 105 OFFCURVE",
"383 148 CURVE SMOOTH",
"383 252 LINE"
);
},
{
closed = 1;
nodes = (
"767 280 LINE",
"767 286 LINE SMOOTH",
"767 347 OFFCURVE",
"750 398 OFFCURVE",
"720 434 CURVE SMOOTH",
"690 469 OFFCURVE",
"647 489 OFFCURVE",
"596 489 CURVE SMOOTH",
"540 489 OFFCURVE",
"497 469 OFFCURVE",
"466 433 CURVE SMOOTH",
"435 397 OFFCURVE",
"419 345 OFFCURVE",
"419 284 CURVE SMOOTH",
"419 280 LINE"
);
},
{
closed = 1;
nodes = (
"681 19 OFFCURVE",
"736 58 OFFCURVE",
"767 135 CURVE",
"794 120 LINE",
"763 40 OFFCURVE",
"697 -12 OFFCURVE",
"601 -12 CURVE SMOOTH",
"504 -12 OFFCURVE",
"436 38 OFFCURVE",
"409 117 CURVE",
"405 117 LINE",
"397 78 OFFCURVE",
"375 46 OFFCURVE",
"343 23 CURVE SMOOTH",
"310 0 OFFCURVE",
"267 -12 OFFCURVE",
"218 -12 CURVE SMOOTH",
"114 -12 OFFCURVE",
"53 41 OFFCURVE",
"53 133 CURVE SMOOTH",
"53 177 OFFCURVE",
"66 214 OFFCURVE",
"97 240 CURVE SMOOTH",
"128 266 OFFCURVE",
"178 280 OFFCURVE",
"250 280 CURVE SMOOTH",
"383 280 LINE",
"383 348 LINE SMOOTH",
"383 444 OFFCURVE",
"336 489 OFFCURVE",
"245 489 CURVE SMOOTH",
"170 489 OFFCURVE",
"124 460 OFFCURVE",
"96 399 CURVE",
"71 416 LINE",
"99 479 OFFCURVE",
"150 520 OFFCURVE",
"245 520 CURVE SMOOTH",
"349 520 OFFCURVE",
"398 465 OFFCURVE",
"406 389 CURVE",
"410 389 LINE",
"437 468 OFFCURVE",
"502 520 OFFCURVE",
"598 520 CURVE SMOOTH",
"659 520 OFFCURVE",
"712 495 OFFCURVE",
"748 451 CURVE SMOOTH",
"784 407 OFFCURVE",
"805 344 OFFCURVE",
"805 268 CURVE SMOOTH",
"805 252 LINE",
"419 252 LINE",
"419 225 LINE SMOOTH",
"419 162 OFFCURVE",
"435 111 OFFCURVE",
"467 75 CURVE SMOOTH",
"498 39 OFFCURVE",
"543 19 OFFCURVE",
"600 19 CURVE SMOOTH"
);
}
);
width = 862;
}
);
leftKerningGroup = a;
rightKerningGroup = e;
unicode = 00E6;
},
{
glyphname = aeacute;
layers = (
{
layerId = "ACBC60AB-B62C-4A0F-8440-773766AFCC64";
name = Light;
paths = (
{
closed = 1;
nodes = (
"250 252 LINE SMOOTH",
"138 252 OFFCURVE",
"91 211 OFFCURVE",
"91 148 CURVE SMOOTH",
"91 120 LINE SMOOTH",
"91 53 OFFCURVE",
"143 19 OFFCURVE",
"222 19 CURVE SMOOTH",
"266 19 OFFCURVE",
"306 31 OFFCURVE",
"335 52 CURVE SMOOTH",
"364 73 OFFCURVE",
"383 105 OFFCURVE",
"383 148 CURVE SMOOTH",
"383 252 LINE"
);
},
{
closed = 1;
nodes = (
"767 280 LINE",
"767 286 LINE SMOOTH",
"767 347 OFFCURVE",
"750 398 OFFCURVE",
"720 434 CURVE SMOOTH",
"690 469 OFFCURVE",
"647 489 OFFCURVE",
"596 489 CURVE SMOOTH",
"540 489 OFFCURVE",
"497 469 OFFCURVE",
"466 433 CURVE SMOOTH",
"435 397 OFFCURVE",
"419 345 OFFCURVE",
"419 284 CURVE SMOOTH",
"419 280 LINE"
);
},
{
closed = 1;
nodes = (
"681 19 OFFCURVE",
"736 58 OFFCURVE",
"767 135 CURVE",
"794 120 LINE",
"763 40 OFFCURVE",
"697 -12 OFFCURVE",
"601 -12 CURVE SMOOTH",
"504 -12 OFFCURVE",
"436 38 OFFCURVE",
"409 117 CURVE",
"405 117 LINE",
"397 78 OFFCURVE",
"375 46 OFFCURVE",
"343 23 CURVE SMOOTH",
"310 0 OFFCURVE",
"267 -12 OFFCURVE",
"218 -12 CURVE SMOOTH",
"114 -12 OFFCURVE",
"53 41 OFFCURVE",
"53 133 CURVE SMOOTH",
"53 177 OFFCURVE",
"66 214 OFFCURVE",
"97 240 CURVE SMOOTH",
"128 266 OFFCURVE",
"178 280 OFFCURVE",
"250 280 CURVE SMOOTH",
"383 280 LINE",
"383 348 LINE SMOOTH",
"383 444 OFFCURVE",
"336 489 OFFCURVE",
"245 489 CURVE SMOOTH",
"170 489 OFFCURVE",
"124 460 OFFCURVE",
"96 399 CURVE",
"71 416 LINE",
"99 479 OFFCURVE",
"150 520 OFFCURVE",
"245 520 CURVE SMOOTH",
"349 520 OFFCURVE",
"398 465 OFFCURVE",
"406 389 CURVE",
"410 389 LINE",
"437 468 OFFCURVE",
"502 520 OFFCURVE",
"598 520 CURVE SMOOTH",
"659 520 OFFCURVE",
"712 495 OFFCURVE",
"748 451 CURVE SMOOTH",
"784 407 OFFCURVE",
"805 344 OFFCURVE",
"805 268 CURVE SMOOTH",
"805 252 LINE",
"419 252 LINE",
"419 225 LINE SMOOTH",
"419 162 OFFCURVE",
"435 111 OFFCURVE",
"467 75 CURVE SMOOTH",
"498 39 OFFCURVE",
"543 19 OFFCURVE",
"600 19 CURVE SMOOTH"
);
},
{
closed = 1;
nodes = (
"413 587 LINE",
"389 600 LINE",
"494 758 LINE",
"526 740 LINE"
);
}
);
width = 862;
}
);
leftKerningGroup = a;
rightKerningGroup = e;
unicode = 01FD;
},
{
glyphname = cacute;
layers = (
{
layerId = "ACBC60AB-B62C-4A0F-8440-773766AFCC64";
name = Light;
paths = (
{
closed = 1;
nodes = (
"136 -12 OFFCURVE",
"57 81 OFFCURVE",
"57 254 CURVE SMOOTH",
"57 429 OFFCURVE",
"136 520 OFFCURVE",
"272 520 CURVE SMOOTH",
"357 520 OFFCURVE",
"412 479 OFFCURVE",
"443 415 CURVE",
"414 400 LINE",
"385 457 OFFCURVE",
"343 489 OFFCURVE",
"272 489 CURVE SMOOTH",
"157 489 OFFCURVE",
"95 408 OFFCURVE",
"95 283 CURVE SMOOTH",
"95 225 LINE SMOOTH",
"95 100 OFFCURVE",
"157 19 OFFCURVE",
"272 19 CURVE SMOOTH",
"348 19 OFFCURVE",
"394 52 OFFCURVE",
"425 108 CURVE",
"451 90 LINE",
"418 29 OFFCURVE",
"363 -12 OFFCURVE",
"272 -12 CURVE SMOOTH"
);
},
{
closed = 1;
nodes = (
"260 587 LINE",
"236 600 LINE",
"341 758 LINE",
"373 740 LINE"
);
}
);
width = 491;
}
);
leftKerningGroup = c;
rightKerningGroup = c;
unicode = 0107;
},
{
glyphname = ccaron;
layers = (
{
layerId = "ACBC60AB-B62C-4A0F-8440-773766AFCC64";
name = Light;
paths = (
{
closed = 1;
nodes = (
"136 -12 OFFCURVE",
"57 81 OFFCURVE",
"57 254 CURVE SMOOTH",
"57 429 OFFCURVE",
"136 520 OFFCURVE",
"272 520 CURVE SMOOTH",
"357 520 OFFCURVE",
"412 479 OFFCURVE",
"443 415 CURVE",
"414 400 LINE",
"385 457 OFFCURVE",
"343 489 OFFCURVE",
"272 489 CURVE SMOOTH",
"157 489 OFFCURVE",
"95 408 OFFCURVE",
"95 283 CURVE SMOOTH",
"95 225 LINE SMOOTH",
"95 100 OFFCURVE",
"157 19 OFFCURVE",
"272 19 CURVE SMOOTH",
"348 19 OFFCURVE",
"394 52 OFFCURVE",
"425 108 CURVE",
"451 90 LINE",
"418 29 OFFCURVE",
"363 -12 OFFCURVE",
"272 -12 CURVE SMOOTH"
);
},
{
closed = 1;
nodes = (
"251 602 LINE",
"127 737 LINE",
"148 753 LINE",
"272 629 LINE",
"396 753 LINE",
"417 737 LINE",
"293 602 LINE"
);
}
);
width = 491;
}
);
leftKerningGroup = c;
rightKerningGroup = c;
unicode = 010D;
},
{
glyphname = ccedilla;
layers = (
{
layerId = "ACBC60AB-B62C-4A0F-8440-773766AFCC64";
name = Light;
paths = (
{
closed = 1;
nodes = (
"357 520 OFFCURVE",
"412 479 OFFCURVE",
"443 416 CURVE",
"414 400 LINE",
"385 457 OFFCURVE",
"343 489 OFFCURVE",
"272 489 CURVE SMOOTH",
"157 489 OFFCURVE",
"95 408 OFFCURVE",
"95 283 CURVE SMOOTH",
"95 225 LINE SMOOTH",
"95 100 OFFCURVE",
"157 19 OFFCURVE",
"272 19 CURVE SMOOTH",
"348 19 OFFCURVE",
"394 52 OFFCURVE",
"425 108 CURVE",
"451 90 LINE",
"420 31 OFFCURVE",
"367 -9 OFFCURVE",
"283 -12 CURVE",
"269 -70 LINE",
"271 -72 LINE",
"282 -69 OFFCURVE",
"293 -69 OFFCURVE",
"304 -69 CURVE SMOOTH",
"343 -69 OFFCURVE",
"371 -92 OFFCURVE",
"371 -129 CURVE SMOOTH",
"371 -172 OFFCURVE",
"335 -203 OFFCURVE",
"282 -203 CURVE SMOOTH",
"239 -203 OFFCURVE",
"209 -188 OFFCURVE",
"197 -169 CURVE",
"216 -149 LINE",
"229 -166 OFFCURVE",
"251 -177 OFFCURVE",
"282 -177 CURVE SMOOTH",
"315 -177 OFFCURVE",
"339 -161 OFFCURVE",
"339 -130 CURVE SMOOTH",
"339 -106 OFFCURVE",
"324 -88 OFFCURVE",
"276 -85 CURVE SMOOTH",
"241 -82 LINE",
"257 -12 LINE",
"130 -5 OFFCURVE",
"57 86 OFFCURVE",
"57 254 CURVE SMOOTH",
"57 429 OFFCURVE",
"136 520 OFFCURVE",
"272 520 CURVE SMOOTH"
);
}
);
width = 491;
}
);
leftKerningGroup = c;
rightKerningGroup = c;
unicode = 00E7;
},
{
glyphname = ccircumflex;
layers = (
{
layerId = "ACBC60AB-B62C-4A0F-8440-773766AFCC64";
name = Light;
paths = (
{
closed = 1;
nodes = (
"136 -12 OFFCURVE",
"57 81 OFFCURVE",
"57 254 CURVE SMOOTH",
"57 429 OFFCURVE",
"136 520 OFFCURVE",
"272 520 CURVE SMOOTH",
"357 520 OFFCURVE",
"412 479 OFFCURVE",
"443 415 CURVE",
"414 400 LINE",
"385 457 OFFCURVE",
"343 489 OFFCURVE",
"272 489 CURVE SMOOTH",
"157 489 OFFCURVE",
"95 408 OFFCURVE",
"95 283 CURVE SMOOTH",
"95 225 LINE SMOOTH",
"95 100 OFFCURVE",
"157 19 OFFCURVE",
"272 19 CURVE SMOOTH",
"348 19 OFFCURVE",
"394 52 OFFCURVE",
"425 108 CURVE",
"451 90 LINE",
"418 29 OFFCURVE",
"363 -12 OFFCURVE",
"272 -12 CURVE SMOOTH"
);
},
{
closed = 1;
nodes = (
"293 748 LINE",
"417 613 LINE",
"396 597 LINE",
"272 722 LINE",
"148 597 LINE",
"127 613 LINE",
"251 748 LINE"
);
}
);
width = 491;
}
);
leftKerningGroup = c;
rightKerningGroup = c;
unicode = 0109;
},
{
glyphname = cdotaccent;
layers = (
{
layerId = "ACBC60AB-B62C-4A0F-8440-773766AFCC64";
name = Light;
paths = (
{
closed = 1;
nodes = (
"136 -12 OFFCURVE",
"57 81 OFFCURVE",
"57 254 CURVE SMOOTH",
"57 429 OFFCURVE",
"136 520 OFFCURVE",
"272 520 CURVE SMOOTH",
"357 520 OFFCURVE",
"412 479 OFFCURVE",
"443 415 CURVE",
"414 400 LINE",
"385 457 OFFCURVE",
"343 489 OFFCURVE",
"272 489 CURVE SMOOTH",
"157 489 OFFCURVE",
"95 408 OFFCURVE",
"95 283 CURVE SMOOTH",
"95 225 LINE SMOOTH",
"95 100 OFFCURVE",
"157 19 OFFCURVE",
"272 19 CURVE SMOOTH",
"348 19 OFFCURVE",
"394 52 OFFCURVE",
"425 108 CURVE",
"451 90 LINE",
"418 29 OFFCURVE",
"363 -12 OFFCURVE",
"272 -12 CURVE SMOOTH"
);
},
{
closed = 1;
nodes = (
"251 636 OFFCURVE",
"242 648 OFFCURVE",
"242 663 CURVE SMOOTH",
"242 671 LINE SMOOTH",
"242 686 OFFCURVE",
"251 698 OFFCURVE",
"272 698 CURVE SMOOTH",
"293 698 OFFCURVE",
"302 686 OFFCURVE",
"302 671 CURVE SMOOTH",
"302 663 LINE SMOOTH",
"302 648 OFFCURVE",
"293 636 OFFCURVE",
"272 636 CURVE SMOOTH"
);
}
);
width = 491;
}
);
leftKerningGroup = c;
rightKerningGroup = c;
unicode = 010B;
},
{
glyphname = dcaron;
layers = (
{
layerId = "ACBC60AB-B62C-4A0F-8440-773766AFCC64";
name = Light;
paths = (
{
closed = 1;
nodes = (
"432 79 LINE",
"429 79 LINE",
"406 31 OFFCURVE",
"353 -12 OFFCURVE",
"268 -12 CURVE SMOOTH",
"135 -12 OFFCURVE",
"57 79 OFFCURVE",
"57 254 CURVE SMOOTH",
"57 429 OFFCURVE",
"135 520 OFFCURVE",
"268 520 CURVE SMOOTH",
"353 520 OFFCURVE",
"406 478 OFFCURVE",
"429 429 CURVE",
"432 429 LINE",
"432 740 LINE",
"467 740 LINE",
"467 0 LINE",
"432 0 LINE"
);
},
{
closed = 1;
nodes = (
"316 20 OFFCURVE",
"356 32 OFFCURVE",
"385 55 CURVE SMOOTH",
"413 78 OFFCURVE",
"432 109 OFFCURVE",
"432 148 CURVE SMOOTH",
"432 362 LINE SMOOTH",
"432 399 OFFCURVE",
"413 432 OFFCURVE",
"385 454 CURVE SMOOTH",
"356 476 OFFCURVE",
"316 489 OFFCURVE",
"273 489 CURVE SMOOTH",
"160 489 OFFCURVE",
"95 410 OFFCURVE",
"95 283 CURVE SMOOTH",
"95 225 LINE SMOOTH",
"95 98 OFFCURVE",
"160 20 OFFCURVE",
"273 20 CURVE SMOOTH"
);
},
{
closed = 1;
nodes = (
"573 562 LINE",
"548 562 LINE",
"563 740 LINE",
"604 740 LINE"
);
}
);
width = 567;
}
);
leftKerningGroup = d;
rightKerningGroup = dcaron;
unicode = 010F;
},
{
glyphname = dcroat;
layers = (
{
layerId = "ACBC60AB-B62C-4A0F-8440-773766AFCC64";
name = Light;
paths = (
{
closed = 1;
nodes = (
"432 79 LINE",
"429 79 LINE",
"406 31 OFFCURVE",
"353 -12 OFFCURVE",
"268 -12 CURVE SMOOTH",
"135 -12 OFFCURVE",
"57 79 OFFCURVE",
"57 254 CURVE SMOOTH",
"57 429 OFFCURVE",
"135 520 OFFCURVE",
"268 520 CURVE SMOOTH",
"353 520 OFFCURVE",
"406 478 OFFCURVE",
"429 429 CURVE",
"432 429 LINE",
"432 623 LINE",
"272 623 LINE",
"272 652 LINE",
"432 652 LINE",
"432 740 LINE",
"467 740 LINE",
"467 652 LINE",
"533 652 LINE",
"533 623 LINE",
"467 623 LINE",
"467 0 LINE",
"432 0 LINE"
);
},
{
closed = 1;
nodes = (
"316 20 OFFCURVE",
"356 32 OFFCURVE",
"385 55 CURVE SMOOTH",
"413 78 OFFCURVE",
"432 109 OFFCURVE",
"432 148 CURVE SMOOTH",
"432 362 LINE SMOOTH",
"432 399 OFFCURVE",
"413 432 OFFCURVE",
"385 454 CURVE SMOOTH",
"356 476 OFFCURVE",
"316 489 OFFCURVE",
"273 489 CURVE SMOOTH",
"160 489 OFFCURVE",
"95 410 OFFCURVE",
"95 283 CURVE SMOOTH",
"95 225 LINE SMOOTH",
"95 98 OFFCURVE",
"160 20 OFFCURVE",
"273 20 CURVE SMOOTH"
);
}
);
width = 570;
}
);
leftKerningGroup = d;
unicode = 0111;
},
{
glyphname = eth;
layers = (
{
layerId = "ACBC60AB-B62C-4A0F-8440-773766AFCC64";
name = Light;
paths = (
{
closed = 1;
nodes = (
"407 732 LINE",
"306 659 LINE",
"353 615 OFFCURVE",
"398 557 OFFCURVE",
"431 488 CURVE SMOOTH",
"464 419 OFFCURVE",
"486 340 OFFCURVE",
"486 253 CURVE SMOOTH",
"486 168 OFFCURVE",
"465 101 OFFCURVE",
"427 57 CURVE SMOOTH",
"389 12 OFFCURVE",
"335 -12 OFFCURVE",
"271 -12 CURVE SMOOTH",
"207 -12 OFFCURVE",
"153 13 OFFCURVE",
"116 58 CURVE SMOOTH",
"79 102 OFFCURVE",
"57 167 OFFCURVE",
"57 248 CURVE SMOOTH",
"57 327 OFFCURVE",
"79 390 OFFCURVE",
"116 434 CURVE SMOOTH",
"153 477 OFFCURVE",
"207 501 OFFCURVE",
"271 501 CURVE SMOOTH",
"339 501 OFFCURVE",
"393 471 OFFCURVE",
"426 416 CURVE",
"429 418 LINE",
"398 509 OFFCURVE",
"343 582 OFFCURVE",
"282 642 CURVE",
"181 569 LINE",
"166 589 LINE",
"263 659 LINE",
"232 686 OFFCURVE",
"188 717 OFFCURVE",
"145 740 CURVE",
"202 740 LINE",
"230 723 OFFCURVE",
"256 704 OFFCURVE",
"287 677 CURVE",
"392 752 LINE"
);
},
{
closed = 1;
nodes = (
"323 19 OFFCURVE",
"367 39 OFFCURVE",
"399 73 CURVE SMOOTH",
"430 107 OFFCURVE",
"448 156 OFFCURVE",
"448 217 CURVE SMOOTH",
"448 272 LINE SMOOTH",
"448 333 OFFCURVE",
"430 383 OFFCURVE",
"399 417 CURVE SMOOTH",
"367 451 OFFCURVE",
"323 470 OFFCURVE",
"271 470 CURVE SMOOTH",
"219 470 OFFCURVE",
"176 452 OFFCURVE",
"145 418 CURVE SMOOTH",
"113 384 OFFCURVE",
"95 333 OFFCURVE",
"95 272 CURVE SMOOTH",
"95 217 LINE SMOOTH",
"95 156 OFFCURVE",
"113 106 OFFCURVE",
"145 72 CURVE SMOOTH",
"176 38 OFFCURVE",
"219 19 OFFCURVE",
"271 19 CURVE SMOOTH"
);
}
);
width = 548;
}
);
leftKerningGroup = d;
rightKerningGroup = o;
unicode = 00F0;
},
{
glyphname = eacute;
layers = (
{
layerId = "ACBC60AB-B62C-4A0F-8440-773766AFCC64";
name = Light;
paths = (
{
closed = 1;
nodes = (
"140 -12 OFFCURVE",
"57 81 OFFCURVE",
"57 254 CURVE SMOOTH",
"57 426 OFFCURVE",
"138 520 OFFCURVE",
"271 520 CURVE SMOOTH",
"334 520 OFFCURVE",
"386 495 OFFCURVE",
"423 451 CURVE SMOOTH",
"459 407 OFFCURVE",
"480 344 OFFCURVE",
"480 268 CURVE SMOOTH",
"480 252 LINE",
"94 252 LINE",
"94 225 LINE SMOOTH",
"94 162 OFFCURVE",
"110 111 OFFCURVE",
"142 75 CURVE SMOOTH",
"173 39 OFFCURVE",
"218 19 OFFCURVE",
"275 19 CURVE SMOOTH",
"356 19 OFFCURVE",
"411 58 OFFCURVE",
"442 135 CURVE",
"469 120 LINE",
"438 40 OFFCURVE",
"372 -12 OFFCURVE",
"275 -12 CURVE SMOOTH"
);
},
{
closed = 1;
nodes = (
"215 489 OFFCURVE",
"172 469 OFFCURVE",
"141 433 CURVE SMOOTH",
"110 397 OFFCURVE",
"94 345 OFFCURVE",
"94 284 CURVE SMOOTH",
"94 280 LINE",
"442 280 LINE",
"442 286 LINE SMOOTH",
"442 347 OFFCURVE",
"425 398 OFFCURVE",
"395 434 CURVE SMOOTH",
"365 469 OFFCURVE",
"322 489 OFFCURVE",
"271 489 CURVE SMOOTH"
);
},
{
closed = 1;
nodes = (
"260 587 LINE",
"236 600 LINE",
"341 758 LINE",
"373 740 LINE"
);
}
);
width = 537;
}
);
leftKerningGroup = c;
rightKerningGroup = e;
unicode = 00E9;
},
{
glyphname = ebreve;
layers = (
{
layerId = "ACBC60AB-B62C-4A0F-8440-773766AFCC64";
name = Light;
paths = (
{
closed = 1;
nodes = (
"140 -12 OFFCURVE",
"57 81 OFFCURVE",
"57 254 CURVE SMOOTH",
"57 426 OFFCURVE",
"138 520 OFFCURVE",
"271 520 CURVE SMOOTH",
"334 520 OFFCURVE",
"386 495 OFFCURVE",
"423 451 CURVE SMOOTH",
"459 407 OFFCURVE",
"480 344 OFFCURVE",
"480 268 CURVE SMOOTH",
"480 252 LINE",
"94 252 LINE",
"94 225 LINE SMOOTH",
"94 162 OFFCURVE",
"110 111 OFFCURVE",
"142 75 CURVE SMOOTH",
"173 39 OFFCURVE",
"218 19 OFFCURVE",
"275 19 CURVE SMOOTH",
"356 19 OFFCURVE",
"411 58 OFFCURVE",
"442 135 CURVE",
"469 120 LINE",
"438 40 OFFCURVE",
"372 -12 OFFCURVE",
"275 -12 CURVE SMOOTH"
);
},
{
closed = 1;
nodes = (
"215 489 OFFCURVE",
"172 469 OFFCURVE",
"141 433 CURVE SMOOTH",
"110 397 OFFCURVE",
"94 345 OFFCURVE",
"94 284 CURVE SMOOTH",
"94 280 LINE",
"442 280 LINE",
"442 286 LINE SMOOTH",
"442 347 OFFCURVE",
"425 398 OFFCURVE",
"395 434 CURVE SMOOTH",
"365 469 OFFCURVE",
"322 489 OFFCURVE",
"271 489 CURVE SMOOTH"
);
},
{
closed = 1;
nodes = (
"233 604 OFFCURVE",
"207 617 OFFCURVE",
"187 638 CURVE SMOOTH",
"167 658 OFFCURVE",
"151 688 OFFCURVE",
"135 723 CURVE",
"158 733 LINE",
"175 705 LINE SMOOTH",
"191 677 OFFCURVE",
"203 660 OFFCURVE",
"218 649 CURVE",
"233 637 OFFCURVE",
"249 633 OFFCURVE",
"272 633 CURVE SMOOTH",
"317 633 OFFCURVE",
"338 650 OFFCURVE",
"369 705 CURVE SMOOTH",
"386 733 LINE",
"409 723 LINE",
"393 688 OFFCURVE",
"377 658 OFFCURVE",
"357 638 CURVE SMOOTH",
"337 617 OFFCURVE",
"311 604 OFFCURVE",
"272 604 CURVE SMOOTH"
);
}
);
width = 537;
}
);
leftKerningGroup = c;
rightKerningGroup = e;
unicode = 0115;
},
{
glyphname = ecaron;
layers = (
{
layerId = "ACBC60AB-B62C-4A0F-8440-773766AFCC64";
name = Light;
paths = (
{
closed = 1;
nodes = (
"140 -12 OFFCURVE",
"57 81 OFFCURVE",
"57 254 CURVE SMOOTH",
"57 426 OFFCURVE",
"138 520 OFFCURVE",
"271 520 CURVE SMOOTH",
"334 520 OFFCURVE",
"386 495 OFFCURVE",
"423 451 CURVE SMOOTH",
"459 407 OFFCURVE",
"480 344 OFFCURVE",
"480 268 CURVE SMOOTH",
"480 252 LINE",
"94 252 LINE",
"94 225 LINE SMOOTH",
"94 162 OFFCURVE",
"110 111 OFFCURVE",
"142 75 CURVE SMOOTH",
"173 39 OFFCURVE",
"218 19 OFFCURVE",
"275 19 CURVE SMOOTH",
"356 19 OFFCURVE",
"411 58 OFFCURVE",
"442 135 CURVE",
"469 120 LINE",
"438 40 OFFCURVE",
"372 -12 OFFCURVE",
"275 -12 CURVE SMOOTH"
);
},
{
closed = 1;
nodes = (
"215 489 OFFCURVE",
"172 469 OFFCURVE",
"141 433 CURVE SMOOTH",
"110 397 OFFCURVE",
"94 345 OFFCURVE",
"94 284 CURVE SMOOTH",
"94 280 LINE",
"442 280 LINE",
"442 286 LINE SMOOTH",
"442 347 OFFCURVE",
"425 398 OFFCURVE",
"395 434 CURVE SMOOTH",
"365 469 OFFCURVE",
"322 489 OFFCURVE",
"271 489 CURVE SMOOTH"
);
},
{
closed = 1;
nodes = (
"251 602 LINE",
"127 737 LINE",
"148 753 LINE",
"272 629 LINE",
"396 753 LINE",
"417 737 LINE",
"293 602 LINE"
);
}
);
width = 537;
}
);
leftKerningGroup = c;
rightKerningGroup = e;
unicode = 011B;
},
{
glyphname = ecircumflex;
layers = (
{
layerId = "ACBC60AB-B62C-4A0F-8440-773766AFCC64";
name = Light;
paths = (
{
closed = 1;
nodes = (
"140 -12 OFFCURVE",
"57 81 OFFCURVE",
"57 254 CURVE SMOOTH",
"57 426 OFFCURVE",
"138 520 OFFCURVE",
"271 520 CURVE SMOOTH",
"334 520 OFFCURVE",
"386 495 OFFCURVE",
"423 451 CURVE SMOOTH",
"459 407 OFFCURVE",
"480 344 OFFCURVE",
"480 268 CURVE SMOOTH",
"480 252 LINE",
"94 252 LINE",
"94 225 LINE SMOOTH",
"94 162 OFFCURVE",
"110 111 OFFCURVE",
"142 75 CURVE SMOOTH",
"173 39 OFFCURVE",
"218 19 OFFCURVE",
"275 19 CURVE SMOOTH",
"356 19 OFFCURVE",
"411 58 OFFCURVE",
"442 135 CURVE",
"469 120 LINE",
"438 40 OFFCURVE",
"372 -12 OFFCURVE",
"275 -12 CURVE SMOOTH"
);
},
{
closed = 1;
nodes = (
"215 489 OFFCURVE",
"172 469 OFFCURVE",
"141 433 CURVE SMOOTH",
"110 397 OFFCURVE",
"94 345 OFFCURVE",
"94 284 CURVE SMOOTH",
"94 280 LINE",
"442 280 LINE",
"442 286 LINE SMOOTH",
"442 347 OFFCURVE",
"425 398 OFFCURVE",
"395 434 CURVE SMOOTH",
"365 469 OFFCURVE",
"322 489 OFFCURVE",
"271 489 CURVE SMOOTH"
);
},
{
closed = 1;
nodes = (
"293 748 LINE",
"417 613 LINE",
"396 597 LINE",
"272 722 LINE",
"148 597 LINE",
"127 613 LINE",
"251 748 LINE"
);
}
);
width = 537;
}
);
leftKerningGroup = c;
rightKerningGroup = e;
unicode = 00EA;
},
{
glyphname = edieresis;
layers = (
{
layerId = "ACBC60AB-B62C-4A0F-8440-773766AFCC64";
name = Light;
paths = (
{
closed = 1;
nodes = (
"140 -12 OFFCURVE",
"57 81 OFFCURVE",
"57 254 CURVE SMOOTH",
"57 426 OFFCURVE",
"138 520 OFFCURVE",
"271 520 CURVE SMOOTH",
"334 520 OFFCURVE",
"386 495 OFFCURVE",
"423 451 CURVE SMOOTH",
"459 407 OFFCURVE",
"480 344 OFFCURVE",
"480 268 CURVE SMOOTH",
"480 252 LINE",
"94 252 LINE",
"94 225 LINE SMOOTH",
"94 162 OFFCURVE",
"110 111 OFFCURVE",
"142 75 CURVE SMOOTH",
"173 39 OFFCURVE",
"218 19 OFFCURVE",
"275 19 CURVE SMOOTH",
"356 19 OFFCURVE",
"411 58 OFFCURVE",
"442 135 CURVE",
"469 120 LINE",
"438 40 OFFCURVE",
"372 -12 OFFCURVE",
"275 -12 CURVE SMOOTH"
);
},
{
closed = 1;
nodes = (
"215 489 OFFCURVE",
"172 469 OFFCURVE",
"141 433 CURVE SMOOTH",
"110 397 OFFCURVE",
"94 345 OFFCURVE",
"94 284 CURVE SMOOTH",
"94 280 LINE",
"442 280 LINE",
"442 286 LINE SMOOTH",
"442 347 OFFCURVE",
"425 398 OFFCURVE",
"395 434 CURVE SMOOTH",
"365 469 OFFCURVE",
"322 489 OFFCURVE",
"271 489 CURVE SMOOTH"
);
},
{
closed = 1;
nodes = (
"158 636 OFFCURVE",
"151 648 OFFCURVE",
"151 663 CURVE SMOOTH",
"151 671 LINE SMOOTH",
"151 686 OFFCURVE",
"158 698 OFFCURVE",
"181 698 CURVE SMOOTH",
"202 698 OFFCURVE",
"210 686 OFFCURVE",
"210 671 CURVE SMOOTH",
"210 663 LINE SMOOTH",
"210 648 OFFCURVE",
"202 636 OFFCURVE",
"181 636 CURVE SMOOTH"
);
},
{
closed = 1;
nodes = (
"342 636 OFFCURVE",
"334 648 OFFCURVE",
"334 663 CURVE SMOOTH",
"334 671 LINE SMOOTH",
"334 686 OFFCURVE",
"342 698 OFFCURVE",
"363 698 CURVE SMOOTH",
"386 698 OFFCURVE",
"393 686 OFFCURVE",
"393 671 CURVE SMOOTH",
"393 663 LINE SMOOTH",
"393 648 OFFCURVE",
"386 636 OFFCURVE",
"363 636 CURVE SMOOTH"
);
}
);
width = 537;
}
);
leftKerningGroup = c;
rightKerningGroup = e;
unicode = 00EB;
},
{
glyphname = edotaccent;
layers = (
{
layerId = "ACBC60AB-B62C-4A0F-8440-773766AFCC64";
name = Light;
paths = (
{
closed = 1;
nodes = (
"140 -12 OFFCURVE",
"57 81 OFFCURVE",
"57 254 CURVE SMOOTH",
"57 426 OFFCURVE",
"138 520 OFFCURVE",
"271 520 CURVE SMOOTH",
"334 520 OFFCURVE",
"386 495 OFFCURVE",
"423 451 CURVE SMOOTH",
"459 407 OFFCURVE",
"480 344 OFFCURVE",
"480 268 CURVE SMOOTH",
"480 252 LINE",
"94 252 LINE",
"94 225 LINE SMOOTH",
"94 162 OFFCURVE",
"110 111 OFFCURVE",
"142 75 CURVE SMOOTH",
"173 39 OFFCURVE",
"218 19 OFFCURVE",
"275 19 CURVE SMOOTH",
"356 19 OFFCURVE",
"411 58 OFFCURVE",
"442 135 CURVE",
"469 120 LINE",
"438 40 OFFCURVE",
"372 -12 OFFCURVE",
"275 -12 CURVE SMOOTH"
);
},
{
closed = 1;
nodes = (
"215 489 OFFCURVE",
"172 469 OFFCURVE",
"141 433 CURVE SMOOTH",
"110 397 OFFCURVE",
"94 345 OFFCURVE",
"94 284 CURVE SMOOTH",
"94 280 LINE",
"442 280 LINE",
"442 286 LINE SMOOTH",
"442 347 OFFCURVE",
"425 398 OFFCURVE",
"395 434 CURVE SMOOTH",
"365 469 OFFCURVE",
"322 489 OFFCURVE",
"271 489 CURVE SMOOTH"
);
},
{
closed = 1;
nodes = (
"251 636 OFFCURVE",
"242 648 OFFCURVE",
"242 663 CURVE SMOOTH",
"242 671 LINE SMOOTH",
"242 686 OFFCURVE",
"251 698 OFFCURVE",
"272 698 CURVE SMOOTH",
"293 698 OFFCURVE",
"302 686 OFFCURVE",
"302 671 CURVE SMOOTH",
"302 663 LINE SMOOTH",
"302 648 OFFCURVE",
"293 636 OFFCURVE",
"272 636 CURVE SMOOTH"
);
}
);
width = 537;
}
);
leftKerningGroup = c;
rightKerningGroup = e;
unicode = 0117;
},
{
glyphname = uni1EB9;
layers = (
{
layerId = "ACBC60AB-B62C-4A0F-8440-773766AFCC64";
name = Light;
paths = (
{
closed = 1;
nodes = (
"140 -12 OFFCURVE",
"57 81 OFFCURVE",
"57 254 CURVE SMOOTH",
"57 426 OFFCURVE",
"138 520 OFFCURVE",
"271 520 CURVE SMOOTH",
"334 520 OFFCURVE",
"386 495 OFFCURVE",
"423 451 CURVE SMOOTH",
"459 407 OFFCURVE",
"480 344 OFFCURVE",
"480 268 CURVE SMOOTH",
"480 252 LINE",
"94 252 LINE",
"94 225 LINE SMOOTH",
"94 162 OFFCURVE",
"110 111 OFFCURVE",
"142 75 CURVE SMOOTH",
"173 39 OFFCURVE",
"218 19 OFFCURVE",
"275 19 CURVE SMOOTH",
"356 19 OFFCURVE",
"411 58 OFFCURVE",
"442 135 CURVE",
"469 120 LINE",
"438 40 OFFCURVE",
"372 -12 OFFCURVE",
"275 -12 CURVE SMOOTH"
);
},
{
closed = 1;
nodes = (
"215 489 OFFCURVE",
"172 469 OFFCURVE",
"141 433 CURVE SMOOTH",
"110 397 OFFCURVE",
"94 345 OFFCURVE",
"94 284 CURVE SMOOTH",
"94 280 LINE",
"442 280 LINE",
"442 286 LINE SMOOTH",
"442 347 OFFCURVE",
"425 398 OFFCURVE",
"395 434 CURVE SMOOTH",
"365 469 OFFCURVE",
"322 489 OFFCURVE",
"271 489 CURVE SMOOTH"
);
},
{
closed = 1;
nodes = (
"254 -142 OFFCURVE",
"245 -130 OFFCURVE",
"245 -115 CURVE SMOOTH",
"245 -107 LINE SMOOTH",
"245 -92 OFFCURVE",
"254 -80 OFFCURVE",
"275 -80 CURVE SMOOTH",
"296 -80 OFFCURVE",
"305 -92 OFFCURVE",
"305 -107 CURVE SMOOTH",
"305 -115 LINE SMOOTH",
"305 -130 OFFCURVE",
"296 -142 OFFCURVE",
"275 -142 CURVE SMOOTH"
);
}
);
width = 537;
}
);
leftKerningGroup = c;
rightKerningGroup = e;
unicode = 1EB9;
},
{
glyphname = egrave;
layers = (
{
layerId = "ACBC60AB-B62C-4A0F-8440-773766AFCC64";
name = Light;
paths = (
{
closed = 1;
nodes = (
"140 -12 OFFCURVE",
"57 81 OFFCURVE",
"57 254 CURVE SMOOTH",
"57 426 OFFCURVE",
"138 520 OFFCURVE",
"271 520 CURVE SMOOTH",
"334 520 OFFCURVE",
"386 495 OFFCURVE",
"423 451 CURVE SMOOTH",
"459 407 OFFCURVE",
"480 344 OFFCURVE",
"480 268 CURVE SMOOTH",
"480 252 LINE",
"94 252 LINE",
"94 225 LINE SMOOTH",
"94 162 OFFCURVE",
"110 111 OFFCURVE",
"142 75 CURVE SMOOTH",
"173 39 OFFCURVE",
"218 19 OFFCURVE",
"275 19 CURVE SMOOTH",
"356 19 OFFCURVE",
"411 58 OFFCURVE",
"442 135 CURVE",
"469 120 LINE",
"438 40 OFFCURVE",
"372 -12 OFFCURVE",
"275 -12 CURVE SMOOTH"
);
},
{
closed = 1;
nodes = (
"215 489 OFFCURVE",
"172 469 OFFCURVE",
"141 433 CURVE SMOOTH",
"110 397 OFFCURVE",
"94 345 OFFCURVE",
"94 284 CURVE SMOOTH",
"94 280 LINE",
"442 280 LINE",
"442 286 LINE SMOOTH",
"442 347 OFFCURVE",
"425 398 OFFCURVE",
"395 434 CURVE SMOOTH",
"365 469 OFFCURVE",
"322 489 OFFCURVE",
"271 489 CURVE SMOOTH"
);
},
{
closed = 1;
nodes = (
"170 740 LINE",
"202 758 LINE",
"307 600 LINE",
"283 587 LINE"
);
}
);
width = 537;
}
);
leftKerningGroup = c;
rightKerningGroup = e;
unicode = 00E8;
},
{
glyphname = uni1EBB;
layers = (
{
layerId = "ACBC60AB-B62C-4A0F-8440-773766AFCC64";
name = Light;
paths = (
{
closed = 1;
nodes = (
"140 -12 OFFCURVE",
"57 81 OFFCURVE",
"57 254 CURVE SMOOTH",
"57 426 OFFCURVE",
"138 520 OFFCURVE",
"271 520 CURVE SMOOTH",
"334 520 OFFCURVE",
"386 495 OFFCURVE",
"423 451 CURVE SMOOTH",
"459 407 OFFCURVE",
"480 344 OFFCURVE",
"480 268 CURVE SMOOTH",
"480 252 LINE",
"94 252 LINE",
"94 225 LINE SMOOTH",
"94 162 OFFCURVE",
"110 111 OFFCURVE",
"142 75 CURVE SMOOTH",
"173 39 OFFCURVE",
"218 19 OFFCURVE",
"275 19 CURVE SMOOTH",
"356 19 OFFCURVE",
"411 58 OFFCURVE",
"442 135 CURVE",
"469 120 LINE",
"438 40 OFFCURVE",
"372 -12 OFFCURVE",
"275 -12 CURVE SMOOTH"
);
},
{
closed = 1;
nodes = (
"215 489 OFFCURVE",
"172 469 OFFCURVE",
"141 433 CURVE SMOOTH",
"110 397 OFFCURVE",
"94 345 OFFCURVE",
"94 284 CURVE SMOOTH",
"94 280 LINE",
"442 280 LINE",
"442 286 LINE SMOOTH",
"442 347 OFFCURVE",
"425 398 OFFCURVE",
"395 434 CURVE SMOOTH",
"365 469 OFFCURVE",
"322 489 OFFCURVE",
"271 489 CURVE SMOOTH"
);
},
{
closed = 1;
nodes = (
"195 744 LINE",
"325 744 LINE SMOOTH",
"349 744 OFFCURVE",
"359 732 OFFCURVE",
"359 717 CURVE SMOOTH",
"359 710 OFFCURVE",
"357 702 OFFCURVE",
"352 693 CURVE",
"347 683 OFFCURVE",
"337 668 OFFCURVE",
"324 648 CURVE SMOOTH",
"281 583 LINE",
"258 595 LINE",
"330 715 LINE",
"195 715 LINE"
);
}
);
width = 537;
}
);
leftKerningGroup = c;
rightKerningGroup = e;
unicode = 1EBB;
},
{
glyphname = emacron;
layers = (
{
layerId = "ACBC60AB-B62C-4A0F-8440-773766AFCC64";
name = Light;
paths = (
{
closed = 1;
nodes = (
"140 -12 OFFCURVE",
"57 81 OFFCURVE",
"57 254 CURVE SMOOTH",
"57 426 OFFCURVE",
"138 520 OFFCURVE",
"271 520 CURVE SMOOTH",
"334 520 OFFCURVE",
"386 495 OFFCURVE",
"423 451 CURVE SMOOTH",
"459 407 OFFCURVE",
"480 344 OFFCURVE",
"480 268 CURVE SMOOTH",
"480 252 LINE",
"94 252 LINE",
"94 225 LINE SMOOTH",
"94 162 OFFCURVE",
"110 111 OFFCURVE",
"142 75 CURVE SMOOTH",
"173 39 OFFCURVE",
"218 19 OFFCURVE",
"275 19 CURVE SMOOTH",
"356 19 OFFCURVE",
"411 58 OFFCURVE",
"442 135 CURVE",
"469 120 LINE",
"438 40 OFFCURVE",
"372 -12 OFFCURVE",
"275 -12 CURVE SMOOTH"
);
},
{
closed = 1;
nodes = (
"215 489 OFFCURVE",
"172 469 OFFCURVE",
"141 433 CURVE SMOOTH",
"110 397 OFFCURVE",
"94 345 OFFCURVE",
"94 284 CURVE SMOOTH",
"94 280 LINE",
"442 280 LINE",
"442 286 LINE SMOOTH",
"442 347 OFFCURVE",
"425 398 OFFCURVE",
"395 434 CURVE SMOOTH",
"365 469 OFFCURVE",
"322 489 OFFCURVE",
"271 489 CURVE SMOOTH"
);
},
{
closed = 1;
nodes = (
"140 683 LINE",
"404 683 LINE",
"404 653 LINE",
"140 653 LINE"
);
}
);
width = 537;
}
);
leftKerningGroup = c;
rightKerningGroup = e;
unicode = 0113;
},
